<?xml version="1.0" encoding="iso-8859-1"?>
<!-- Generator: Adobe Illustrator 19.0.0, SVG Export Plug-In . SVG Version: 6.00 Build 0)  -->
<svg version="1.1" id="Capa_1" xmlns="http://www.w3.org/2000/svg" xmlns:xlink="http://www.w3.org/1999/xlink" x="0px" y="0px"
	 viewBox="0 0 512 512" style="enable-background:new 0 0 512 512;" xml:space="preserve">
<path style="fill:#C3C8D1;" d="M502.953,423.127L440.408,93.986v264.961l-84.795,84.795h129.1
	C496.26,443.741,504.995,433.869,502.953,423.127z"/>
<path style="fill:#B0B3B7;" d="M440.408,93.986v264.961l-84.795,84.795h29.286l70.651-70.651c3.751-3.751,5.858-8.839,5.858-14.144
	V204.504L440.408,93.986z"/>
<path style="fill:#E4EAF8;" d="M441.408,358.946V93.986c0-7.393-5.993-13.386-13.386-13.386H20.64
	c-7.393,0-13.386,5.993-13.386,13.386v356.646c0,7.393,5.993,13.386,13.386,13.386h315.697L441.408,358.946z"/>
<g>
	<path style="fill:#D8DCE5;" d="M27.255,450.631V93.986c0-7.393,5.993-13.386,13.386-13.386H20.639
		c-7.393,0-13.386,5.993-13.386,13.386v356.646c0,7.393,5.993,13.386,13.386,13.386H40.64
		C33.248,464.018,27.255,458.024,27.255,450.631z"/>
	<path style="fill:#D8DCE5;" d="M441.408,358.946h-91.685c-7.393,0-13.386,5.993-13.386,13.386v91.685L441.408,358.946z"/>
</g>
<path style="fill:#C3C8D1;" d="M356.338,372.333c0-7.393,5.993-13.386,13.386-13.386h-20.001c-7.393,0-13.386,5.993-13.386,13.386
	v91.685l20.001-20.001V372.333z"/>
<path style="fill:#FF5050;" d="M428.022,79.599H20.64c-7.393,0-13.386,5.993-13.386,13.386v68.995h434.154V92.986
	C441.408,85.592,435.415,79.599,428.022,79.599z"/>
<path style="fill:#ED3A3A;" d="M27.255,93.986c0-7.393,5.993-13.386,13.386-13.386H20.639c-7.393,0-13.386,5.993-13.386,13.386
	v67.995h20.001V93.986z"/>
<g>
	<circle style="fill:#FFC850;" cx="184.45" cy="239.143" r="23.091"/>
	<circle style="fill:#FFC850;" cx="264.205" cy="239.143" r="23.091"/>
	<circle style="fill:#FFC850;" cx="343.969" cy="239.143" r="23.091"/>
	<circle style="fill:#FFC850;" cx="184.45" cy="313.767" r="23.091"/>
	<circle style="fill:#FFC850;" cx="343.969" cy="313.767" r="23.091"/>
	<circle style="fill:#FFC850;" cx="264.205" cy="313.767" r="23.091"/>
	<circle style="fill:#FFC850;" cx="264.205" cy="388.391" r="23.091"/>
	<circle style="fill:#FFC850;" cx="184.45" cy="388.391" r="23.091"/>
</g>
<g>
	<path style="fill:#F9B428;" d="M181.36,239.139c0-9.171,5.346-17.093,13.092-20.82c-3.026-1.456-6.418-2.272-10.001-2.272
		c-12.754,0-23.092,10.339-23.092,23.092c0,12.754,10.339,23.092,23.092,23.092c3.582,0,6.974-0.816,10.001-2.272
		C186.707,256.232,181.36,248.311,181.36,239.139z"/>
	<path style="fill:#F9B428;" d="M261.119,239.139c0-9.171,5.346-17.093,13.092-20.82c-3.026-1.456-6.417-2.272-10.001-2.272
		c-12.754,0-23.092,10.339-23.092,23.092c0,12.754,10.339,23.092,23.092,23.092c3.583,0,6.974-0.816,10.001-2.272
		C266.465,256.232,261.119,248.311,261.119,239.139z"/>
	<path style="fill:#F9B428;" d="M340.878,239.139c0-9.171,5.346-17.093,13.092-20.82c-3.026-1.456-6.417-2.272-10.001-2.272
		c-12.754,0-23.092,10.339-23.092,23.092c0,12.754,10.339,23.092,23.092,23.092c3.583,0,6.974-0.816,10.001-2.272
		C346.225,256.232,340.878,248.311,340.878,239.139z"/>
	<path style="fill:#F9B428;" d="M181.36,313.764c0-9.171,5.346-17.093,13.092-20.82c-3.026-1.456-6.418-2.272-10.001-2.272
		c-12.754,0-23.092,10.339-23.092,23.092c0,12.754,10.339,23.092,23.092,23.092c3.582,0,6.974-0.816,10.001-2.272
		C186.707,330.857,181.36,322.935,181.36,313.764z"/>
	<path style="fill:#F9B428;" d="M340.878,313.764c0-9.171,5.346-17.093,13.092-20.82c-3.026-1.456-6.417-2.272-10.001-2.272
		c-12.754,0-23.092,10.339-23.092,23.092c0,12.754,10.339,23.092,23.092,23.092c3.583,0,6.974-0.816,10.001-2.272
		C346.225,330.857,340.878,322.935,340.878,313.764z"/>
	<path style="fill:#F9B428;" d="M261.119,313.764c0-9.171,5.346-17.093,13.092-20.82c-3.026-1.456-6.417-2.272-10.001-2.272
		c-12.754,0-23.092,10.339-23.092,23.092c0,12.754,10.339,23.092,23.092,23.092c3.583,0,6.974-0.816,10.001-2.272
		C266.465,330.857,261.119,322.935,261.119,313.764z"/>
	<path style="fill:#F9B428;" d="M261.119,388.389c0-9.171,5.346-17.093,13.092-20.82c-3.026-1.456-6.417-2.272-10.001-2.272
		c-12.754,0-23.092,10.339-23.092,23.092c0,12.754,10.339,23.092,23.092,23.092c3.583,0,6.974-0.816,10.001-2.272
		C266.465,405.482,261.119,397.56,261.119,388.389z"/>
	<path style="fill:#F9B428;" d="M181.36,388.389c0-9.171,5.346-17.093,13.092-20.82c-3.026-1.456-6.418-2.272-10.001-2.272
		c-12.754,0-23.092,10.339-23.092,23.092c0,12.754,10.339,23.092,23.092,23.092c3.582,0,6.974-0.816,10.001-2.272
		C186.707,405.482,181.36,397.56,181.36,388.389z"/>
</g>
<path d="M184.698,208.046c-16.869,0-30.593,13.724-30.593,30.593s13.724,30.593,30.593,30.593s30.593-13.724,30.593-30.593
	S201.567,208.046,184.698,208.046z M184.698,254.231c-8.597,0-15.592-6.994-15.592-15.592s6.994-15.592,15.592-15.592
	s15.592,6.994,15.592,15.592S193.295,254.231,184.698,254.231z"/>
<path d="M264.457,269.232c16.869,0,30.593-13.724,30.593-30.593s-13.724-30.593-30.593-30.593s-30.594,13.724-30.594,30.593
	S247.588,269.232,264.457,269.232z M264.457,223.047c8.598,0,15.592,6.994,15.592,15.592s-6.994,15.592-15.592,15.592
	c-8.598,0-15.593-6.994-15.593-15.592S255.859,223.047,264.457,223.047z"/>
<path d="M344.216,269.232c16.869,0,30.593-13.724,30.593-30.593s-13.724-30.593-30.593-30.593
	c-16.869,0-30.593,13.724-30.593,30.593S327.347,269.232,344.216,269.232z M344.216,223.047c8.598,0,15.592,6.994,15.592,15.592
	s-6.994,15.592-15.592,15.592s-15.592-6.994-15.592-15.592S335.619,223.047,344.216,223.047z"/>
<path d="M184.698,282.671c-16.869,0-30.593,13.724-30.593,30.593c0,16.869,13.724,30.593,30.593,30.593s30.593-13.724,30.593-30.593
	C215.291,296.395,201.567,282.671,184.698,282.671z M184.698,328.856c-8.597,0-15.592-6.994-15.592-15.592
	s6.994-15.592,15.592-15.592s15.592,6.994,15.592,15.592S193.295,328.856,184.698,328.856z"/>
<path d="M344.216,343.857c16.869,0,30.593-13.724,30.593-30.593c0-16.869-13.724-30.593-30.593-30.593
	c-16.869,0-30.593,13.724-30.593,30.593C313.623,330.133,327.347,343.857,344.216,343.857z M344.216,297.672
	c8.598,0,15.592,6.994,15.592,15.592s-6.994,15.592-15.592,15.592s-15.592-6.994-15.592-15.592S335.619,297.672,344.216,297.672z"/>
<path d="M264.457,343.857c16.869,0,30.593-13.724,30.593-30.593c0-16.869-13.724-30.593-30.593-30.593s-30.594,13.724-30.594,30.593
	C233.863,330.133,247.588,343.857,264.457,343.857z M264.457,297.672c8.598,0,15.592,6.994,15.592,15.592
	s-6.994,15.592-15.592,15.592c-8.598,0-15.593-6.994-15.593-15.592S255.859,297.672,264.457,297.672z"/>
<path d="M264.457,418.482c16.869,0,30.593-13.724,30.593-30.593c0-16.869-13.724-30.594-30.593-30.594s-30.593,13.725-30.593,30.594
	C233.864,404.758,247.588,418.482,264.457,418.482z M264.457,372.297c8.598,0,15.592,6.994,15.592,15.593
	c0,8.598-6.994,15.592-15.592,15.592c-8.598,0-15.593-6.994-15.593-15.592C248.865,379.292,255.859,372.297,264.457,372.297z"/>
<path d="M184.698,357.296c-16.869,0-30.593,13.725-30.593,30.594c0,16.869,13.724,30.593,30.593,30.593s30.593-13.724,30.593-30.593
	C215.291,371.02,201.567,357.296,184.698,357.296z M184.698,403.481c-8.597,0-15.592-6.994-15.592-15.592
	c0-8.598,6.994-15.593,15.592-15.593s15.592,6.994,15.592,15.593C200.289,396.487,193.295,403.481,184.698,403.481z"/>
<path d="M83.308,260.272c1.464,1.464,3.384,2.196,5.303,2.196c1.919,0,3.839-0.732,5.304-2.197l11.025-11.025l11.025,11.025
	c1.465,1.465,3.384,2.197,5.304,2.197c1.919,0,3.839-0.732,5.303-2.196c2.93-2.93,2.93-7.678,0.001-10.607l-11.026-11.026
	l11.026-11.026c2.929-2.929,2.929-7.677-0.001-10.607c-2.928-2.928-7.677-2.929-10.607,0.001l-11.025,11.025l-11.025-11.025
	c-2.929-2.929-7.678-2.93-10.607-0.001c-2.93,2.93-2.93,7.678-0.001,10.607l11.026,11.026l-11.026,11.026
	C80.378,252.594,80.378,257.342,83.308,260.272z"/>
<path d="M83.308,334.897c1.464,1.464,3.384,2.196,5.303,2.196c1.919,0,3.839-0.732,5.304-2.197l11.025-11.025l11.025,11.025
	c1.465,1.465,3.384,2.197,5.304,2.197c1.919,0,3.839-0.732,5.303-2.196c2.93-2.93,2.93-7.678,0.001-10.607l-11.026-11.026
	l11.026-11.026c2.929-2.929,2.929-7.677-0.001-10.607c-2.928-2.928-7.677-2.929-10.607,0.001l-11.025,11.025l-11.025-11.025
	c-2.929-2.93-7.678-2.929-10.607-0.001c-2.93,2.93-2.93,7.678-0.001,10.607l11.026,11.026l-11.026,11.026
	C80.378,327.219,80.378,331.967,83.308,334.897z"/>
<path d="M126.571,366.256c-2.93-2.928-7.678-2.928-10.608,0l-11.025,11.025l-11.025-11.025c-2.93-2.928-7.678-2.928-10.608,0
	c-2.929,2.93-2.929,7.678,0,10.608l11.025,11.025l-11.025,11.025c-2.929,2.93-2.929,7.678,0,10.608
	c1.465,1.464,3.385,2.196,5.304,2.196c1.919,0,3.839-0.732,5.304-2.196l11.025-11.025l11.025,11.025
	c1.465,1.464,3.385,2.196,5.304,2.196s3.839-0.732,5.304-2.196c2.929-2.93,2.929-7.678,0-10.608l-11.025-11.025l11.025-11.025
	C129.5,373.935,129.5,369.186,126.571,366.256z"/>
<path d="M511.569,421.227l-20.455-107.645c-0.773-4.069-4.708-6.741-8.77-5.968c-4.069,0.773-6.741,4.699-5.968,8.77l20.455,107.645
	c1.144,6.025-3.943,11.712-10.872,11.712h-110.99l71.99-71.989c1.317-1.317,2.196-3.241,2.196-5.304V173.133l20.569,108.248
	c0.773,4.069,4.703,6.742,8.77,5.968c4.069-0.773,6.741-4.699,5.968-8.77L449.106,92.522c-0.509-11.069-9.647-19.923-20.838-19.923
	h-65.73V48.482c0-4.143-3.357-7.5-7.5-7.5c-4.143,0-7.5,3.357-7.5,7.5v24.116h-50.23V48.482c0-4.143-3.357-7.5-7.5-7.5
	c-4.143,0-7.5,3.357-7.5,7.5v24.116h-50.231V48.482c0-4.143-3.357-7.5-7.5-7.5c-4.143,0-7.5,3.357-7.5,7.5v24.116h-50.23V48.482
	c0-4.143-3.357-7.5-7.5-7.5c-4.143,0-7.5,3.357-7.5,7.5v24.116h-50.23V48.482c0-4.143-3.357-7.5-7.5-7.5c-4.143,0-7.5,3.357-7.5,7.5
	v24.116H20.887C9.37,72.599,0,81.968,0,93.486l0,0v356.646c0,11.517,9.37,20.886,20.887,20.886h186.19c4.143,0,7.5-3.357,7.5-7.5
	s-3.357-7.5-7.5-7.5H20.887c-3.245,0-5.886-2.64-5.886-5.885V169.981h419.154v180.964h-84.186c-11.517,0-20.886,9.37-20.886,20.887
	v84.185h-87.005c-4.143,0-7.5,3.357-7.5,7.5s3.357,7.5,7.5,7.5h94.505c1.935,0,3.875-0.767,5.304-2.196l18.08-18.08H485.96
	C502.25,450.741,514.483,436.559,511.569,421.227z M15.001,154.98V93.486c0-3.245,2.641-5.886,5.886-5.886h65.73v33.69
	c0,4.143,3.357,7.5,7.5,7.5c4.143,0,7.5-3.357,7.5-7.5v-33.69h50.23v33.69c0,4.143,3.357,7.5,7.5,7.5c4.143,0,7.5-3.357,7.5-7.5
	v-33.69h50.23v33.69c0,4.143,3.357,7.5,7.5,7.5c4.143,0,7.5-3.357,7.5-7.5v-33.69h50.231v33.69c0,4.143,3.357,7.5,7.5,7.5
	c4.143,0,7.5-3.357,7.5-7.5v-33.69h50.23v33.69c0,4.143,3.357,7.5,7.5,7.5c4.143,0,7.5-3.357,7.5-7.5v-33.69h65.73
	c3.245,0,5.886,2.641,5.886,5.886v61.494H15.001z M344.083,371.833c0-3.245,2.64-5.886,5.885-5.886h73.578
	c-7.506,7.506-71.943,71.943-79.464,79.463L344.083,371.833L344.083,371.833z"/>
<g>
</g>
<g>
</g>
<g>
</g>
<g>
</g>
<g>
</g>
<g>
</g>
<g>
</g>
<g>
</g>
<g>
</g>
<g>
</g>
<g>
</g>
<g>
</g>
<g>
</g>
<g>
</g>
<g>
</g>
</svg>
