<svg height="512pt" viewBox="0 0 512 512" width="512pt" xmlns="http://www.w3.org/2000/svg"><g fill="#9cdd05"><path d="m60.015625 511.957031c-33.65625 0-60.015625-19.765625-60.015625-45.011719 0-25.246093 26.359375-45.011718 60.015625-45.011718 33.652344 0 60.011719 19.765625 60.011719 45.011718 0 25.246094-26.359375 45.011719-60.011719 45.011719zm0 0"/><path d="m90.019531 325.074219v141.871093c0 8.292969 6.710938 15.003907 15.003907 15.003907 8.292968 0 15.003906-6.710938 15.003906-15.003907v-159.339843c0-2.671875-.882813-5.042969-2.101563-7.214844zm0 0"/><path d="m324.976562 185.480469c-3.300781-2.703125-7.800781-4.203125-12.003906-3.601563l-210.046875 30.007813c-7.503906 1.199219-12.90625 7.5-12.90625 15v98.125l117.929688-18.003907 122.128906-18.605468v-91.519532c0-4.503906-1.800781-8.402343-5.101563-11.402343zm0 0"/><path d="m496.996094 179.84375c-8.292969 0-15.003906-6.511719-15.003906-14.804688 0-74.460937-60.570313-135.03125-135.03125-135.03125-8.292969 0-15.003907-6.710937-15.003907-15.003906 0-8.292968 6.710938-15.003906 15.003907-15.003906 91.003906 0 165.039062 74.035156 165.039062 165.039062 0 8.292969-6.710938 14.804688-15.003906 14.804688zm0 0"/><path d="m436.980469 179.84375c-8.292969 0-15-6.511719-15-14.804688 0-41.363281-33.65625-75.019531-75.019531-75.019531-8.292969 0-15.003907-6.707031-15.003907-15s6.710938-15.003906 15.003907-15.003906c57.90625 0 105.023437 47.117187 105.023437 105.023437 0 8.292969-6.710937 14.804688-15.003906 14.804688zm0 0"/><path d="m376.96875 179.84375c-8.292969 0-15.003906-6.511719-15.003906-14.804688 0-8.277343-6.726563-15.003906-15.003906-15.003906-8.292969 0-15.003907-6.710937-15.003907-15.003906s6.710938-15.003906 15.003907-15.003906c24.820312 0 45.011718 20.191406 45.011718 45.011718 0 8.292969-6.710937 14.804688-15.003906 14.804688zm0 0"/></g><path d="m270.0625 481.949219c-33.652344 0-60.011719-19.765625-60.011719-45.011719s26.359375-45.011719 60.011719-45.011719c33.65625 0 60.015625 19.765625 60.015625 45.011719s-26.359375 45.011719-60.015625 45.011719zm0 0" fill="#6b0"/><path d="m300.070312 436.9375c0 8.292969 6.710938 15.003906 15.003907 15.003906s15.003906-6.710937 15.003906-15.003906v-148.554688l-30.007813-8.328124zm0 0" fill="#6b0"/><path d="m330.078125 196.882812v91.519532l-122.128906 18.605468v-110.125l105.023437-15.003906c4.203125-.601562 8.703125.898438 12.003906 3.601563 3.300782 3 5.101563 6.898437 5.101563 11.402343zm0 0" fill="#6b0"/></svg>