<?xml version="1.0" encoding="iso-8859-1"?>
<!-- Generator: Adobe Illustrator 19.0.0, SVG Export Plug-In . SVG Version: 6.00 Build 0)  -->
<svg version="1.1" id="Layer_1" xmlns="http://www.w3.org/2000/svg" xmlns:xlink="http://www.w3.org/1999/xlink" x="0px" y="0px"
	 viewBox="0 0 512.001 512.001" style="enable-background:new 0 0 512.001 512.001;" xml:space="preserve">
<path style="fill:#FFF1CD;" d="M429.419,449.239v55.88H102.256c-3.062,0-5.983-0.573-8.675-1.63v-76.271l335.177,22.021H429.419z"/>
<path style="fill:#F9F7F7;" d="M429.419,393.348v55.891h-0.663H93.58v-54.261c2.693-1.057,5.613-1.63,8.675-1.63H429.419z"/>
<path style="fill:#FEE191;" d="M93.58,394.978c23.255,7.08,40.167,28.694,40.167,54.261c0,25.556-16.913,47.17-40.167,54.25
	c-9.194-3.534-15.723-12.442-15.723-22.88v-62.739C77.857,407.431,84.386,398.512,93.58,394.978z"/>
<path style="fill:#FFD24D;" d="M434.137,5.23H94.115c-13.538,0-24.511,10.974-24.511,24.512v369.186
	c9.918-0.567,19.837-1.159,29.769-1.432c0.974-0.183,1.974-0.29,3-0.29h331.765c4.562,0,8.258-3.696,8.258-8.258V13.488
	C442.396,8.926,438.698,5.23,434.137,5.23z"/>
<path style="fill:#1B4145;" d="M298.38,265.783h-32.135V137.204h32.134c0,0,2.361-19.695,2.361-40.286
	c0-20.592-2.361-40.287-2.361-40.287s-36.963-1.542-52.304,11.211c-20.535,17.07-34.817,71.157-34.817,133.652
	s14.282,116.582,34.817,133.652c15.342,12.752,52.304,11.211,52.304,11.211s2.361-19.695,2.361-40.286
	C300.741,285.478,298.38,265.783,298.38,265.783z"/>
<path d="M240.796,340.119c14.307,11.892,41.789,13.197,53.172,13.197c2.373,0,4.048-0.057,4.756-0.087
	c4.046-0.168,7.373-3.246,7.855-7.268c0.099-0.825,2.419-20.424,2.419-41.268c0-20.847-2.32-40.445-2.419-41.269
	c-0.497-4.151-4.018-7.275-8.199-7.275h-23.877V144.086h23.877c4.181,0,7.702-3.125,8.199-7.275
	c0.099-0.825,2.419-20.424,2.419-41.269s-2.32-40.444-2.419-41.268c-0.482-4.021-3.809-7.099-7.855-7.268
	c-4.108-0.174-40.638-1.262-57.926,13.111c-22.607,18.791-37.797,75.055-37.797,140.002S218.19,321.327,240.796,340.119z
	 M251.355,72.816c8.51-7.074,27.58-9.043,39.561-9.337c0.673,7.434,1.568,19.642,1.568,32.062c0,12.401-0.892,24.59-1.565,32.029
	h-24.672c-4.562,0-8.258,3.696-8.258,8.258v128.578c0,4.562,3.696,8.258,8.258,8.258h24.672c0.673,7.439,1.565,19.628,1.565,32.029
	c0,12.42-0.895,24.627-1.568,32.062c-11.984-0.296-31.05-2.265-39.562-9.337c-15.82-13.151-31.837-61.102-31.837-127.301
	C219.517,133.917,235.533,85.968,251.355,72.816z"/>
<path d="M117.31,488.289c1.495,1.141,3.256,1.692,5.002,1.692c2.488,0,4.947-1.12,6.572-3.249
	c6.897-9.04,11.175-19.498,12.592-30.615h188.147c4.562,0,8.258-3.696,8.258-8.258c0-4.562-3.696-8.258-8.258-8.258H141.477
	c-1.434-11.262-5.8-21.835-12.852-30.951c-2.79-3.608-7.978-4.273-11.584-1.481c-3.608,2.789-4.271,7.976-1.481,11.584
	c6.493,8.397,9.926,18.463,9.926,29.107c0,10.53-3.366,20.509-9.735,28.856C112.986,480.341,113.683,485.522,117.31,488.289z"/>
<path d="M442.396,391.976V8.258c0-4.562-3.696-8.258-8.258-8.258H102.374C84.305,0,69.604,14.702,69.604,32.77v446.461
	c0,18.069,14.7,32.77,32.769,32.77h331.765c4.562,0,8.258-3.696,8.258-8.258c0-4.562-3.696-8.258-8.258-8.258h-3.414v-81.782
	c0-4.562-3.696-8.258-8.258-8.258c-4.562,0-8.258,3.696-8.258,8.258v25.899h-49.569c-4.562,0-8.258,3.696-8.258,8.258
	c0,4.562,3.696,8.258,8.258,8.258h49.569v39.366H102.374c-8.962,0-16.253-7.291-16.253-16.254v-62.741
	c0-8.963,7.291-16.254,16.253-16.254h331.765C438.699,400.234,442.396,396.538,442.396,391.976z M425.879,383.718H102.374
	c-5.909,0-11.46,1.573-16.253,4.322V32.77c0-8.963,7.291-16.254,16.253-16.254H425.88v367.202H425.879z"/>
<g>
</g>
<g>
</g>
<g>
</g>
<g>
</g>
<g>
</g>
<g>
</g>
<g>
</g>
<g>
</g>
<g>
</g>
<g>
</g>
<g>
</g>
<g>
</g>
<g>
</g>
<g>
</g>
<g>
</g>
</svg>
