<?xml version="1.0" encoding="iso-8859-1"?>
<!-- Generator: Adobe Illustrator 19.0.0, SVG Export Plug-In . SVG Version: 6.00 Build 0)  -->
<svg version="1.1" id="Capa_1" xmlns="http://www.w3.org/2000/svg" xmlns:xlink="http://www.w3.org/1999/xlink" x="0px" y="0px"
	 viewBox="0 0 512.025 512.025" style="enable-background:new 0 0 512.025 512.025;" xml:space="preserve">
<path style="fill:#78909C;" d="M501.358,170.679h-32c-2.505,0.002-4.929,0.886-6.848,2.496l-330.667,256
	c-2.418,2.025-3.816,5.016-3.819,8.171v42.667c0,5.891,4.776,10.667,10.667,10.667h362.667c5.891,0,10.667-4.776,10.667-10.667
	V181.346C512.025,175.455,507.249,170.679,501.358,170.679z"/>
<path style="fill:#90A4AE;" d="M458.692,106.679h-32c-2.505,0.002-4.929,0.886-6.848,2.496L89.177,386.508
	c-2.418,2.025-3.816,5.016-3.819,8.171v42.667c0,5.891,4.776,10.667,10.667,10.667h362.667c5.891,0,10.667-4.776,10.667-10.667v-320
	C469.358,111.455,464.583,106.679,458.692,106.679z"/>
<path style="fill:#B0BEC5;" d="M416.025,64.012h-32c-2.505,0.002-4.929,0.886-6.848,2.496L46.51,343.842
	c-2.418,2.025-3.816,5.016-3.819,8.171v42.667c0,5.891,4.776,10.667,10.667,10.667h362.667c5.891,0,10.667-4.776,10.667-10.667v-320
	C426.692,68.788,421.916,64.012,416.025,64.012z"/>
<path style="fill:#CFD8DC;" d="M373.358,21.346H10.692c-5.891,0-10.667,4.776-10.667,10.667v320
	c0.003,5.891,4.782,10.664,10.673,10.66c3.619-0.002,6.99-1.839,8.954-4.879l88.853-138.219l54.656,54.656
	c2.305,2.424,5.657,3.557,8.96,3.029c3.295-0.437,6.198-2.386,7.851-5.269l75.435-132.032l108.416,216.832
	c1.808,3.609,5.499,5.888,9.536,5.888c0.827,0.004,1.651-0.096,2.453-0.299c4.809-1.136,8.207-5.427,8.213-10.368v-320
	C384.025,26.121,379.249,21.346,373.358,21.346z"/>
<circle style="fill:#FFC107;" cx="117.358" cy="117.346" r="53.333"/>
<path style="fill:#00BCD4;" d="M382.894,347.234L265.561,112.567c-1.759-3.515-5.309-5.777-9.237-5.888
	c-3.912-0.022-7.545,2.021-9.557,5.376l-78.4,137.216l-54.123-54.144c-2.253-2.331-5.462-3.482-8.683-3.115
	c-3.208,0.347-6.086,2.127-7.829,4.843l-96,149.333c-3.217,4.935-1.823,11.544,3.112,14.76c1.739,1.134,3.772,1.735,5.848,1.73
	h362.667c5.891,0,10.667-4.776,10.666-10.667C384.024,350.353,383.637,348.717,382.894,347.234L382.894,347.234z"/>
<g>
</g>
<g>
</g>
<g>
</g>
<g>
</g>
<g>
</g>
<g>
</g>
<g>
</g>
<g>
</g>
<g>
</g>
<g>
</g>
<g>
</g>
<g>
</g>
<g>
</g>
<g>
</g>
<g>
</g>
</svg>
