<svg xmlns="http://www.w3.org/2000/svg" viewBox="0 0 126.23 99.78"><defs><style>.cls-1{fill:#232c77;}.cls-2{fill:#1d1d1b;}.cls-3{fill:#fff;}.cls-4{fill:#d49f00;}.cls-5{fill:#133058;}</style></defs><title>Asset 6</title><g id="Layer_2" data-name="Layer 2"><g id="Layer_1-2" data-name="Layer 1"><rect class="cls-1" x="15.77" y="29.38" width="33.14" height="33.14"/><path class="cls-2" d="M11.24,10.21a.76.76,0,0,0-.61-.29c-.37,0-.54.16-.54.35s.26.29.58.33c.54.06,1.05.21,1.05.83s-.52.83-1.1.83a1.08,1.08,0,0,1-1.13-.64l.41-.21a.74.74,0,0,0,.73.41c.31,0,.6-.11.6-.39s-.26-.35-.6-.39c-.54-.06-1-.2-1-.78s.53-.76,1-.76a1,1,0,0,1,1,.51Z"/><polygon class="cls-2" points="14.04 12.19 12.09 12.19 12.09 9.59 14.04 9.59 14.04 10.06 12.57 10.06 12.57 10.66 13.99 10.66 13.99 11.12 12.57 11.12 12.57 11.71 14.04 11.71 14.04 12.19"/><path class="cls-2" d="M16.71,11.86a1.35,1.35,0,0,1-1,.39,1.28,1.28,0,0,1-1.38-1.34,1.32,1.32,0,0,1,1.38-1.38,1.36,1.36,0,0,1,1,.4l-.33.32a.88.88,0,0,0-.63-.25.85.85,0,0,0-.89.91.83.83,0,0,0,.89.88.93.93,0,0,0,.66-.27Z"/><path class="cls-2" d="M19.3,12.19h-.59L18,11.32h-.48v.87H17V9.58h1.24a.86.86,0,0,1,.94.86.78.78,0,0,1-.66.82l.79.89ZM17.48,10v.84h.75a.42.42,0,1,0,0-.84Z"/><polygon class="cls-2" points="21.44 12.19 19.49 12.19 19.49 9.59 21.44 9.59 21.44 10.06 19.98 10.06 19.98 10.66 21.39 10.66 21.39 11.12 19.98 11.12 19.98 11.71 21.44 11.71 21.44 12.19"/><polygon class="cls-2" points="22.65 10.03 21.82 10.03 21.82 9.59 23.96 9.59 23.96 10.03 23.14 10.03 23.14 12.19 22.65 12.19 22.65 10.03"/><path class="cls-2" d="M26.11,11.7H24.75l-.22.49H24l1.17-2.6h.54l1.17,2.6h-.54Zm-.68-1.57L25,11.24h1Z"/><path class="cls-2" d="M29.4,12.19h-.59l-.76-.87h-.47v.87h-.49V9.58h1.24a.86.86,0,0,1,.94.86.78.78,0,0,1-.66.82l.79.89ZM27.58,10v.84h.75a.42.42,0,1,0,0-.84Z"/><rect class="cls-2" x="29.6" y="9.59" width="0.49" height="2.61"/><path class="cls-2" d="M32.4,11.7H31l-.23.49h-.53l1.17-2.6H32l1.17,2.6h-.54Zm-.68-1.57-.49,1.11h1Z"/><path class="cls-2" d="M36.38,10.87a1.23,1.23,0,0,1-1.3,1.32h-1V9.59h1a1.23,1.23,0,0,1,1.3,1.28m-1.84.85h.54a.77.77,0,0,0,.81-.86.77.77,0,0,0-.81-.81h-.54Z"/><polygon class="cls-2" points="38.65 12.19 36.7 12.19 36.7 9.59 38.65 9.59 38.65 10.06 37.18 10.06 37.18 10.66 38.59 10.66 38.59 11.12 37.18 11.12 37.18 11.71 38.65 11.71 38.65 12.19"/><polygon class="cls-2" points="41.72 12.19 39.77 12.19 39.77 9.59 41.72 9.59 41.72 10.06 40.26 10.06 40.26 10.66 41.67 10.66 41.67 11.12 40.26 11.12 40.26 11.71 41.72 11.71 41.72 12.19"/><path class="cls-2" d="M43.79,10.21a.78.78,0,0,0-.62-.29c-.37,0-.54.16-.54.35s.27.29.58.33c.54.06,1,.21,1,.83s-.52.83-1.1.83A1.08,1.08,0,0,1,42,11.62l.41-.21a.74.74,0,0,0,.73.41c.31,0,.6-.11.6-.39s-.26-.35-.6-.39c-.53-.06-1-.2-1-.78s.53-.76,1-.76a1.06,1.06,0,0,1,1,.51Z"/><polygon class="cls-2" points="45.31 10.03 44.48 10.03 44.48 9.59 46.63 9.59 46.63 10.03 45.8 10.03 45.8 12.19 45.31 12.19 45.31 10.03"/><path class="cls-2" d="M48.78,11.7H47.41l-.22.49h-.53l1.17-2.6h.53l1.17,2.6H49Zm-.69-1.57-.48,1.11h1Z"/><path class="cls-2" d="M52.12,10.87a1.23,1.23,0,0,1-1.3,1.32h-1V9.59h1a1.23,1.23,0,0,1,1.3,1.28m-1.83.85h.53a.78.78,0,0,0,.82-.86.78.78,0,0,0-.82-.81h-.53Z"/><path class="cls-2" d="M55,10.9a1.34,1.34,0,1,1-2.67,0,1.3,1.3,0,0,1,1.34-1.38A1.29,1.29,0,0,1,55,10.9m-2.19,0a.86.86,0,1,0,1.71,0,.86.86,0,1,0-1.71,0"/><path class="cls-2" d="M15,17.42a1.24,1.24,0,0,1-1.31,1.33h-1V16.14h1A1.24,1.24,0,0,1,15,17.42m-1.84.85h.53a.83.83,0,0,0,0-1.66h-.53Z"/><polygon class="cls-2" points="17.21 18.75 15.26 18.75 15.26 16.14 17.21 16.14 17.21 16.62 15.75 16.62 15.75 17.22 17.16 17.22 17.16 17.67 15.75 17.67 15.75 18.26 17.21 18.26 17.21 18.75"/><rect class="cls-2" x="18.35" y="16.14" width="0.49" height="2.6"/><polygon class="cls-2" points="21.01 16.14 21.5 16.14 21.5 18.75 21.19 18.75 21.19 18.75 19.82 16.99 19.82 18.75 19.33 18.75 19.33 16.14 19.73 16.14 21.01 17.75 21.01 16.14"/><polygon class="cls-2" points="21.95 18.75 21.95 16.14 23.82 16.14 23.82 16.62 22.44 16.62 22.44 17.33 23.75 17.33 23.75 17.78 22.44 17.78 22.44 18.75 21.95 18.75"/><path class="cls-2" d="M26.47,18.75h-.59l-.75-.88h-.48v.88h-.49V16.14H25.4a.86.86,0,0,1,.94.86.78.78,0,0,1-.66.82l.79.89ZM24.65,16.6v.83h.75a.42.42,0,1,0,0-.83Z"/><path class="cls-2" d="M28.52,18.25H27.16l-.23.5H26.4l1.17-2.61h.54l1.16,2.61h-.53Zm-.68-1.56-.49,1.11h1Z"/><polygon class="cls-2" points="31.4 18.75 29.45 18.75 29.45 16.14 31.4 16.14 31.4 16.62 29.94 16.62 29.94 17.22 31.35 17.22 31.35 17.67 29.94 17.67 29.94 18.26 31.4 18.26 31.4 18.75"/><path class="cls-2" d="M33.46,16.77a.73.73,0,0,0-.61-.29c-.37,0-.54.15-.54.35s.26.29.58.32c.54.07,1,.21,1,.83s-.52.83-1.1.83a1.07,1.07,0,0,1-1.13-.64l.41-.21a.72.72,0,0,0,.73.41c.31,0,.6-.1.6-.39s-.26-.34-.6-.38c-.54-.06-1-.21-1-.79s.53-.76,1-.76a1,1,0,0,1,1,.52Z"/><polygon class="cls-2" points="34.99 16.59 34.16 16.59 34.16 16.14 36.31 16.14 36.31 16.59 35.48 16.59 35.48 18.75 34.99 18.75 34.99 16.59"/><path class="cls-2" d="M38.91,18.75h-.58l-.76-.88H37.1v.88h-.49V16.14h1.24a.85.85,0,0,1,.93.86.77.77,0,0,1-.65.82l.78.89ZM37.1,16.6v.83h.75a.42.42,0,1,0,0-.83Z"/><path class="cls-2" d="M41.48,16.14v1.5a1.05,1.05,0,0,1-1.13,1.16,1.09,1.09,0,0,1-1.16-1.16v-1.5h.49v1.5a.63.63,0,0,0,.67.71c.41,0,.64-.27.64-.71v-1.5Z"/><polygon class="cls-2" points="42.63 16.59 41.81 16.59 41.81 16.14 43.95 16.14 43.95 16.59 43.12 16.59 43.12 18.75 42.63 18.75 42.63 16.59"/><path class="cls-2" d="M46.61,16.14v1.5a1.05,1.05,0,0,1-1.13,1.16,1.09,1.09,0,0,1-1.16-1.16v-1.5h.49v1.5a.63.63,0,0,0,.68.71c.4,0,.63-.27.63-.71v-1.5Z"/><path class="cls-2" d="M49.4,18.75h-.58l-.76-.88h-.48v.88h-.49V16.14h1.24a.86.86,0,0,1,.94.86.77.77,0,0,1-.66.82l.79.89ZM47.58,16.6v.83h.75a.42.42,0,1,0,0-.83Z"/><path class="cls-2" d="M51.45,18.25H50.09l-.22.5h-.54l1.17-2.61H51l1.17,2.61h-.54Zm-.68-1.56-.48,1.11h1Z"/><polygon class="cls-2" points="23.07 25.3 21.13 25.3 21.13 22.7 23.07 22.7 23.07 23.17 21.61 23.17 21.61 23.77 23.02 23.77 23.02 24.23 21.61 24.23 21.61 24.82 23.07 24.82 23.07 25.3"/><polygon class="cls-2" points="24.7 22.7 24.7 24.85 26.04 24.85 26.04 25.3 24.21 25.3 24.21 22.7 24.7 22.7"/><path class="cls-2" d="M28.87,24a1.29,1.29,0,0,1-1.34,1.35A1.27,1.27,0,0,1,26.19,24a1.34,1.34,0,1,1,2.68,0m-2.2,0a.86.86,0,1,0,1.71,0,.86.86,0,1,0-1.71,0"/><path class="cls-2" d="M31.16,23.33a1,1,0,0,0-.66-.26.89.89,0,0,0-.9,1,.82.82,0,0,0,.9.87.86.86,0,0,0,.59-.21v-.46h-.67v-.44h1.12v1.1a1.29,1.29,0,0,1-1,.47A1.26,1.26,0,0,1,29.12,24a1.33,1.33,0,0,1,1.38-1.41,1.36,1.36,0,0,1,1,.4Z"/><path class="cls-2" d="M31.94,22.7h.49v2.6h-.49Zm.84-.77h-.54l-.27.5v0h.4l.41-.51Z"/><path class="cls-2" d="M34.57,23.32A.77.77,0,0,0,34,23c-.36,0-.53.16-.53.35s.26.29.58.33c.54.06,1,.21,1,.83s-.52.83-1.1.83a1.08,1.08,0,0,1-1.13-.64l.41-.21a.74.74,0,0,0,.73.41c.31,0,.6-.11.6-.39s-.26-.35-.61-.39c-.53-.06-1-.2-1-.78s.53-.76,1-.76a1,1,0,0,1,1,.51Z"/><polygon class="cls-2" points="36.1 23.14 35.27 23.14 35.27 22.7 37.41 22.7 37.41 23.14 36.59 23.14 36.59 25.3 36.1 25.3 36.1 23.14"/><rect class="cls-2" x="37.72" y="22.7" width="0.49" height="2.6"/><path class="cls-2" d="M41,25a1.35,1.35,0,0,1-1,.39A1.28,1.28,0,0,1,38.59,24,1.32,1.32,0,0,1,40,22.64a1.36,1.36,0,0,1,1,.4l-.33.32a.88.88,0,0,0-.63-.25.86.86,0,0,0-.9.91.84.84,0,0,0,.9.88.93.93,0,0,0,.66-.27Z"/><path class="cls-2" d="M43,24.81H41.61l-.22.49h-.54L42,22.7h.54l1.17,2.6h-.54Zm-.68-1.57-.48,1.11h1Z"/><path class="cls-2" d="M22.15,1.46A1.54,1.54,0,0,0,20.89.87c-.74,0-1.1.31-1.1.7s.55.59,1.18.67c1.11.13,2.14.42,2.14,1.68s-1.05,1.69-2.23,1.69a2.19,2.19,0,0,1-2.3-1.3l.83-.43a1.51,1.51,0,0,0,1.49.84c.63,0,1.22-.22,1.22-.8s-.53-.7-1.23-.77c-1.08-.13-2.08-.42-2.08-1.61S19.89,0,20.86,0a2.14,2.14,0,0,1,2.08,1.05Z"/><rect class="cls-2" x="23.89" y="0.18" width="0.99" height="5.29"/><polygon class="cls-2" points="29.29 0.17 30.29 0.17 30.29 5.48 29.67 5.48 29.67 5.48 26.89 1.91 26.89 5.48 25.89 5.48 25.89 0.18 26.7 0.18 29.29 3.46 29.29 0.17"/><polygon class="cls-2" points="31.21 5.47 31.21 0.19 35.01 0.19 35.01 1.15 32.21 1.15 32.21 2.59 34.86 2.59 34.86 3.52 32.21 3.52 32.21 5.47 31.21 5.47"/><path class="cls-2" d="M40.4,5.48H39.21L37.67,3.71h-1V5.48h-1V.17h2.52a1.76,1.76,0,0,1,1.9,1.76A1.57,1.57,0,0,1,38.79,3.6L40.4,5.41ZM36.71,1.11v1.7h1.52a.83.83,0,0,0,.9-.85.83.83,0,0,0-.9-.85Z"/><path class="cls-2" d="M44.56,4.48H41.8l-.46,1H40.26L42.64.18h1.08l2.38,5.3H45ZM43.18,1.29l-1,2.26h2Z"/><path class="cls-2" d="M15.67,67.87a1.8,1.8,0,0,0-1.18-.46,1.58,1.58,0,0,0-1.59,1.71,1.46,1.46,0,0,0,1.59,1.54,1.56,1.56,0,0,0,1-.37v-.82H14.35v-.78h2v2a2.33,2.33,0,0,1-1.85.83,2.23,2.23,0,0,1-2.44-2.35,2.35,2.35,0,0,1,2.44-2.51,2.46,2.46,0,0,1,1.72.71Z"/><path class="cls-2" d="M21.4,69.08A2.27,2.27,0,0,1,19,71.48a2.25,2.25,0,0,1-2.38-2.39,2.38,2.38,0,1,1,4.75,0m-3.89,0a1.52,1.52,0,1,0,3,0,1.52,1.52,0,1,0-3,0"/><polygon class="cls-2" points="24.07 71.39 23.17 71.39 21.25 66.75 22.23 66.75 23.62 70.34 25.02 66.75 26 66.75 24.07 71.39"/><polygon class="cls-2" points="29.76 71.37 26.3 71.37 26.3 66.75 29.76 66.75 29.76 67.59 27.16 67.59 27.16 68.65 29.67 68.65 29.67 69.47 27.16 69.47 27.16 70.51 29.76 70.51 29.76 71.37"/><path class="cls-2" d="M34.17,71.37h-1l-1.35-1.55H31v1.55h-.87V66.74h2.2a1.54,1.54,0,0,1,1.66,1.54,1.37,1.37,0,0,1-1.17,1.45l1.4,1.58ZM31,67.56V69h1.33a.74.74,0,1,0,0-1.48Z"/><polygon class="cls-2" points="37.4 66.74 38.27 66.74 38.27 71.37 37.73 71.37 37.73 71.38 35.3 68.25 35.3 71.37 34.43 71.37 34.43 66.75 35.14 66.75 37.4 69.61 37.4 66.74"/><path class="cls-2" d="M43.28,69.08a2.38,2.38,0,1,1-4.75,0,2.38,2.38,0,1,1,4.75,0m-3.89,0a1.52,1.52,0,1,0,1.52-1.65,1.5,1.5,0,0,0-1.52,1.65"/><path class="cls-2" d="M49,69a2.19,2.19,0,0,1-2.31,2.35H44.86V66.75h1.82A2.17,2.17,0,0,1,49,69m-3.26,1.51h1a1.48,1.48,0,0,0,0-3h-1Z"/><polygon class="cls-2" points="52.63 71.37 49.16 71.37 49.16 66.75 52.63 66.75 52.63 67.59 50.03 67.59 50.03 68.65 52.53 68.65 52.53 69.47 50.03 69.47 50.03 70.51 52.63 70.51 52.63 71.37"/><path class="cls-2" d="M8.86,90.93A4.37,4.37,0,0,0,6,89.8,3.86,3.86,0,0,0,2.09,94,3.58,3.58,0,0,0,6,97.76a3.74,3.74,0,0,0,2.56-.91v-2H5.64V92.94H10.5v4.77a5.65,5.65,0,0,1-4.52,2C1.73,99.75,0,97,0,94c0-3.18,2-6.13,6-6.13a6,6,0,0,1,4.21,1.74Z"/><path class="cls-2" d="M21.39,99.49H18.85l-3.3-3.78H13.49v3.78H11.36V88.15l5.38,0a3.75,3.75,0,0,1,4.08,3.75A3.36,3.36,0,0,1,18,95.48l3.43,3.86Zm-7.9-9.33v3.62h3.25a1.81,1.81,0,1,0,0-3.62Z"/><path class="cls-2" d="M32.83,93.89c0,2.93-1.83,5.86-5.81,5.86a5.52,5.52,0,0,1-5.82-5.84,5.65,5.65,0,0,1,5.82-6,5.63,5.63,0,0,1,5.81,6m-9.53,0c.05,1.86,1.06,3.85,3.72,3.85s3.68-2,3.71-3.86-1-4.05-3.71-4.05a3.69,3.69,0,0,0-3.72,4.06"/><path class="cls-2" d="M40.5,90.9a3.25,3.25,0,0,0-2.69-1.26c-1.58,0-2.35.66-2.35,1.5s1.17,1.27,2.53,1.43c2.36.29,4.56.9,4.56,3.6,0,2.53-2.23,3.61-4.76,3.61-2.31,0-4.09-.71-4.93-2.78l1.78-.92a3.23,3.23,0,0,0,3.19,1.79c1.34,0,2.6-.47,2.6-1.7,0-1.06-1.12-1.5-2.62-1.66-2.31-.28-4.45-.89-4.45-3.43,0-2.33,2.3-3.28,4.39-3.3,1.76,0,3.59.5,4.44,2.25Z"/><path class="cls-2" d="M50.52,90.9a3.21,3.21,0,0,0-2.68-1.26c-1.59,0-2.35.66-2.35,1.5s1.17,1.27,2.53,1.43c2.36.29,4.56.9,4.56,3.6,0,2.53-2.23,3.61-4.76,3.61-2.31,0-4.09-.71-4.93-2.78l1.78-.92a3.23,3.23,0,0,0,3.18,1.79c1.35,0,2.61-.47,2.61-1.7,0-1.06-1.12-1.5-2.62-1.66-2.31-.28-4.45-.89-4.45-3.43,0-2.33,2.3-3.28,4.38-3.3,1.77,0,3.59.5,4.45,2.25Z"/><path class="cls-2" d="M64.68,93.89c0,2.93-1.83,5.86-5.81,5.86a5.51,5.51,0,0,1-5.82-5.84,5.82,5.82,0,1,1,11.63,0m-9.53,0c.05,1.86,1.05,3.85,3.72,3.85s3.67-2,3.7-3.86-1-4.05-3.7-4.05a3.68,3.68,0,0,0-3.72,4.06"/><polygon class="cls-2" points="19.38 76.93 15.7 81.84 15.28 81.84 11.68 76.91 11.68 85.14 9.54 85.14 9.54 73.83 12 73.83 15.54 78.69 19.08 73.83 21.52 73.83 21.52 85.14 19.38 85.14 19.38 76.93"/><path class="cls-2" d="M31.89,83H26l-1,2.13H22.7l5.07-11.31H30.1l5.07,11.31H32.85Zm-2.95-6.8L26.84,81H31Z"/><polygon class="cls-2" points="37.51 75.75 33.92 75.75 33.92 73.81 43.23 73.81 43.23 75.75 39.64 75.75 39.64 85.12 37.51 85.12 37.51 75.75"/><path class="cls-2" d="M55.13,79.53c0,2.92-1.82,5.85-5.8,5.85a5.52,5.52,0,0,1-5.82-5.83,5.81,5.81,0,1,1,11.62,0m-9.52,0c0,1.86,1.06,3.84,3.72,3.84s3.67-2,3.7-3.86-1-4-3.7-4a3.69,3.69,0,0,0-3.72,4.06"/><path class="cls-3" d="M29.73,43.82c.43.16.37.35.37.35l-.36.92.39,0,1-2.61c.12,0,.23,0,.26-.12a.28.28,0,0,0,0-.13h0l-.16-.54-.49.29h0a.13.13,0,0,0,0,.07c0,.08,0,.18.11.26l-.09.22s-.07.16-.5,0a.48.48,0,0,1-.33-.55,1.24,1.24,0,0,0-.76,2,.47.47,0,0,1,.61-.18"/><path class="cls-3" d="M28.57,48.1a.18.18,0,0,0,.34.14l.75-1.92-.33-.18Z"/><path class="cls-3" d="M30.35,44.91h4.18l.65-2.24h-4Zm1.86-1.65.46.27L32.6,43h1l-.47.55.65-.27-.37,1.05L33,44l.08.56H32l.46-.56-.65.27Z"/><path class="cls-3" d="M34.16,45.76A4,4,0,0,0,35,46.83l1.2-.54-.85-1.42Z"/><path class="cls-3" d="M30.44,45.56c-.07-.28-.14-.37-.31-.38h-.2a1.16,1.16,0,0,0-.39,0,.23.23,0,0,0-.06.06l0,0a1.29,1.29,0,0,0,.22.06c.2,0,.3.07.34.13a.19.19,0,0,1,0,.08h0a.68.68,0,0,0,.09.65l-.11.09a1.1,1.1,0,0,1-.09-.14.76.76,0,0,1-.2.06h0s.07.22.49.15l.38-.35a1.58,1.58,0,0,1-.18-.44"/><path class="cls-3" d="M32.68,47.2a4.74,4.74,0,0,0,1.57-1c-.09-.14-.17-.26-.21-.34l-.36.28a9.24,9.24,0,0,1-1.08.63,2.24,2.24,0,0,0,.08.44"/><path class="cls-3" d="M32.3,46.86a1.49,1.49,0,0,1-.09.3,2.45,2.45,0,0,1-.5.91,1.1,1.1,0,0,0,.67.23,1.21,1.21,0,0,0,.66-.2,2.07,2.07,0,0,1-.58-1.28l-.16,0"/><path class="cls-3" d="M34.33,46.32a4.9,4.9,0,0,1-1.61,1,1.53,1.53,0,0,0,.45.68h0c.75-.55,1.42-1,1.65-1.1a3.18,3.18,0,0,1-.5-.59"/><path class="cls-3" d="M32.15,46.73a3.51,3.51,0,0,1-1.44-.62l-.36.33a4.21,4.21,0,0,0,1.12,1.66l.09-.09a3.41,3.41,0,0,0,.51-.9,1.61,1.61,0,0,0,.08-.38"/><path class="cls-3" d="M29.88,45.94a.2.2,0,0,0,0-.07.25.25,0,0,1-.13,0,1,1,0,0,1-.47-.11.19.19,0,0,0,0,.1.73.73,0,0,0,.58.06"/><path class="cls-3" d="M29.92,46.07l0,0a1,1,0,0,1-.27,0,.8.8,0,0,1-.27,0,.19.19,0,0,0,.06.07c.07.05.21.08.5,0"/><path class="cls-3" d="M29.42,45.38s0,0-.05-.05l-.05,0a.11.11,0,0,0,0,.08c0,.1.4.18.57.19,0-.05,0-.08,0-.11l-.22-.06a.88.88,0,0,1-.27-.08"/><path class="cls-3" d="M29.87,45.79h0v-.08a1.27,1.27,0,0,1-.58-.18s0,.12,0,.15a.8.8,0,0,0,.59.11"/><path class="cls-3" d="M27.47,57l.41.19.24-.52-.28-.12Z"/><path class="cls-3" d="M27.74,56.52l-.52-.24,0,0a.06.06,0,0,1,0,0l.42-.73L25.88,57l-.2,1,1.05-.27.64-.77h0Z"/><path class="cls-3" d="M37.08,55.48l.42.73s0,0,0,0,0,0,0,0l-.52.24,1,1.21L39,58l-.21-1Z"/><path class="cls-3" d="M36.63,56.66l.21.47.35-.16-.33-.4-.23.09"/><path class="cls-3" d="M28.82,54.43l-.38.33c.14.07.32.16.56.26l.23-.27Z"/><path class="cls-3" d="M35.86,54.41l-.41.31.26.31c.23-.1.41-.2.55-.27Z"/><path class="cls-3" d="M24,52.71l-.17-.2-.22.18.16.21a.14.14,0,0,0,.21,0,.14.14,0,0,0,0-.21"/><path class="cls-3" d="M27.78,55.19,27.9,55a12.48,12.48,0,0,1-4.84-4.83L21.78,51.7a12.49,12.49,0,0,0,4.6,4.71Zm-5.2-3.11.53-.83.11.15-.43.63.74-.17.11.15-1,.21Zm.38.52.72-.55.1.14-.72.55Zm.71.87h0l-.13-.15.06-.4-.1-.13-.24.2-.11-.14.7-.57c.1.1.19.22.28.33a.29.29,0,0,1,0,.44.26.26,0,0,1-.36,0Zm.22.25.55-.51-.2-.21.11-.11.51.55-.11.11-.2-.21-.55.51Zm.68.72a.38.38,0,0,1,0-.57l.36-.38.12.12-.35.38a.21.21,0,0,0,0,.34c.1.1.22.08.33,0l.36-.38.12.12-.36.38a.36.36,0,0,1-.56,0m.6.51.48-.58-.22-.18.09-.12c.21.16.38.31.58.47l-.1.12-.22-.18-.47.58Zm1.09.61-.1.14-.55-.39.52-.75.56.4-.1.13-.42-.29-.11.17.4.28-.1.13L26,55.1l-.12.17Z"/><path class="cls-3" d="M29.23,55.83,29,55.74l-.12.3.24.09a.16.16,0,1,0,.12-.3"/><path class="cls-3" d="M32.33,56.37a.32.32,0,0,0,0,.63.3.3,0,0,0,.3-.32.29.29,0,0,0-.3-.31"/><polygon class="cls-3" points="34.08 56.68 34.41 56.62 34.17 56.27 34.08 56.68"/><path class="cls-3" d="M36.53,54.73a8.46,8.46,0,0,1-4.18,1.1,8.58,8.58,0,0,1-4.18-1.1l-.85,1.48a12.75,12.75,0,0,0,5,1.26,12.47,12.47,0,0,0,5-1.26Zm-7.47,1.55-.24-.09-.1.25-.16-.07.33-.84.4.15a.32.32,0,1,1-.23.6m1,.58-.61-.18.24-.87.17,0-.21.72.45.13Zm.46.12a.38.38,0,0,1-.31-.48l.09-.51.17,0-.1.51a.23.23,0,0,0,.18.29.22.22,0,0,0,.27-.2l.1-.51.17,0-.1.51a.38.38,0,0,1-.47.33m1-.44c.19,0,.36.11.34.32s-.21.27-.41.25a.36.36,0,0,1-.37-.26l.15-.06a.25.25,0,0,0,.24.17c.1,0,.21,0,.22-.11s-.08-.13-.2-.16-.35-.1-.33-.31.21-.24.38-.22a.38.38,0,0,1,.34.21l-.14.06a.24.24,0,0,0-.21-.12c-.13,0-.19,0-.2.1s.08.11.19.13m1.24.67-.11-.11a.46.46,0,0,1-.25.06.44.44,0,0,1-.47-.47.45.45,0,0,1,.48-.47.45.45,0,0,1,.46.46.53.53,0,0,1-.09.3l.11.11Zm.65-.08a.38.38,0,0,1-.44-.37l0-.52H33l0,.51a.22.22,0,0,0,.25.23.21.21,0,0,0,.2-.27l0-.52h.17l0,.52a.38.38,0,0,1-.35.44m1.27-.21-.1-.16-.47.09L34,57l-.19,0,.24-1,.18,0,.57.82Zm1-.27L35.45,56l-.17.47h0l-.38-.3.18.63-.16,0L34.62,56l.19-.05.38.3.17-.46.19-.05.25.87Z"/><path class="cls-3" d="M40.69,52.57a.3.3,0,0,0,.05.44.29.29,0,0,0,.43,0,.29.29,0,0,0,0-.43.3.3,0,0,0-.44,0"/><polygon class="cls-3" points="39.18 54.59 38.81 54.39 38.91 54.8 39.18 54.59"/><path class="cls-3" d="M40.15,53.18l-.18.18.2.21.19-.19a.14.14,0,0,0,0-.21.14.14,0,0,0-.21,0"/><path class="cls-3" d="M36.76,55.05l1.51,1.32a12.28,12.28,0,0,0,4.58-4.66l-1.21-1.47a12.35,12.35,0,0,1-4.88,4.81m2.74-.28-.17-.09L39,55l0,.18-.15.12-.23-1,.15-.12.88.48ZM40,54.4a.38.38,0,0,1-.57,0L39.05,54l.13-.11.34.39a.22.22,0,0,0,.34,0,.21.21,0,0,0,0-.33l-.35-.39.13-.11.34.39a.36.36,0,0,1,0,.56m.84-.81-.4,0-.12.12.21.22-.12.12-.64-.65.31-.3a.3.3,0,0,1,.44,0,.26.26,0,0,1,0,.36l.41,0h0Zm.49-.5a.45.45,0,0,1-.66,0,.46.46,0,0,1-.06-.67.47.47,0,0,1,.67,0,.45.45,0,0,1,0,.66"/><path class="cls-3" d="M40.54,50.53h0a.55.55,0,0,1,.28.31h0a.44.44,0,0,0-.08-.62.42.42,0,0,0-.47,0,.42.42,0,0,1,0,.33.51.51,0,0,1,.24,0"/><path class="cls-3" d="M23,44.32h0l-.06.05,0,0a.31.31,0,0,0-.05.1.49.49,0,0,0,0,.12,0,0,0,0,1,0,0,.2.2,0,0,0,0,.08h0a.18.18,0,0,0,.1.07.24.24,0,0,0,.29-.18.24.24,0,0,0-.15-.31.2.2,0,0,0-.15,0h0"/><path class="cls-3" d="M39.92,43.54a.28.28,0,0,0-.05.39h0a.36.36,0,0,1,.18-.19h0a.44.44,0,0,1,.15,0,.31.31,0,0,1,0-.21.28.28,0,0,0-.29,0"/><path class="cls-3" d="M40.23,50.64a.71.71,0,0,0-.36.39.37.37,0,0,0,.13.36.46.46,0,0,0,.62-.16.6.6,0,0,0,.12-.3.35.35,0,0,0-.24-.3h0a.37.37,0,0,0-.26,0Z"/><path class="cls-3" d="M40.08,43.81h0a.23.23,0,0,0-.15.19.42.42,0,0,0,.08.18.3.3,0,0,0,.39.11.25.25,0,0,0,.08-.23.44.44,0,0,0-.23-.24h0a.25.25,0,0,0-.16,0"/><path class="cls-3" d="M45.07,47.61a.79.79,0,0,0-1-.37c0-.05.09-.09.13-.15l.14-.16a.55.55,0,0,0,.1-.76.8.8,0,0,1-.1-.42.82.82,0,0,1-.28.33.55.55,0,0,0-.25.73A.42.42,0,0,0,44,47a.14.14,0,0,0,.09,0s-.43.27-.76.53a3,3,0,0,1-.67.4,1.13,1.13,0,0,0,.4-1.44,1.5,1.5,0,0,1-.05-.87,1.61,1.61,0,0,1-.68.55,1.13,1.13,0,0,0-.78,1.37A.93.93,0,0,0,42,48a.77.77,0,0,0,.45,0l-.23.08-.43.11a3.44,3.44,0,0,0-.55.15,11.18,11.18,0,0,0,.11-3.5.5.5,0,0,0,.09.24.82.82,0,0,0,.5.23,1,1,0,0,0,1-.94,1.37,1.37,0,0,1,.32-.69,1.35,1.35,0,0,1-.75.13,1,1,0,0,0-1.18.72,1.44,1.44,0,0,0,0,.28c0-.21-.07-.43-.12-.64l-.32-1a.6.6,0,0,0,.2.25.94.94,0,0,0,.65.07,1.18,1.18,0,0,0,.79-1.44,1.62,1.62,0,0,1,.11-.91,1.58,1.58,0,0,1-.8.43,1.2,1.2,0,0,0-1.06,1.27l-.36-1.16h0a.63.63,0,0,0,.42-.1A.8.8,0,0,0,41,40.55a1,1,0,0,1-.14-.58,1.1,1.1,0,0,1-.4.45.79.79,0,0,0-.36,1,.85.85,0,0,0,.16.2c0,.11.08.51.18,1a.68.68,0,0,0-.66-.34.92.92,0,0,1-.48-.12.87.87,0,0,1,.17.46.64.64,0,0,0,.61.65.51.51,0,0,0,.33-.12.36.36,0,0,0,.08-.23c0,.19.08.39.13.6a.27.27,0,0,0-.34-.06.2.2,0,0,0,0,.24.8.8,0,0,1,.24.26l.11,0a.41.41,0,0,0,.07-.11l.09.41a6.1,6.1,0,0,1,.12,1,1.11,1.11,0,0,0-1.2-.8,1.44,1.44,0,0,1-.81-.21,1.52,1.52,0,0,1,.3.79,1.08,1.08,0,0,0,1,1.11.86.86,0,0,0,.57-.21.73.73,0,0,0,.14-.34,9.65,9.65,0,0,1-.07,1.4.28.28,0,0,0,0-.08.72.72,0,0,0-.92-.39,1,1,0,0,1-.56,0,.89.89,0,0,1,.31.46.73.73,0,0,0,.83.56.62.62,0,0,0,.3-.18,3.47,3.47,0,0,1-.92,2.08l-.36.28a.92.92,0,0,0-.06-1.13,1.19,1.19,0,0,1-.24-.64,1.23,1.23,0,0,1-.39.56.9.9,0,0,0-.27,1.22A.73.73,0,0,0,39,50a.52.52,0,0,0,.28-.06,4.91,4.91,0,0,1-1.65,1,11.18,11.18,0,0,0,.11-1.56V42.18a1,1,0,0,1,0-.46l-.08-.36-1.39-.93.36-.41.17-.19a1,1,0,0,1,.92-.31l.14,0,.22.1c.28-.57-.21-1-.45-1.16a.79.79,0,0,1-.25-.26,5.48,5.48,0,0,1,.49.25h0a3.76,3.76,0,0,0,2.6.69,16.94,16.94,0,0,0-1.42-1.44,9,9,0,0,1,1.7,1.45,1.79,1.79,0,0,0,.79.28c.67,0-.23-.74-.93-1.28-3.5-2.79-5.25-3.09-6.14-3.07s-.41.83-.41.83c.58,1,0,1.06,0,1.06-.41.07-.77-.36-1-.57a1.65,1.65,0,0,1-.14-1.3s.63.2.7-.06-.35-.28-.35-.28.48,0,.53-.34a1.55,1.55,0,0,1,.13-.49,1.62,1.62,0,0,1-.93.44c-.23,0,0-.5,0-.5a1,1,0,0,0-.31.24c-.23.26-.34.23-.8.2a.53.53,0,0,0-.49.24,1.21,1.21,0,0,0-.42-.06c-.44.06-.39.32-.39.32a.93.93,0,0,1,.45-.09c.26,0,.29.07.29.16s-.35.12-.35.12,0,0,.18.09.45,0,.49.27a2.63,2.63,0,0,1-.15,1,.9.9,0,0,1-.29.35h0l-.07,0a2,2,0,0,0-.48.67A1,1,0,0,1,31,37a.5.5,0,0,1-.36,0s-.53-.09,0-1.06c0,0,.48-.8-.41-.83s-2.64.28-6.14,3.07c-.69.54-1.59,1.24-.92,1.28a1.77,1.77,0,0,0,.81-.3h0a8.7,8.7,0,0,1,1.69-1.43,16.94,16.94,0,0,0-1.42,1.44,3.77,3.77,0,0,0,2.59-.69,3.67,3.67,0,0,1,.47-.24,1.19,1.19,0,0,0-.18.15l-.26.27.37-.07.24,0,.12.16.06.45a2.34,2.34,0,0,0,.09.33,3.45,3.45,0,0,0,.58.89l-1.43,1-.08.36a1,1,0,0,1,.06.46v7.21A10.08,10.08,0,0,0,27,50.83a7,7,0,0,1-.89-.6.66.66,0,0,0,.27-.21c.06-.08-.05-.13,0-.26s.19-.24.2-.28-.07-.1-.06-.25.08-.29.08-.33-.09,0-.12-.16,0-.08,0-.13,0-.18,0-.28-.15,0-.17-.07-.09-.29-.18-.38-.15,0-.2,0l-.2-.16c-.05.08-.14.16-.18.22s-.15,0-.18.1,0,.31,0,.42-.13.09-.13.12.07.17.07.27V49c0,.12-.11.07-.07.18l.19.3c0,.09,0,.13,0,.18l-.23-.19a3.15,3.15,0,0,1-.87-1.81l.16.06c.08,0,.08-.09.19-.1l.28,0c.1,0,0-.1.15-.14a2.29,2.29,0,0,0,.28-.07c.08,0,0-.07.06-.15l.08-.07c.05-.06.15,0,.2-.12s0-.13,0-.15.17-.17.21-.28-.06-.1,0-.15,0-.13,0-.2a1.89,1.89,0,0,0-.23,0c-.05,0-.08-.09-.13-.09s-.24.1-.33.12L25,46.21c-.09,0-.1.12-.17.16l-.1.05c-.09,0-.09-.05-.16,0s-.12.22-.14.24-.14,0-.18.11,0,.25,0,.28a.28.28,0,0,1-.06.08,9.44,9.44,0,0,1-.09-1.39.7.7,0,0,0,.26.1c.12,0,.11-.13.28-.14l.4.07c.15,0,.07-.14.23-.2l.39-.1c.13-.07,0-.11.1-.22a.57.57,0,0,0,.11-.11c.08-.08.22-.06.29-.17s0-.18,0-.21.26-.25.31-.41-.09-.14-.07-.22a2.34,2.34,0,0,0,.05-.3c-.1,0-.23-.06-.32-.07s-.13-.13-.2-.13-.34.15-.47.18-.17-.09-.2-.08-.14.17-.25.22l-.14.08c-.13.07-.13-.07-.23,0s-.18.31-.21.35-.16,0-.21.1,0-.17,0-.24c.1-.43.19-.86.26-1.25a.82.82,0,0,0,.26.16c.09,0,.1-.08.22-.07s.25.08.29.08.06-.09.18-.12l.3,0c.1,0,0-.09.09-.15l.1-.07c.06-.06.16,0,.22-.1s0-.14,0-.16.21-.16.27-.26-.06-.12,0-.17.05-.14.07-.22-.17-.07-.24-.08-.07-.11-.12-.12-.27.08-.37.08-.11-.07-.14-.07-.12.11-.2.14l-.11,0c-.1,0-.09-.06-.17,0s-.16.21-.19.24-.14,0-.2.09a2.45,2.45,0,0,0-.08.29.13.13,0,0,1-.07.06l.14-.81a.47.47,0,0,0,.12-.13c0-.07,0-.11,0-.21s.13-.2.14-.24-.07-.07-.07-.19a2.19,2.19,0,0,0,0-.27c0-.09-.07,0-.1-.11l0-.1c0-.07,0-.15,0-.22s-.12,0-.13,0-.1-.22-.18-.29-.11,0-.15,0l-.17-.11L24,40c0,.05-.11,0-.13.09s0,.25,0,.34-.09.08-.09.1.07.14.07.21,0,.07,0,.11-.08.07,0,.15l.17.22c0,.1,0,.13,0,.2a1.88,1.88,0,0,0,.24.14c.08.08,0,.15.08.19a.72.72,0,0,0,.25.07c-.08.28-.21.69-.34,1.09h0c0-.13-.15-.11-.18-.28s0-.39,0-.44-.16-.06-.24-.22-.13-.37-.16-.41-.11,0-.23-.08l-.14-.11c-.1-.08-.09-.23-.22-.29s-.18.06-.22,0-.3-.24-.47-.27-.15.11-.23.1a1.66,1.66,0,0,0-.32,0,2.33,2.33,0,0,0,0,.36c0,.08-.13.14-.12.22s.2.35.24.49-.07.19-.06.22.2.14.27.24a.71.71,0,0,0,.1.14c.1.14-.06.16.06.25s.35.15.4.18,0,.21.19.26.39,0,.45,0,.14.2.26.2a1.22,1.22,0,0,0,.48-.12l0-.08c-.16.48-.29.88-.29.89s-.06.24-.08.37a.11.11,0,0,0,0-.08.23.23,0,0,0-.2-.07.77.77,0,0,0-.15.28s0,0,0,.06,0,.16.05.2a.16.16,0,0,0,.13,0,.36.36,0,0,0,.19-.21,11.41,11.41,0,0,0,.09,3.6,3.44,3.44,0,0,0-.55-.15l-.36-.09a1.26,1.26,0,0,0,.28-.25c.06-.1-.06-.15,0-.29a3.45,3.45,0,0,0,.2-.32c0-.13-.09-.1-.08-.26s.07-.33.07-.37-.1,0-.14-.16l-.06-.14c0-.1,0-.21,0-.31s-.16,0-.18-.06-.12-.31-.23-.41-.15,0-.21,0l-.23-.16c-.05.08-.14.17-.18.25s-.16,0-.19.12,0,.34,0,.46-.13.11-.14.14.09.19.1.29a.76.76,0,0,0,0,.15c0,.14-.11.09-.06.21s.19.26.22.31-.06.16,0,.27.29.17.32.2a.26.26,0,0,1,.07.18,2.92,2.92,0,0,1-.75-.43l-.42-.31a.61.61,0,0,0-.07-.1h0l.09-.1c0-.06,0-.08,0-.17l.11-.18c0-.08-.05-.06-.05-.15s0-.19,0-.22-.06,0-.08-.09a.3.3,0,0,0,0-.08c0-.05,0-.12,0-.17s-.1,0-.11,0-.07-.17-.14-.23-.09,0-.12,0l-.14-.09a1.3,1.3,0,0,1-.1.15s-.09,0-.1.07a1.22,1.22,0,0,0,0,.27s-.08.06-.08.08.06.1.06.16a.28.28,0,0,0,0,.09c0,.08-.06.05,0,.12l.13.17c0,.08,0,.1,0,.16l.08,0a.11.11,0,0,1-.1,0,2.77,2.77,0,0,1-.26-.1c-.1,0,0,.07-.14.08l-.11,0c-.08,0-.15-.05-.23,0s-.06.11-.08.13-.25,0-.34.1,0,.12-.05.16l-.15.14c.05,0,.11.13.16.17s0,.12.06.15a1.43,1.43,0,0,0,.34.09s.06.12.08.13.15,0,.23,0l.11,0c.1,0,.05.09.14.07l.26-.11c.12,0,.12.06.21,0l.2-.2c.09-.07.15,0,.21,0a.47.47,0,0,0,.08-.14,3.7,3.7,0,0,0,1.76,1,.9.9,0,0,1,.27.1l-.09,0-.32-.07c-.11,0,0,.08-.15.11l-.12,0c-.08,0-.18,0-.26,0s-.05.14-.07.16-.27.09-.36.18,0,.14,0,.19a1.57,1.57,0,0,0-.15.19c.07,0,.14.12.21.16s0,.14.09.17.29,0,.4,0,.09.12.11.13.17-.08.26-.07h.13c.12,0,.07.1.17.06a2.68,2.68,0,0,0,.28-.18c.13,0,.15.06.24,0s.16-.24.19-.26.18,0,.23-.09a.4.4,0,0,0,.08-.16c.39.32.88.75,1.51,1.31l.2.18a4.63,4.63,0,0,0,.84.62h0c-.1,0,0,.08-.13.11l-.11,0c-.08,0-.16,0-.24,0s0,.13-.06.15-.25.08-.33.16,0,.13,0,.17l-.14.18c.06,0,.13.12.19.15s0,.13.09.15.27,0,.36,0,.08.11.11.11.15-.06.23-.06h.12c.11,0,.06.09.16.05s.22-.15.25-.16.13.05.22,0a.38.38,0,0,0,.08-.11c.09.2.16.31.18.35a5.51,5.51,0,0,0,2.64,2.48,5.16,5.16,0,0,0,2.06.37h.05A5,5,0,0,0,37,52.73a3.1,3.1,0,0,0,.36-.86.05.05,0,0,0,0,0v0l0-.05a.38.38,0,0,0,.18,0,.35.35,0,0,0-.08.16.78.78,0,0,0,.13.5.94.94,0,0,0,1.3.18,1.28,1.28,0,0,1,.71-.17,1.31,1.31,0,0,1-.55-.48,1.11,1.11,0,0,0-.78-.52,5.51,5.51,0,0,0,.84-.64l.2-.18.11-.09a.38.38,0,0,0,.13.39.51.51,0,0,0,.17.07,1.06,1.06,0,0,1,.39-.42.34.34,0,0,0,0-.38.4.4,0,0,0-.22-.05c.63-.55,1.1-.95,1.45-1.21a.47.47,0,0,0-.07.12.79.79,0,0,0,.08.53,1,1,0,0,0,1.32.33,1.32,1.32,0,0,1,.74-.11,1.33,1.33,0,0,1-.51-.54,1,1,0,0,0-1-.63l.09,0a3.59,3.59,0,0,0,1.77-1l0,0a.68.68,0,0,0,.11.42.79.79,0,0,0,1.08.14,1.07,1.07,0,0,1,.58-.14,1.12,1.12,0,0,1-.45-.39M31.72,34.73h0a0,0,0,0,1,0,0,.11.11,0,0,1,.07-.09.23.23,0,0,1,.13,0H32l.14,0a.05.05,0,0,0,0,0h0s0,0,0,0a.11.11,0,0,1-.06.09.5.5,0,0,1-.19,0,.08.08,0,0,1-.09.08.09.09,0,0,1-.08-.08h0l-.05,0m-3.71,5h0l-.06-.1h0a.93.93,0,0,0-.05-.1,3,3,0,0,1-.09-.32c.19.2.71.51.77,0,0-.32-.47-.64-.75-.71a1.37,1.37,0,0,0-.57,0c.61-.63,1.37-.26,2,.48.27.33,1,.29.81-.27a1,1,0,0,0-.74-.59h0c.79,0,1.43.08,1.9.78a1.68,1.68,0,0,0-.07-.39c-.14-.5-.1-1.07.55-1.17-.27.18,0,.55.24.31a.33.33,0,0,0,.14-.38,1.06,1.06,0,0,0-.15-.41A.73.73,0,0,1,32.24,38c-.07.09-.23.21-.19.33s.18.12.28.05.27-.3.22-.44a.85.85,0,0,1,.08.75,2.8,2.8,0,0,1,1.26-.51,3,3,0,0,1,.79,0,1.48,1.48,0,0,1,.51.13c-.51.1-.48.39-.49.51a1.16,1.16,0,0,0,1.38-.71.89.89,0,0,1-.25,1.19,1.28,1.28,0,0,1,1.93.14,1.09,1.09,0,0,0-1,.35c-.11.11-.29.34-.5.56a1,1,0,0,1-.21.16,2.1,2.1,0,0,1-1,.18H29.6a1.72,1.72,0,0,1-.92-.16.66.66,0,0,1-.2-.15,4.08,4.08,0,0,1-.47-.66m8.58,12.75,0,0A4.43,4.43,0,0,1,32.34,55h-.05a4.5,4.5,0,0,1-4.24-2.58v0a1.59,1.59,0,0,1-.21-.43,24.23,24.23,0,0,1,9,0,2.76,2.76,0,0,1-.21.45m-7.82-1.14a15.66,15.66,0,0,0,1.4-1.15c.27-.27,1.68-1.58,2.47-.81a.44.44,0,0,0,.6,0c.08-.08.13-.1.14-.09s.06,0,.09.15a1.5,1.5,0,0,0,.94,1,2.3,2.3,0,0,1,.93.78h0l.06.06a25.45,25.45,0,0,0-6.64.06m8.4-9.07v7.17A8.76,8.76,0,0,1,37,51.47L36,51.31a1.6,1.6,0,0,1-.47-.32,2.54,2.54,0,0,0-1.05-.86,1.25,1.25,0,0,1-.77-.86.45.45,0,0,0-.29-.34.44.44,0,0,0-.41.16.15.15,0,0,1-.21,0c-.24-.23-1.15-.86-2.86.81a19.71,19.71,0,0,1-1.79,1.45l-.25,0-.28-.36h-.06a9.3,9.3,0,0,1-.14-1.67V42.22a1.74,1.74,0,0,0,0-.53L28.49,41a2.12,2.12,0,0,0,1.11.21H35A2.16,2.16,0,0,0,36.14,41l1.07.72a1.53,1.53,0,0,0,0,.53"/><path class="cls-3" d="M24.45,50.13a.22.22,0,0,0-.16.18.3.3,0,0,0,0,.21c.11.15.24.23.35.2s.34,0,.36-.16a.42.42,0,0,0-.08-.18.56.56,0,0,0-.51-.25"/><path class="cls-3" d="M25.57,50.66l0,0a.26.26,0,0,0-.21-.14.27.27,0,0,0-.21.12,1.55,1.55,0,0,0,.14.35l0,.06s.13.12.2.1a.18.18,0,0,0,.12-.1.38.38,0,0,0-.06-.34"/><path class="cls-3" d="M25.33,51.14a.63.63,0,0,1-.2.25s-.1.28,0,.41a.2.2,0,0,0,.1.08c.14.06.23.07.29,0s.09-.07.12-.19,0-.2-.12-.36a1.23,1.23,0,0,0-.18-.23"/><path class="cls-3" d="M24.79,50.78a.23.23,0,0,0-.1.14h0v0a.28.28,0,0,0,0,.09v0a.35.35,0,0,0,.05.13.28.28,0,0,0,.1.09l0,0,.09,0h0a.32.32,0,0,0,.14,0,.29.29,0,0,0,.06-.4.29.29,0,0,0-.39-.1"/><path class="cls-3" d="M24.26,51.24c.09.12.37.14.58.13a.43.43,0,0,1-.18-.15.39.39,0,0,1,0-.4c-.16,0-.39.12-.4.33a.29.29,0,0,0,0,.09"/><path class="cls-3" d="M23.46,44.36a.35.35,0,0,0,.07-.15.48.48,0,0,0-.11-.47.19.19,0,0,0-.21,0,.21.21,0,0,0-.11.14c-.05.16,0,.29,0,.35s.22.2.31.14"/><path class="cls-3" d="M23,44.89s-.24.08-.28.22a.17.17,0,0,0,0,.1c0,.13.08.2.13.22s.1,0,.2,0,.13-.13.17-.29a.93.93,0,0,0,.05-.24.77.77,0,0,1-.27,0"/><path class="cls-3" d="M22.63,44.16a.13.13,0,0,0-.05.06c0,.13.11.32.23.46a.34.34,0,0,1,0-.2.33.33,0,0,1,.26-.24c-.11-.08-.3-.19-.44-.08"/><polygon class="cls-4" points="88.14 96.53 108.68 28.78 65.03 28.76 65.03 48.99 79.87 48.99 79.87 39.49 91.42 39.49 74.69 96.69 82.83 96.69 88.08 96.69 88.14 96.53"/><path class="cls-5" d="M125.27,53.18a13.51,13.51,0,0,0,.82-4.32l.14-13.36A7,7,0,0,0,119,28.23H103.87a7.16,7.16,0,0,0-7.34,7.27l-.16,14.65L99.14,53h5.64l2.82-2.8.12-11.37H115l-.12,11.57L95.43,89.83,95.14,91l0,3,2.35,2.38Z"/><path class="cls-5" d="M124.82,78.28H123l-1.06,1,0,1.73v0l-3.08,5.17h-9.6l6.73-13.71L99.46,96.82h24.68a1.59,1.59,0,0,0,1.55-1.53V94l0-5,.09-8.86h0v-.87Z"/><path class="cls-3" d="M108.72,93.51h-2.23l1.8-2.56Zm.38,2.18h1.23l-1.08-6H108l-4.29,6h1.22l.82-1.13h3.13Z"/><polygon class="cls-3" points="113.66 93.41 111.72 89.69 110.8 89.69 109.2 95.69 110.33 95.69 111.41 91.64 113.48 95.69 114.18 95.69 115.79 89.69 114.66 89.69 113.66 93.41"/><path class="cls-3" d="M117.75,90.6c1.41,0,1.68,1.13,1.39,2.14a2.63,2.63,0,0,1-2.51,2.05c-1.41,0-1.66-1.05-1.42-2a2.7,2.7,0,0,1,2.54-2.15m.28-1a4.15,4.15,0,0,0-3.93,3.15c-.42,1.58.15,3.1,2.25,3.1a4.09,4.09,0,0,0,3.91-3.1C120.69,91.16,120.09,89.58,118,89.58Z"/><path class="cls-3" d="M124.67,90.68c-.2-.92-1.1-1.19-2-1.19a2.76,2.76,0,0,0-2.79,1.75c-.36,1.34.68,1.67,1.87,1.81.77.09,1.3.32,1.15.88s-.91.9-1.62.9-1.34-.29-1.43-1l-1.07.49c.15,1.1,1,1.47,2.21,1.47a2.88,2.88,0,0,0,3-1.91c.39-1.43-.69-1.75-1.9-1.91-.7-.08-1.28-.23-1.14-.75s.62-.8,1.46-.8a1.27,1.27,0,0,1,1.24.67Z"/><polygon class="cls-5" points="99.39 28.22 96.56 31.02 96.46 40.75 107.72 38.03 107.8 31.02 105.03 28.22 99.39 28.22"/></g></g></svg>