<?xml version="1.0" standalone="no"?><!-- Generator: Gravit.io --><svg xmlns="http://www.w3.org/2000/svg" xmlns:xlink="http://www.w3.org/1999/xlink" style="isolation:isolate" viewBox="0 0 42.41 39.25" width="42.41" height="39.25"><defs><clipPath id="_clipPath_gC6wnLVmaPrR21vWEAm9j1jwCn7h3ZvF"><rect width="42.41" height="39.25"/></clipPath></defs><g clip-path="url(#_clipPath_gC6wnLVmaPrR21vWEAm9j1jwCn7h3ZvF)"><path d="M 0 0 L 26.591 0 C 35.322 0 42.41 7.088 42.41 15.819 L 42.41 23.431 C 42.41 32.162 35.322 39.25 26.591 39.25 L 15.819 39.25 C 7.088 39.25 0 32.162 0 23.431 L 0 0 Z" style="stroke:none;fill:#232C77;stroke-miterlimit:10;"/><g><g><path d=" M 26.089 22.78 C 26.005 22.565 25.749 22.454 25.516 22.531 C 25.284 22.609 25.163 22.846 25.247 23.061 C 25.249 23.066 25.251 23.071 25.254 23.076 C 25.662 24.06 25.691 24.813 25.334 25.144 C 24.901 25.543 23.822 25.418 22.448 24.81 C 20.608 23.927 18.935 22.774 17.495 21.395 C 13.991 18.156 12.544 14.977 13.439 14.15 C 13.724 13.942 14.095 13.862 14.451 13.932 C 14.697 13.949 14.912 13.778 14.93 13.55 C 14.947 13.33 14.775 13.136 14.538 13.109 C 13.916 13.007 13.277 13.175 12.806 13.564 C 11.167 15.079 13.673 19.03 16.863 21.978 C 18.374 23.423 20.13 24.631 22.062 25.554 C 22.411 25.709 22.772 25.842 23.141 25.953 L 19.962 27.067 C 15.717 25.576 12.661 22.098 11.953 17.952 C 11.915 17.726 11.686 17.572 11.442 17.608 C 11.197 17.643 11.031 17.855 11.069 18.08 C 11.139 18.494 11.233 18.907 11.348 19.312 C 12.378 22.919 15.092 25.917 18.753 27.49 L 13.521 29.32 C 13.497 29.283 13.467 29.25 13.431 29.221 C 12.102 28.235 11.267 26.788 11.123 25.217 L 10.915 22.894 C 10.899 22.669 10.688 22.499 10.444 22.514 C 10.44 22.514 10.435 22.514 10.43 22.515 C 10.184 22.533 10 22.732 10.02 22.96 C 10.02 22.961 10.02 22.962 10.02 22.963 L 10.231 25.285 C 10.389 26.964 11.236 28.523 12.599 29.641 L 8.866 30.947 L 9.537 28.402 C 9.596 28.18 9.449 27.956 9.208 27.902 C 8.968 27.848 8.726 27.984 8.668 28.206 L 7.795 31.514 C 7.736 31.736 7.883 31.959 8.123 32.014 C 8.211 32.034 8.303 32.028 8.388 31.999 L 24.943 26.21 C 24.969 26.198 24.994 26.183 25.017 26.167 C 25.375 26.116 25.707 25.963 25.967 25.729 C 26.41 25.319 26.792 24.474 26.089 22.78 Z " fill="rgb(255,255,255)"/></g></g><g><g><path d=" M 30.311 21.714 C 27.892 20.877 25.278 20.642 22.73 21.034 L 21.132 21.282 C 20.889 21.325 20.73 21.541 20.777 21.766 C 20.822 21.982 21.043 22.128 21.279 22.097 L 22.878 21.851 C 25.27 21.483 27.726 21.704 29.997 22.49 C 30.047 22.507 30.101 22.515 30.154 22.515 C 30.401 22.515 30.602 22.33 30.602 22.102 C 30.603 21.929 30.486 21.774 30.311 21.714 Z " fill="rgb(255,255,255)"/></g></g><g><g><path d=" M 31.902 15.307 C 31.795 15.101 31.528 15.014 31.305 15.112 L 21.909 19.247 C 21.686 19.345 21.592 19.592 21.698 19.798 C 21.698 19.798 21.698 19.798 21.698 19.798 C 21.804 20.004 22.071 20.092 22.294 19.994 C 22.294 19.994 22.294 19.994 22.294 19.994 L 31.69 15.859 C 31.913 15.76 32.008 15.514 31.902 15.307 Z " fill="rgb(255,255,255)"/></g></g><g><g><path d=" M 18.648 10.022 C 18.599 9.798 18.363 9.653 18.121 9.699 C 17.878 9.744 17.722 9.962 17.771 10.186 C 17.772 10.191 17.774 10.196 17.775 10.201 C 18.341 12.539 18.108 14.982 17.107 17.193 L 16.456 18.636 C 16.362 18.846 16.47 19.087 16.697 19.175 C 16.751 19.196 16.809 19.207 16.868 19.207 C 17.049 19.207 17.212 19.106 17.281 18.952 L 17.932 17.511 C 19.005 15.144 19.255 12.526 18.648 10.022 Z " fill="rgb(255,255,255)"/></g></g><g><g><path d=" M 32.391 22.101 C 31.65 22.101 31.049 22.657 31.049 23.342 C 31.049 24.027 31.65 24.582 32.391 24.582 C 33.133 24.582 33.734 24.027 33.734 23.342 C 33.734 22.657 33.133 22.101 32.391 22.101 Z  M 32.391 23.755 C 32.144 23.755 31.944 23.57 31.944 23.342 C 31.944 23.113 32.144 22.928 32.391 22.928 C 32.638 22.928 32.839 23.113 32.839 23.342 C 32.839 23.57 32.638 23.755 32.391 23.755 Z " fill="rgb(255,255,255)"/></g></g><g><g><path d=" M 21.653 10.523 C 20.912 10.523 20.311 11.078 20.311 11.764 C 20.311 12.449 20.912 13.004 21.653 13.004 C 22.394 13.004 22.995 12.449 22.995 11.764 C 22.995 11.078 22.394 10.523 21.653 10.523 Z  M 21.653 12.177 C 21.406 12.177 21.206 11.992 21.206 11.764 C 21.206 11.535 21.406 11.35 21.653 11.35 C 21.9 11.35 22.1 11.535 22.1 11.764 C 22.1 11.992 21.9 12.177 21.653 12.177 Z " fill="rgb(255,255,255)"/></g></g><g><g><ellipse vector-effect="non-scaling-stroke" cx="0" cy="0" rx="1" ry="1" transform="matrix(0.895,0,0,0.827,17.626,8.042)" fill="rgb(255,255,255)"/></g></g><g><g><path d=" M 30.154 9.283 C 29.907 9.283 29.707 9.468 29.707 9.696 L 29.707 10.11 C 29.707 10.338 29.907 10.523 30.154 10.523 C 30.401 10.523 30.602 10.338 30.602 10.11 L 30.602 9.696 C 30.602 9.468 30.401 9.283 30.154 9.283 Z " fill="rgb(255,255,255)"/></g></g><g><g><path d=" M 30.154 7.215 C 29.907 7.215 29.707 7.4 29.707 7.629 L 29.707 8.042 C 29.707 8.27 29.907 8.456 30.154 8.456 C 30.401 8.456 30.602 8.27 30.602 8.042 L 30.602 7.629 C 30.602 7.4 30.401 7.215 30.154 7.215 Z " fill="rgb(255,255,255)"/></g></g><g><g><path d=" M 31.496 8.456 L 31.049 8.456 C 30.802 8.456 30.602 8.641 30.602 8.869 C 30.602 9.097 30.802 9.283 31.049 9.283 L 31.496 9.283 C 31.743 9.283 31.944 9.097 31.944 8.869 C 31.944 8.641 31.743 8.456 31.496 8.456 Z " fill="rgb(255,255,255)"/></g></g><g><g><path d=" M 29.259 8.456 L 28.812 8.456 C 28.565 8.456 28.364 8.641 28.364 8.869 C 28.364 9.097 28.565 9.283 28.812 9.283 L 29.259 9.283 C 29.506 9.283 29.707 9.097 29.707 8.869 C 29.707 8.641 29.506 8.456 29.259 8.456 Z " fill="rgb(255,255,255)"/></g></g><g><g><path d=" M 27.022 11.755 L 24.776 11.755 C 24.529 11.755 24.328 11.94 24.328 12.168 L 24.328 14.245 C 24.328 14.473 24.529 14.658 24.776 14.658 L 27.022 14.658 C 27.269 14.658 27.47 14.473 27.47 14.245 L 27.47 12.168 C 27.47 11.94 27.269 11.755 27.022 11.755 Z  M 26.575 13.831 L 25.223 13.831 L 25.223 12.582 L 26.575 12.582 L 26.575 13.831 Z " fill="rgb(255,255,255)"/></g></g><g><g><path d=" M 23.763 15.208 C 23.598 15.046 23.325 15.033 23.143 15.178 L 18.669 18.899 C 18.486 19.052 18.471 19.314 18.636 19.483 C 18.801 19.653 19.084 19.667 19.268 19.514 L 23.742 15.792 C 23.922 15.636 23.932 15.375 23.763 15.208 Z " fill="rgb(255,255,255)"/></g></g><g><g><path d=" M 31.944 16.726 C 31.697 16.726 31.496 16.911 31.496 17.139 L 31.496 17.553 C 31.496 17.781 31.697 17.966 31.944 17.966 C 32.191 17.966 32.391 17.781 32.391 17.553 L 32.391 17.139 C 32.391 16.911 32.191 16.726 31.944 16.726 Z " fill="rgb(255,255,255)"/></g></g><g><g><path d=" M 33.842 16.655 L 33.526 16.362 C 33.348 16.203 33.065 16.208 32.893 16.372 C 32.726 16.533 32.726 16.787 32.893 16.947 L 33.21 17.239 C 33.387 17.398 33.671 17.393 33.842 17.229 C 34.01 17.069 34.01 16.815 33.842 16.655 Z " fill="rgb(255,255,255)"/></g></g><g><g><path d=" M 34.181 15.072 L 33.734 15.072 C 33.486 15.072 33.286 15.257 33.286 15.485 C 33.286 15.713 33.486 15.899 33.734 15.899 L 34.181 15.899 C 34.428 15.899 34.628 15.713 34.628 15.485 C 34.628 15.257 34.428 15.072 34.181 15.072 Z " fill="rgb(255,255,255)"/></g></g><g><g><path d=" M 33.831 13.731 C 33.658 13.576 33.383 13.576 33.21 13.731 L 32.893 14.023 C 32.719 14.185 32.719 14.447 32.893 14.608 C 32.977 14.686 33.091 14.729 33.21 14.729 L 33.21 14.729 C 33.328 14.729 33.442 14.686 33.526 14.608 L 33.842 14.316 C 34.014 14.151 34.009 13.89 33.831 13.731 Z " fill="rgb(255,255,255)"/></g></g><g><g><path d=" M 31.944 13.004 C 31.697 13.004 31.496 13.189 31.496 13.418 L 31.496 13.831 C 31.496 14.059 31.697 14.245 31.944 14.245 C 32.191 14.245 32.391 14.059 32.391 13.831 L 32.391 13.418 C 32.391 13.189 32.191 13.004 31.944 13.004 Z " fill="rgb(255,255,255)"/></g></g><g><g><path d=" M 30.994 14.023 L 30.678 13.731 C 30.5 13.572 30.217 13.577 30.045 13.741 C 29.878 13.901 29.878 14.155 30.045 14.316 L 30.362 14.608 C 30.539 14.767 30.823 14.762 30.994 14.598 C 31.162 14.438 31.162 14.184 30.994 14.023 Z " fill="rgb(255,255,255)"/></g></g><g><g><path d=" M 13.13 9.003 C 13.077 8.853 12.937 8.745 12.769 8.722 L 11.456 8.545 L 10.87 7.446 C 10.74 7.241 10.454 7.173 10.232 7.293 C 10.164 7.33 10.108 7.383 10.067 7.446 L 9.479 8.545 L 8.166 8.722 C 7.921 8.754 7.752 8.964 7.787 9.19 C 7.801 9.28 7.847 9.363 7.917 9.427 L 8.867 10.283 L 8.643 11.492 C 8.6 11.716 8.763 11.931 9.006 11.971 C 9.104 11.987 9.205 11.972 9.293 11.929 L 10.467 11.357 L 11.642 11.927 C 11.861 12.034 12.131 11.956 12.246 11.754 C 12.292 11.673 12.308 11.581 12.291 11.492 L 12.067 10.283 L 13.018 9.427 C 13.139 9.317 13.183 9.153 13.13 9.003 Z  M 11.273 9.842 C 11.167 9.937 11.119 10.074 11.144 10.208 L 11.255 10.806 L 10.676 10.523 C 10.545 10.46 10.39 10.46 10.259 10.523 L 9.678 10.805 L 9.789 10.208 C 9.814 10.074 9.767 9.938 9.662 9.842 L 9.192 9.419 L 9.841 9.332 C 9.987 9.313 10.113 9.228 10.178 9.106 L 10.467 8.563 L 10.757 9.106 C 10.823 9.228 10.948 9.313 11.094 9.332 L 11.743 9.419 L 11.273 9.842 Z " fill="rgb(255,255,255)"/></g></g><g><g><path d=" M 33.117 27.942 L 33.115 27.942 L 32.931 27.686 C 31.897 26.258 30.272 25.287 28.438 25.002 C 28.194 24.969 27.967 25.126 27.932 25.352 C 27.898 25.571 28.056 25.775 28.291 25.817 C 29.613 26.024 30.818 26.645 31.705 27.576 C 30.96 27.7 30.308 28.114 29.915 28.712 C 29.433 29.509 29.742 30.517 30.605 30.962 C 31.468 31.408 32.559 31.122 33.04 30.325 C 33.225 29.996 33.324 29.633 33.331 29.263 C 33.807 29.902 33.845 30.737 33.429 31.41 C 33.303 31.607 33.373 31.86 33.585 31.977 C 33.798 32.094 34.072 32.029 34.198 31.832 C 34.202 31.826 34.206 31.82 34.21 31.813 C 35.029 30.461 34.547 28.752 33.117 27.942 Z  M 32.26 29.921 C 32.021 30.321 31.477 30.466 31.044 30.245 C 30.612 30.025 30.454 29.522 30.693 29.122 C 30.695 29.12 30.696 29.117 30.697 29.115 C 30.961 28.715 31.407 28.448 31.909 28.386 C 31.987 28.384 32.064 28.401 32.133 28.434 C 32.51 28.629 32.53 29.474 32.26 29.921 Z " fill="rgb(255,255,255)"/></g></g></g></svg>