<?xml version="1.0" standalone="no"?><!-- Generator: Gravit.io --><svg xmlns="http://www.w3.org/2000/svg" xmlns:xlink="http://www.w3.org/1999/xlink" style="isolation:isolate" viewBox="1185 467 98 98" width="98" height="98"><g id="Group"><path d="M 1193.06 470 L 1274.94 470 C 1277.733 470 1280 472.267 1280 475.06 L 1280 556.94 C 1280 559.733 1277.733 562 1274.94 562 L 1193.06 562 C 1190.267 562 1188 559.733 1188 556.94 L 1188 475.06 C 1188 472.267 1190.267 470 1193.06 470 Z" style="stroke:none;fill:#FFFFFF;stroke-miterlimit:10;"/><path d="M 1193.06 470 L 1274.94 470 C 1277.733 470 1280 472.267 1280 475.06 L 1280 556.94 C 1280 559.733 1277.733 562 1274.94 562 L 1193.06 562 C 1190.267 562 1188 559.733 1188 556.94 L 1188 475.06 C 1188 472.267 1190.267 470 1193.06 470 Z" style="fill:none;stroke:#000000;stroke-width:2;stroke-linecap:square;stroke-miterlimit:3;"/><g transform="matrix(1,0,0,1,1193.5,501)"><text transform="matrix(1,0,0,1,0,23.375)" id="Text" style="font-family:&quot;Fira Sans&quot;;font-weight:700;font-size:25px;font-style:normal;fill:#101c48;stroke:none;">FIPLAN</text></g></g></svg>