<?xml version="1.0" standalone="no"?><!-- Generator: Gravit.io --><svg xmlns="http://www.w3.org/2000/svg" xmlns:xlink="http://www.w3.org/1999/xlink" style="isolation:isolate" viewBox="0 0 66 66" width="66" height="66"><defs><clipPath id="_clipPath_gQTPvLr8keZ1LAKyxORkMTM9XTHxa5Gz"><rect width="66" height="66"/></clipPath></defs><g clip-path="url(#_clipPath_gQTPvLr8keZ1LAKyxORkMTM9XTHxa5Gz)"><rect width="66" height="66" style="fill:rgb(0,0,0)" fill-opacity="0"/><rect x="0" y="0" width="66" height="66" transform="matrix(1,0,0,1,0,0)" fill="none" vector-effect="non-scaling-stroke" stroke-width="1" stroke="rgb(0,0,0)" stroke-linejoin="miter" stroke-linecap="square" stroke-miterlimit="2"/><g><g><g><path d=" M 33.352 9.307 C 44.136 9.387 50.891 8.878 51.804 17.952 L 64.954 17.952 C 64.954 3.895 48.805 2 33.009 2 C 17.213 2 1.065 3.895 1.065 17.952 L 14.113 17.952 C 15.122 8.705 22.657 9.227 33.352 9.307 Z " fill="rgb(54,72,140)"/><path d=" M 7.586 22.471 C 10.789 22.471 13.454 22.616 14.047 20.224 C 14.127 19.899 14.173 19.531 14.173 19.105 L 14.021 19.105 L 1 19.105 C 1 22.662 3.949 22.471 7.586 22.471 Z " fill="rgb(54,72,140)"/><path d=" M 51.888 19.105 L 51.765 19.105 C 51.765 19.534 51.814 19.903 51.904 20.224 C 52.529 22.43 55.191 22.293 58.383 22.293 C 62.037 22.293 65 22.475 65 19.105 L 51.888 19.105 Z " fill="rgb(54,72,140)"/><path d=" M 45.464 16.682 L 45.464 15.268 C 45.464 14.636 44.504 14.596 43.319 14.596 L 41.383 14.596 C 40.199 14.596 39.24 14.636 39.24 15.268 L 39.24 16.486 L 39.24 17.431 L 25.547 17.431 L 25.547 16.486 L 25.547 15.268 C 25.547 14.636 24.587 14.596 23.403 14.596 L 21.466 14.596 C 20.282 14.596 19.323 14.636 19.323 15.268 L 19.323 16.682 L 19.323 17.916 C 16.203 20.376 5.995 30.852 5.625 32.12 L 5.629 40.582 C 5.629 41.364 6.467 42 7.497 42 L 57.29 42 C 58.319 42 59.157 41.364 59.157 40.582 L 59.157 32.077 C 58.79 30.846 48.585 20.376 45.464 17.915 L 45.464 16.682 Z  M 24.872 33.259 C 23.87 33.259 23.057 32.643 23.057 31.881 C 23.057 31.119 23.87 30.503 24.872 30.503 C 25.874 30.503 26.687 31.119 26.687 31.881 C 26.687 32.643 25.874 33.259 24.872 33.259 Z  M 24.872 28.534 C 23.87 28.534 23.057 27.918 23.057 27.156 C 23.057 26.394 23.87 25.778 24.872 25.778 C 25.874 25.778 26.687 26.394 26.687 27.156 C 26.687 27.918 25.874 28.534 24.872 28.534 Z  M 24.872 23.81 C 23.87 23.81 23.057 23.194 23.057 22.432 C 23.057 21.671 23.87 21.054 24.872 21.054 C 25.874 21.054 26.687 21.671 26.687 22.432 C 26.687 23.194 25.874 23.81 24.872 23.81 Z  M 32.341 33.259 C 31.339 33.259 30.526 32.643 30.526 31.881 C 30.526 31.119 31.339 30.503 32.341 30.503 C 33.344 30.503 34.156 31.119 34.156 31.881 C 34.156 32.643 33.344 33.259 32.341 33.259 Z  M 32.341 28.534 C 31.339 28.534 30.526 27.918 30.526 27.156 C 30.526 26.394 31.339 25.778 32.341 25.778 C 33.344 25.778 34.156 26.394 34.156 27.156 C 34.156 27.918 33.344 28.534 32.341 28.534 Z  M 32.341 23.81 C 31.339 23.81 30.526 23.194 30.526 22.432 C 30.526 21.671 31.339 21.054 32.341 21.054 C 33.344 21.054 34.156 21.671 34.156 22.432 C 34.156 23.194 33.344 23.81 32.341 23.81 Z  M 39.81 33.259 C 38.806 33.259 37.995 32.643 37.995 31.881 C 37.995 31.119 38.806 30.503 39.81 30.503 C 40.813 30.503 41.625 31.119 41.625 31.881 C 41.625 32.643 40.813 33.259 39.81 33.259 Z  M 39.81 28.534 C 38.806 28.534 37.995 27.918 37.995 27.156 C 37.995 26.394 38.806 25.778 39.81 25.778 C 40.813 25.778 41.625 26.394 41.625 27.156 C 41.625 27.918 40.813 28.534 39.81 28.534 Z  M 39.81 23.81 C 38.806 23.81 37.995 23.194 37.995 22.432 C 37.995 21.671 38.806 21.054 39.81 21.054 C 40.813 21.054 41.625 21.671 41.625 22.432 C 41.625 23.194 40.813 23.81 39.81 23.81 Z " fill="rgb(54,72,140)"/></g></g></g><g transform="matrix(1,0,0,1,1.5,42)"><text transform="matrix(1,0,0,1,0.779,18.17)" style="font-family:'Open Sans';font-weight:400;font-size:17px;font-style:normal;fill:#36488c;stroke:none;">RAMAIS</text></g></g></svg>