<?xml version="1.0" standalone="no"?><!-- Generator: Gravit.io --><svg xmlns="http://www.w3.org/2000/svg" xmlns:xlink="http://www.w3.org/1999/xlink" style="isolation:isolate" viewBox="0 0 66 66" width="66" height="66"><defs><clipPath id="_clipPath_dtSjLreMe9QLT4UVqPP3eNdpiKhgqDLO"><rect width="66" height="66"/></clipPath></defs><g clip-path="url(#_clipPath_dtSjLreMe9QLT4UVqPP3eNdpiKhgqDLO)"><defs><filter id="XtRgDWTXsdIzrDeCUuqsCG9M9lwc0Wgw" x="-200%" y="-200%" width="400%" height="400%" filterUnits="objectBoundingBox" color-interpolation-filters="sRGB"><feGaussianBlur xmlns="http://www.w3.org/2000/svg" stdDeviation="10.304661750813668" result="_out_hWGAryFuQmQn1oCzgngYI3pEJ2i9Ogwg"/><feGaussianBlur xmlns="http://www.w3.org/2000/svg" stdDeviation="19.535921235917577" in="_out_hWGAryFuQmQn1oCzgngYI3pEJ2i9Ogwg"/></filter></defs><g filter="url(#XtRgDWTXsdIzrDeCUuqsCG9M9lwc0Wgw)"><path d="M 732.65 489 L 795.35 489 C 796.261 489 797 489.739 797 490.65 L 797 553.35 C 797 554.261 796.261 555 795.35 555 L 732.65 555 C 731.739 555 731 554.261 731 553.35 L 731 490.65 C 731 489.739 731.739 489 732.65 489 Z" style="stroke:none;fill:#101C48;stroke-miterlimit:10;"/></g><g transform="matrix(1,0,0,1,737.5,506.339)"><text transform="matrix(1,0,0,1,0,24.583)" style="font-family:'Open Sans';font-weight:400;font-size:23px;font-style:normal;fill:#ffffff;stroke:none;">SIAG</text></g><path d="M 804.65 489 L 867.35 489 C 868.261 489 869 489.739 869 490.65 L 869 553.35 C 869 554.261 868.261 555 867.35 555 L 804.65 555 C 803.739 555 803 554.261 803 553.35 L 803 490.65 C 803 489.739 803.739 489 804.65 489 Z" style="stroke:none;fill:#FFFFFF;stroke-miterlimit:10;"/><path d="M 804.65 489 L 867.35 489 C 868.261 489 869 489.739 869 490.65 L 869 553.35 C 869 554.261 868.261 555 867.35 555 L 804.65 555 C 803.739 555 803 554.261 803 553.35 L 803 490.65 C 803 489.739 803.739 489 804.65 489 Z" style="fill:none;stroke:#000000;stroke-width:1;stroke-linecap:square;stroke-miterlimit:2;"/><g transform="matrix(1,0,0,1,819,507.02)"><text transform="matrix(1,0,0,1,0,24.583)" style="font-family:'Open Sans';font-weight:400;font-size:23px;font-style:normal;fill:#000000;stroke:none;">PJE</text></g><defs><filter id="Y44NzIysRXahS8T3O7Lmfz1qOM7a53m2" x="-200%" y="-200%" width="400%" height="400%" filterUnits="objectBoundingBox" color-interpolation-filters="sRGB"><feGaussianBlur xmlns="http://www.w3.org/2000/svg" stdDeviation="10.304661750813668" result="_out_BFVGVIVnc376syvCg1B2mghafKEa7v7l"/><feGaussianBlur xmlns="http://www.w3.org/2000/svg" stdDeviation="19.535921235917577" in="_out_BFVGVIVnc376syvCg1B2mghafKEa7v7l"/></filter></defs><g filter="url(#Y44NzIysRXahS8T3O7Lmfz1qOM7a53m2)"><path d="M 876.65 489 L 939.35 489 C 940.261 489 941 489.739 941 490.65 L 941 553.35 C 941 554.261 940.261 555 939.35 555 L 876.65 555 C 875.739 555 875 554.261 875 553.35 L 875 490.65 C 875 489.739 875.739 489 876.65 489 Z" style="stroke:none;fill:#36488C;stroke-linecap:square;stroke-miterlimit:2;"/></g><g transform="matrix(1,0,0,1,879,509.063)"><text transform="matrix(1,0,0,1,0,20.308)" style="font-family:'Open Sans';font-weight:400;font-size:19px;font-style:normal;fill:#ffffff;stroke:none;">SEGES</text></g><path d="M 949.65 489 L 1012.35 489 C 1013.261 489 1014 489.739 1014 490.65 L 1014 553.35 C 1014 554.261 1013.261 555 1012.35 555 L 949.65 555 C 948.739 555 948 554.261 948 553.35 L 948 490.65 C 948 489.739 948.739 489 949.65 489 Z" style="stroke:none;fill:#00CCFF;stroke-linecap:square;stroke-miterlimit:2;"/><path d="M 949.65 489 L 1012.35 489 C 1013.261 489 1014 489.739 1014 490.65 L 1014 553.35 C 1014 554.261 1013.261 555 1012.35 555 L 949.65 555 C 948.739 555 948 554.261 948 553.35 L 948 490.65 C 948 489.739 948.739 489 949.65 489 Z" style="fill:none;stroke:#000000;stroke-width:1;stroke-linecap:square;stroke-miterlimit:2;"/><g transform="matrix(1,0,0,1,949,517)"><text transform="matrix(1,0,0,1,0,19.239)" style="font-family:'Open Sans';font-weight:400;font-size:18px;font-style:normal;fill:#ffffff;stroke:none;">PONTO</text></g><g transform="matrix(1,0,0,1,961,497.487)"><text transform="matrix(1,0,0,1,0,19.239)" style="font-family:'Open Sans';font-weight:400;font-size:18px;font-style:normal;fill:#ffffff;stroke:none;">WEB</text></g><path d="M 354.65 -102 L 417.35 -102 C 418.261 -102 419 -101.261 419 -100.35 L 419 -37.65 C 419 -36.739 418.261 -36 417.35 -36 L 354.65 -36 C 353.739 -36 353 -36.739 353 -37.65 L 353 -100.35 C 353 -101.261 353.739 -102 354.65 -102 Z" style="stroke:none;fill:#101C48;stroke-linecap:square;stroke-miterlimit:2;"/><g transform="matrix(1,0,0,1,359.5,-84.661)"><text transform="matrix(1,0,0,1,0,24.583)" style="font-family:'Open Sans';font-weight:400;font-size:23px;font-style:normal;fill:#ffffff;stroke:none;">SIAG</text></g><path d="M 151.65 230 L 214.35 230 C 215.261 230 216 230.739 216 231.65 L 216 294.35 C 216 295.261 215.261 296 214.35 296 L 151.65 296 C 150.739 296 150 295.261 150 294.35 L 150 231.65 C 150 230.739 150.739 230 151.65 230 Z" style="stroke:none;fill:#101C48;stroke-linecap:square;stroke-miterlimit:2;"/><g transform="matrix(1,0,0,1,150,250)"><text transform="matrix(1,0,0,1,1.279,18.17)" style="font-family:'Open Sans';font-weight:400;font-size:17px;font-style:normal;fill:#ffffff;stroke:none;">RAMAIS</text></g><path d="M 392.65 1 L 455.35 1 C 456.261 1 457 1.739 457 2.65 L 457 65.35 C 457 66.261 456.261 67 455.35 67 L 392.65 67 C 391.739 67 391 66.261 391 65.35 L 391 2.65 C 391 1.739 391.739 1 392.65 1 Z" style="stroke:none;fill:#FFFFFF;stroke-linecap:square;stroke-miterlimit:2;"/><path d="M 392.65 1 L 455.35 1 C 456.261 1 457 1.739 457 2.65 L 457 65.35 C 457 66.261 456.261 67 455.35 67 L 392.65 67 C 391.739 67 391 66.261 391 65.35 L 391 2.65 C 391 1.739 391.739 1 392.65 1 Z" style="fill:none;stroke:#000000;stroke-width:1;stroke-linecap:square;stroke-miterlimit:2;"/><g transform="matrix(1,0,0,1,407,19.02)"><text transform="matrix(1,0,0,1,0,24.583)" style="font-family:'Open Sans';font-weight:400;font-size:23px;font-style:normal;fill:#000000;stroke:none;">PJE</text></g><path d="M 233.65 0 L 296.35 0 C 297.261 0 298 0.739 298 1.65 L 298 64.35 C 298 65.261 297.261 66 296.35 66 L 233.65 66 C 232.739 66 232 65.261 232 64.35 L 232 1.65 C 232 0.739 232.739 0 233.65 0 Z" style="stroke:none;fill:#36488C;stroke-linecap:square;stroke-miterlimit:2;"/><g transform="matrix(1,0,0,1,236,20.063)"><text transform="matrix(1,0,0,1,0,20.308)" style="font-family:'Open Sans';font-weight:400;font-size:19px;font-style:normal;fill:#ffffff;stroke:none;">SEGES</text></g><path d="M 311.65 145 L 374.35 145 C 375.261 145 376 145.739 376 146.65 L 376 209.35 C 376 210.261 375.261 211 374.35 211 L 311.65 211 C 310.739 211 310 210.261 310 209.35 L 310 146.65 C 310 145.739 310.739 145 311.65 145 Z" style="stroke:none;fill:#00CCFF;stroke-linecap:square;stroke-miterlimit:2;"/><path d="M 311.65 145 L 374.35 145 C 375.261 145 376 145.739 376 146.65 L 376 209.35 C 376 210.261 375.261 211 374.35 211 L 311.65 211 C 310.739 211 310 210.261 310 209.35 L 310 146.65 C 310 145.739 310.739 145 311.65 145 Z" style="fill:none;stroke:#000000;stroke-width:1;stroke-linecap:square;stroke-miterlimit:2;"/><g transform="matrix(1,0,0,1,311,174)"><text transform="matrix(1,0,0,1,0,19.239)" style="font-family:'Open Sans';font-weight:400;font-size:18px;font-style:normal;fill:#ffffff;stroke:none;">PONTO</text></g><g transform="matrix(1,0,0,1,323,154.487)"><text transform="matrix(1,0,0,1,0,19.239)" style="font-family:'Open Sans';font-weight:400;font-size:18px;font-style:normal;fill:#ffffff;stroke:none;">WEB</text></g><defs><filter id="UAiN4FvFxthI0pzjNZNk0a6E1nqxpPsA" x="-200%" y="-200%" width="400%" height="400%" filterUnits="objectBoundingBox" color-interpolation-filters="sRGB"><feGaussianBlur xmlns="http://www.w3.org/2000/svg" stdDeviation="10.304661750813668" result="_out_IHXDGKkGQTOopriEwKa6pv57R9oNtbyX"/><feGaussianBlur xmlns="http://www.w3.org/2000/svg" stdDeviation="19.535921235917577" in="_out_IHXDGKkGQTOopriEwKa6pv57R9oNtbyX"/></filter></defs><g filter="url(#UAiN4FvFxthI0pzjNZNk0a6E1nqxpPsA)"><path d="M 732.65 644 L 795.35 644 C 796.261 644 797 644.739 797 645.65 L 797 708.35 C 797 709.261 796.261 710 795.35 710 L 732.65 710 C 731.739 710 731 709.261 731 708.35 L 731 645.65 C 731 644.739 731.739 644 732.65 644 Z" style="stroke:none;fill:#101C48;stroke-linecap:square;stroke-miterlimit:2;"/></g><g transform="matrix(1,0,0,1,731,645)"><text transform="matrix(1,0,0,1,0,16.033)" style="font-family:'Open Sans';font-weight:400;font-size:15px;font-style:normal;fill:#ffffff;stroke:none;">PRO</text></g><g transform="matrix(1,0,0,1,751,661)"><text transform="matrix(1,0,0,1,0,16.033)" style="font-family:'Open Sans';font-weight:400;font-size:15px;font-style:normal;fill:#ffffff;stroke:none;">TO</text></g><g transform="matrix(1,0,0,1,761,675)"><text transform="matrix(1,0,0,1,0,16.033)" style="font-family:'Open Sans';font-weight:400;font-size:15px;font-style:normal;fill:#ffffff;stroke:none;">CO</text></g><g transform="matrix(1,0,0,1,773,691)"><text transform="matrix(1,0,0,1,0,16.033)" style="font-family:'Open Sans';font-weight:400;font-size:15px;font-style:normal;fill:#ffffff;stroke:none;">LO</text></g><path d="M 804.65 644 L 867.35 644 C 868.261 644 869 644.739 869 645.65 L 869 708.35 C 869 709.261 868.261 710 867.35 710 L 804.65 710 C 803.739 710 803 709.261 803 708.35 L 803 645.65 C 803 644.739 803.739 644 804.65 644 Z" style="stroke:none;fill:#FFFFFF;stroke-linecap:square;stroke-miterlimit:2;"/><path d="M 804.65 644 L 867.35 644 C 868.261 644 869 644.739 869 645.65 L 869 708.35 C 869 709.261 868.261 710 867.35 710 L 804.65 710 C 803.739 710 803 709.261 803 708.35 L 803 645.65 C 803 644.739 803.739 644 804.65 644 Z" style="fill:none;stroke:#000000;stroke-width:1;stroke-linecap:square;stroke-miterlimit:2;"/><g transform="matrix(1,0,0,1,803,662.02)"><text transform="matrix(1,0,0,1,3.261,24.583)" style="font-family:'Open Sans';font-weight:400;font-size:23px;font-style:normal;fill:#000000;stroke:none;">OTRS</text></g><defs><filter id="vZMfetPXu2rJusks8kKlEl5OCg5RDxc8" x="-200%" y="-200%" width="400%" height="400%" filterUnits="objectBoundingBox" color-interpolation-filters="sRGB"><feGaussianBlur xmlns="http://www.w3.org/2000/svg" stdDeviation="10.304661750813668" result="_out_jUxHoSapfvA4nK3WkxHNCKaJioNTiWo7"/><feGaussianBlur xmlns="http://www.w3.org/2000/svg" stdDeviation="19.535921235917577" in="_out_jUxHoSapfvA4nK3WkxHNCKaJioNTiWo7"/></filter></defs><g filter="url(#vZMfetPXu2rJusks8kKlEl5OCg5RDxc8)"><path d="M 876.65 644 L 939.35 644 C 940.261 644 941 644.739 941 645.65 L 941 708.35 C 941 709.261 940.261 710 939.35 710 L 876.65 710 C 875.739 710 875 709.261 875 708.35 L 875 645.65 C 875 644.739 875.739 644 876.65 644 Z" style="stroke:none;fill:#36488C;stroke-linecap:square;stroke-miterlimit:2;"/></g><g transform="matrix(1,0,0,1,879,664.063)"><text transform="matrix(1,0,0,1,5.771,20.308)" style="font-family:'Open Sans';font-weight:400;font-size:19px;font-style:normal;fill:#ffffff;stroke:none;">SEAP</text></g><path d="M 949.65 644 L 1012.35 644 C 1013.261 644 1014 644.739 1014 645.65 L 1014 708.35 C 1014 709.261 1013.261 710 1012.35 710 L 949.65 710 C 948.739 710 948 709.261 948 708.35 L 948 645.65 C 948 644.739 948.739 644 949.65 644 Z" style="stroke:none;fill:#00CCFF;stroke-linecap:square;stroke-miterlimit:2;"/><path d="M 949.65 644 L 1012.35 644 C 1013.261 644 1014 644.739 1014 645.65 L 1014 708.35 C 1014 709.261 1013.261 710 1012.35 710 L 949.65 710 C 948.739 710 948 709.261 948 708.35 L 948 645.65 C 948 644.739 948.739 644 949.65 644 Z" style="fill:none;stroke:#000000;stroke-width:1;stroke-linecap:square;stroke-miterlimit:2;"/><g transform="matrix(1,0,0,1,949,665)"><text transform="matrix(1,0,0,1,13.813,19.239)" style="font-family:'Open Sans';font-weight:400;font-size:18px;font-style:normal;fill:#ffffff;stroke:none;">SAG</text></g><path d="M 151.65 149 L 214.35 149 C 215.261 149 216 149.739 216 150.65 L 216 213.35 C 216 214.261 215.261 215 214.35 215 L 151.65 215 C 150.739 215 150 214.261 150 213.35 L 150 150.65 C 150 149.739 150.739 149 151.65 149 Z" style="stroke:none;fill:#101C48;stroke-linecap:square;stroke-miterlimit:2;"/><g transform="matrix(1,0,0,1,150,150)"><text transform="matrix(1,0,0,1,0,16.033)" style="font-family:'Open Sans';font-weight:400;font-size:15px;font-style:normal;fill:#ffffff;stroke:none;">PRO</text></g><g transform="matrix(1,0,0,1,170,166)"><text transform="matrix(1,0,0,1,0,16.033)" style="font-family:'Open Sans';font-weight:400;font-size:15px;font-style:normal;fill:#ffffff;stroke:none;">TO</text></g><g transform="matrix(1,0,0,1,180,180)"><text transform="matrix(1,0,0,1,0,16.033)" style="font-family:'Open Sans';font-weight:400;font-size:15px;font-style:normal;fill:#ffffff;stroke:none;">CO</text></g><g transform="matrix(1,0,0,1,192,196)"><text transform="matrix(1,0,0,1,0,16.033)" style="font-family:'Open Sans';font-weight:400;font-size:15px;font-style:normal;fill:#ffffff;stroke:none;">LO</text></g><path d="M 391.65 145 L 454.35 145 C 455.261 145 456 145.739 456 146.65 L 456 209.35 C 456 210.261 455.261 211 454.35 211 L 391.65 211 C 390.739 211 390 210.261 390 209.35 L 390 146.65 C 390 145.739 390.739 145 391.65 145 Z" style="stroke:none;fill:#FFFFFF;stroke-linecap:square;stroke-miterlimit:2;"/><path d="M 391.65 145 L 454.35 145 C 455.261 145 456 145.739 456 146.65 L 456 209.35 C 456 210.261 455.261 211 454.35 211 L 391.65 211 C 390.739 211 390 210.261 390 209.35 L 390 146.65 C 390 145.739 390.739 145 391.65 145 Z" style="fill:none;stroke:#000000;stroke-width:1;stroke-linecap:square;stroke-miterlimit:2;"/><g transform="matrix(1,0,0,1,390,166.02)"><text transform="matrix(1,0,0,1,3.261,24.583)" style="font-family:'Open Sans';font-weight:400;font-size:23px;font-style:normal;fill:#000000;stroke:none;">OTRS</text></g><path d="M 235.65 73 L 298.35 73 C 299.261 73 300 73.739 300 74.65 L 300 137.35 C 300 138.261 299.261 139 298.35 139 L 235.65 139 C 234.739 139 234 138.261 234 137.35 L 234 74.65 C 234 73.739 234.739 73 235.65 73 Z" style="stroke:none;fill:#36488C;stroke-linecap:square;stroke-miterlimit:2;"/><g transform="matrix(1,0,0,1,238,95.063)"><text transform="matrix(1,0,0,1,5.771,20.308)" style="font-family:'Open Sans';font-weight:400;font-size:19px;font-style:normal;fill:#ffffff;stroke:none;">SEAP</text></g><path d="M 312.65 73 L 375.35 73 C 376.261 73 377 73.739 377 74.65 L 377 137.35 C 377 138.261 376.261 139 375.35 139 L 312.65 139 C 311.739 139 311 138.261 311 137.35 L 311 74.65 C 311 73.739 311.739 73 312.65 73 Z" style="stroke:none;fill:#00CCFF;stroke-linecap:square;stroke-miterlimit:2;"/><path d="M 312.65 73 L 375.35 73 C 376.261 73 377 73.739 377 74.65 L 377 137.35 C 377 138.261 376.261 139 375.35 139 L 312.65 139 C 311.739 139 311 138.261 311 137.35 L 311 74.65 C 311 73.739 311.739 73 312.65 73 Z" style="fill:none;stroke:#000000;stroke-width:1;stroke-linecap:square;stroke-miterlimit:2;"/><g transform="matrix(1,0,0,1,312,96)"><text transform="matrix(1,0,0,1,13.813,19.239)" style="font-family:'Open Sans';font-weight:400;font-size:18px;font-style:normal;fill:#ffffff;stroke:none;">SAG</text></g><path d="M 732.65 567 L 795.35 567 C 796.261 567 797 567.739 797 568.65 L 797 631.35 C 797 632.261 796.261 633 795.35 633 L 732.65 633 C 731.739 633 731 632.261 731 631.35 L 731 568.65 C 731 567.739 731.739 567 732.65 567 Z" style="stroke:none;fill:#00CCFF;stroke-linecap:square;stroke-miterlimit:2;"/><path d="M 732.65 567 L 795.35 567 C 796.261 567 797 567.739 797 568.65 L 797 631.35 C 797 632.261 796.261 633 795.35 633 L 732.65 633 C 731.739 633 731 632.261 731 631.35 L 731 568.65 C 731 567.739 731.739 567 732.65 567 Z" style="fill:none;stroke:#000000;stroke-width:1;stroke-linecap:square;stroke-miterlimit:2;"/><g transform="matrix(1,0,0,1,731,587)"><text transform="matrix(1,0,0,1,2.916,20.308)" style="font-family:'Open Sans';font-weight:400;font-size:19px;font-style:normal;fill:#ffffff;stroke:none;">GMAIL</text></g><defs><filter id="eRDynB5RiT4USbFKqCTVTQrMmlPkRHtf" x="-200%" y="-200%" width="400%" height="400%" filterUnits="objectBoundingBox" color-interpolation-filters="sRGB"><feGaussianBlur xmlns="http://www.w3.org/2000/svg" stdDeviation="10.304661750813668" result="_out_N3ZxkPSLJiAJMfJGZrLxyfarRcm3OWkO"/><feGaussianBlur xmlns="http://www.w3.org/2000/svg" stdDeviation="19.535921235917577" in="_out_N3ZxkPSLJiAJMfJGZrLxyfarRcm3OWkO"/></filter></defs><g filter="url(#eRDynB5RiT4USbFKqCTVTQrMmlPkRHtf)"><path d="M 951.65 567 L 1014.35 567 C 1015.261 567 1016 567.739 1016 568.65 L 1016 631.35 C 1016 632.261 1015.261 633 1014.35 633 L 951.65 633 C 950.739 633 950 632.261 950 631.35 L 950 568.65 C 950 567.739 950.739 567 951.65 567 Z" style="stroke:none;fill:#101C48;stroke-linecap:square;stroke-miterlimit:2;"/></g><g transform="matrix(1,0,0,1,950,585.402)"><text transform="matrix(1,0,0,1,0,22.446)" style="font-family:'Open Sans';font-weight:400;font-size:21px;font-style:normal;fill:#ffffff;stroke:none;">SIAG-C</text></g><path d="M 878.65 566 L 941.35 566 C 942.261 566 943 566.739 943 567.65 L 943 630.35 C 943 631.261 942.261 632 941.35 632 L 878.65 632 C 877.739 632 877 631.261 877 630.35 L 877 567.65 C 877 566.739 877.739 566 878.65 566 Z" style="stroke:none;fill:#FFFFFF;stroke-linecap:square;stroke-miterlimit:2;"/><path d="M 878.65 566 L 941.35 566 C 942.261 566 943 566.739 943 567.65 L 943 630.35 C 943 631.261 942.261 632 941.35 632 L 878.65 632 C 877.739 632 877 631.261 877 630.35 L 877 567.65 C 877 566.739 877.739 566 878.65 566 Z" style="fill:none;stroke:#000000;stroke-width:1;stroke-linecap:square;stroke-miterlimit:2;"/><g transform="matrix(1,0,0,1,877,586)"><text transform="matrix(1,0,0,1,0,21.377)" style="font-family:'Open Sans';font-weight:400;font-size:20px;font-style:normal;fill:#000000;stroke:none;">FIPLAN</text></g><defs><filter id="HFno2Ut3yzVD4w9jLd39kV0WE4QB6Ok2" x="-200%" y="-200%" width="400%" height="400%" filterUnits="objectBoundingBox" color-interpolation-filters="sRGB"><feGaussianBlur xmlns="http://www.w3.org/2000/svg" stdDeviation="10.304661750813668" result="_out_fNjLkoHdhTLC0E6ReiXvGYQjcO8r8DqE"/><feGaussianBlur xmlns="http://www.w3.org/2000/svg" stdDeviation="19.535921235917577" in="_out_fNjLkoHdhTLC0E6ReiXvGYQjcO8r8DqE"/></filter></defs><g filter="url(#HFno2Ut3yzVD4w9jLd39kV0WE4QB6Ok2)"><path d="M 805.65 566 L 868.35 566 C 869.261 566 870 566.739 870 567.65 L 870 630.35 C 870 631.261 869.261 632 868.35 632 L 805.65 632 C 804.739 632 804 631.261 804 630.35 L 804 567.65 C 804 566.739 804.739 566 805.65 566 Z" style="stroke:none;fill:#36488C;stroke-linecap:square;stroke-miterlimit:2;"/></g><g transform="matrix(1,0,0,1,804,587)"><text transform="matrix(1,0,0,1,0,20.308)" style="font-family:'Open Sans';font-weight:400;font-size:19px;font-style:normal;fill:#ffffff;stroke:none;">SIGPAT</text></g><path d="M 312.65 1 L 375.35 1 C 376.261 1 377 1.739 377 2.65 L 377 65.35 C 377 66.261 376.261 67 375.35 67 L 312.65 67 C 311.739 67 311 66.261 311 65.35 L 311 2.65 C 311 1.739 311.739 1 312.65 1 Z" style="stroke:none;fill:#00CCFF;stroke-linecap:square;stroke-miterlimit:2;"/><path d="M 312.65 1 L 375.35 1 C 376.261 1 377 1.739 377 2.65 L 377 65.35 C 377 66.261 376.261 67 375.35 67 L 312.65 67 C 311.739 67 311 66.261 311 65.35 L 311 2.65 C 311 1.739 311.739 1 312.65 1 Z" style="fill:none;stroke:#000000;stroke-width:1;stroke-linecap:square;stroke-miterlimit:2;"/><g transform="matrix(1,0,0,1,311,21)"><text transform="matrix(1,0,0,1,2.916,20.308)" style="font-family:'Open Sans';font-weight:400;font-size:19px;font-style:normal;fill:#ffffff;stroke:none;">GMAIL</text></g><path d="M 1.65 0 L 64.35 0 C 65.261 0 66 0.739 66 1.65 L 66 64.35 C 66 65.261 65.261 66 64.35 66 L 1.65 66 C 0.739 66 0 65.261 0 64.35 L 0 1.65 C 0 0.739 0.739 0 1.65 0 Z" style="stroke:none;fill:#101C48;stroke-linecap:square;stroke-miterlimit:2;"/><g transform="matrix(1,0,0,1,0,18.402)"><text transform="matrix(1,0,0,1,0,22.446)" style="font-family:'Open Sans';font-weight:400;font-size:21px;font-style:normal;fill:#ffffff;stroke:none;">SIAG-C</text></g><path d="M 391.65 73 L 454.35 73 C 455.261 73 456 73.739 456 74.65 L 456 137.35 C 456 138.261 455.261 139 454.35 139 L 391.65 139 C 390.739 139 390 138.261 390 137.35 L 390 74.65 C 390 73.739 390.739 73 391.65 73 Z" style="stroke:none;fill:#FFFFFF;stroke-linecap:square;stroke-miterlimit:2;"/><path d="M 391.65 73 L 454.35 73 C 455.261 73 456 73.739 456 74.65 L 456 137.35 C 456 138.261 455.261 139 454.35 139 L 391.65 139 C 390.739 139 390 138.261 390 137.35 L 390 74.65 C 390 73.739 390.739 73 391.65 73 Z" style="fill:none;stroke:#000000;stroke-width:1;stroke-linecap:square;stroke-miterlimit:2;"/><g transform="matrix(1,0,0,1,390,96)"><text transform="matrix(1,0,0,1,0,21.377)" style="font-family:'Open Sans';font-weight:400;font-size:20px;font-style:normal;fill:#000000;stroke:none;">FIPLAN</text></g><path d="M 236.65 148 L 299.35 148 C 300.261 148 301 148.739 301 149.65 L 301 212.35 C 301 213.261 300.261 214 299.35 214 L 236.65 214 C 235.739 214 235 213.261 235 212.35 L 235 149.65 C 235 148.739 235.739 148 236.65 148 Z" style="stroke:none;fill:#36488C;stroke-linecap:square;stroke-miterlimit:2;"/><g transform="matrix(1,0,0,1,235,169)"><text transform="matrix(1,0,0,1,0,20.308)" style="font-family:'Open Sans';font-weight:400;font-size:19px;font-style:normal;fill:#ffffff;stroke:none;">SIGPAT</text></g><defs><filter id="Hlo1UQSEM7zMB5oFs00N0lumlG0ZKL5Y" x="-200%" y="-200%" width="400%" height="400%" filterUnits="objectBoundingBox" color-interpolation-filters="sRGB"><feGaussianBlur xmlns="http://www.w3.org/2000/svg" stdDeviation="10.304661750813668" result="_out_kKX6B9WKUT2QCOzLwVp1SL46kilVU3Ni"/><feGaussianBlur xmlns="http://www.w3.org/2000/svg" stdDeviation="19.535921235917577" in="_out_kKX6B9WKUT2QCOzLwVp1SL46kilVU3Ni"/></filter></defs><g filter="url(#Hlo1UQSEM7zMB5oFs00N0lumlG0ZKL5Y)"><path d="M 1057.65 0 L 1120.35 0 C 1121.261 0 1122 0.739 1122 1.65 L 1122 64.35 C 1122 65.261 1121.261 66 1120.35 66 L 1057.65 66 C 1056.739 66 1056 65.261 1056 64.35 L 1056 1.65 C 1056 0.739 1056.739 0 1057.65 0 Z" style="stroke:none;fill:#101C48;stroke-linecap:square;stroke-miterlimit:2;"/></g><g transform="matrix(1,0,0,1,1063,17.339)"><text transform="matrix(1,0,0,1,0,24.583)" style="font-family:'Open Sans';font-weight:400;font-size:23px;font-style:normal;fill:#ffffff;stroke:none;">SIAG</text></g><defs><filter id="HvdQOnExb0XkOqgXBQZjwRfpPF8KM4Nf" x="-200%" y="-200%" width="400%" height="400%" filterUnits="objectBoundingBox" color-interpolation-filters="sRGB"><feGaussianBlur xmlns="http://www.w3.org/2000/svg" stdDeviation="10.304661750813668" result="_out_LQM9VfR7YvDwHd4tMqtdWBgIwfGKRywX"/><feGaussianBlur xmlns="http://www.w3.org/2000/svg" stdDeviation="19.535921235917577" in="_out_LQM9VfR7YvDwHd4tMqtdWBgIwfGKRywX"/></filter></defs><g filter="url(#HvdQOnExb0XkOqgXBQZjwRfpPF8KM4Nf)"><path d="M 1057.65 244 L 1120.35 244 C 1121.261 244 1122 244.739 1122 245.65 L 1122 308.35 C 1122 309.261 1121.261 310 1120.35 310 L 1057.65 310 C 1056.739 310 1056 309.261 1056 308.35 L 1056 245.65 C 1056 244.739 1056.739 244 1057.65 244 Z" style="stroke:none;fill:#101C48;stroke-linecap:square;stroke-miterlimit:2;"/></g><g transform="matrix(1,0,0,1,1057,264)"><text transform="matrix(1,0,0,1,0,20.308)" style="font-family:'Open Sans';font-weight:400;font-size:19px;font-style:normal;fill:#ffffff;stroke:none;">RAMAL</text></g><path d="M 1057.65 161 L 1120.35 161 C 1121.261 161 1122 161.739 1122 162.65 L 1122 225.35 C 1122 226.261 1121.261 227 1120.35 227 L 1057.65 227 C 1056.739 227 1056 226.261 1056 225.35 L 1056 162.65 C 1056 161.739 1056.739 161 1057.65 161 Z" style="stroke:none;fill:#FFFFFF;stroke-linecap:square;stroke-miterlimit:2;"/><path d="M 1057.65 161 L 1120.35 161 C 1121.261 161 1122 161.739 1122 162.65 L 1122 225.35 C 1122 226.261 1121.261 227 1120.35 227 L 1057.65 227 C 1056.739 227 1056 226.261 1056 225.35 L 1056 162.65 C 1056 161.739 1056.739 161 1057.65 161 Z" style="fill:none;stroke:#000000;stroke-width:1;stroke-linecap:square;stroke-miterlimit:2;"/><g transform="matrix(1,0,0,1,1072.5,179.02)"><text transform="matrix(1,0,0,1,0,24.583)" style="font-family:'Open Sans';font-weight:400;font-size:23px;font-style:normal;fill:#000000;stroke:none;">PJE</text></g><defs><filter id="JBPorUD3DIVEtmGH4scCN3MapYPCV5sJ" x="-200%" y="-200%" width="400%" height="400%" filterUnits="objectBoundingBox" color-interpolation-filters="sRGB"><feGaussianBlur xmlns="http://www.w3.org/2000/svg" stdDeviation="10.304661750813668" result="_out_9Ap9sfGSh4oubW3zVmorYZAyndO6Hvqj"/><feGaussianBlur xmlns="http://www.w3.org/2000/svg" stdDeviation="19.535921235917577" in="_out_9Ap9sfGSh4oubW3zVmorYZAyndO6Hvqj"/></filter></defs><g filter="url(#JBPorUD3DIVEtmGH4scCN3MapYPCV5sJ)"><path d="M 1213.65 161 L 1276.35 161 C 1277.261 161 1278 161.739 1278 162.65 L 1278 225.35 C 1278 226.261 1277.261 227 1276.35 227 L 1213.65 227 C 1212.739 227 1212 226.261 1212 225.35 L 1212 162.65 C 1212 161.739 1212.739 161 1213.65 161 Z" style="stroke:none;fill:#36488C;stroke-linecap:square;stroke-miterlimit:2;"/></g><g transform="matrix(1,0,0,1,1217,181)"><text transform="matrix(1,0,0,1,0,20.308)" style="font-family:'Open Sans';font-weight:400;font-size:19px;font-style:normal;fill:#ffffff;stroke:none;">SEGES</text></g><path d="M 1131.65 80 L 1194.35 80 C 1195.261 80 1196 80.739 1196 81.65 L 1196 144.35 C 1196 145.261 1195.261 146 1194.35 146 L 1131.65 146 C 1130.739 146 1130 145.261 1130 144.35 L 1130 81.65 C 1130 80.739 1130.739 80 1131.65 80 Z" style="stroke:none;fill:#00CCFF;stroke-linecap:square;stroke-miterlimit:2;"/><path d="M 1131.65 80 L 1194.35 80 C 1195.261 80 1196 80.739 1196 81.65 L 1196 144.35 C 1196 145.261 1195.261 146 1194.35 146 L 1131.65 146 C 1130.739 146 1130 145.261 1130 144.35 L 1130 81.65 C 1130 80.739 1130.739 80 1131.65 80 Z" style="fill:none;stroke:#000000;stroke-width:1;stroke-linecap:square;stroke-miterlimit:2;"/><g transform="matrix(1,0,0,1,1131,105.595)"><text transform="matrix(1,0,0,1,0,19.239)" style="font-family:'Open Sans';font-weight:400;font-size:18px;font-style:normal;fill:#ffffff;stroke:none;">PONTO</text></g><g transform="matrix(1,0,0,1,1143.5,88.595)"><text transform="matrix(1,0,0,1,0,19.239)" style="font-family:'Open Sans';font-weight:400;font-size:18px;font-style:normal;fill:#ffffff;stroke:none;">WEB</text></g><defs><filter id="jobpqaBYLNV51A7mQzbjVK3ZapqwCjUd" x="-200%" y="-200%" width="400%" height="400%" filterUnits="objectBoundingBox" color-interpolation-filters="sRGB"><feGaussianBlur xmlns="http://www.w3.org/2000/svg" stdDeviation="10.304661750813668" result="_out_zJFDkg7zbD5ZhoW39nXNS4OdRMTsmLOa"/><feGaussianBlur xmlns="http://www.w3.org/2000/svg" stdDeviation="19.535921235917577" in="_out_zJFDkg7zbD5ZhoW39nXNS4OdRMTsmLOa"/></filter></defs><g filter="url(#jobpqaBYLNV51A7mQzbjVK3ZapqwCjUd)"><path d="M 1212.65 0 L 1275.35 0 C 1276.261 0 1277 0.739 1277 1.65 L 1277 64.35 C 1277 65.261 1276.261 66 1275.35 66 L 1212.65 66 C 1211.739 66 1211 65.261 1211 64.35 L 1211 1.65 C 1211 0.739 1211.739 0 1212.65 0 Z" style="stroke:none;fill:#101C48;stroke-linecap:square;stroke-miterlimit:2;"/></g><g transform="matrix(1,0,0,1,1211,1)"><text transform="matrix(1,0,0,1,0,16.033)" style="font-family:'Open Sans';font-weight:400;font-size:15px;font-style:normal;fill:#ffffff;stroke:none;">PRO</text></g><g transform="matrix(1,0,0,1,1231,17)"><text transform="matrix(1,0,0,1,0,16.033)" style="font-family:'Open Sans';font-weight:400;font-size:15px;font-style:normal;fill:#ffffff;stroke:none;">TO</text></g><g transform="matrix(1,0,0,1,1241,31)"><text transform="matrix(1,0,0,1,0,16.033)" style="font-family:'Open Sans';font-weight:400;font-size:15px;font-style:normal;fill:#ffffff;stroke:none;">CO</text></g><g transform="matrix(1,0,0,1,1253,47)"><text transform="matrix(1,0,0,1,0,16.033)" style="font-family:'Open Sans';font-weight:400;font-size:15px;font-style:normal;fill:#ffffff;stroke:none;">LO</text></g><path d="M 1294.65 80 L 1357.35 80 C 1358.261 80 1359 80.739 1359 81.65 L 1359 144.35 C 1359 145.261 1358.261 146 1357.35 146 L 1294.65 146 C 1293.739 146 1293 145.261 1293 144.35 L 1293 81.65 C 1293 80.739 1293.739 80 1294.65 80 Z" style="stroke:none;fill:#FFFFFF;stroke-linecap:square;stroke-miterlimit:2;"/><path d="M 1294.65 80 L 1357.35 80 C 1358.261 80 1359 80.739 1359 81.65 L 1359 144.35 C 1359 145.261 1358.261 146 1357.35 146 L 1294.65 146 C 1293.739 146 1293 145.261 1293 144.35 L 1293 81.65 C 1293 80.739 1293.739 80 1294.65 80 Z" style="fill:none;stroke:#000000;stroke-width:1;stroke-linecap:square;stroke-miterlimit:2;"/><g transform="matrix(1,0,0,1,1293,102.191)"><text transform="matrix(1,0,0,1,3.261,24.583)" style="font-family:'Open Sans';font-weight:400;font-size:23px;font-style:normal;fill:#000000;stroke:none;">OTRS</text></g><defs><filter id="8W6IEQnEmIQjs9rQoYBKMWODe2GcY2w3" x="-200%" y="-200%" width="400%" height="400%" filterUnits="objectBoundingBox" color-interpolation-filters="sRGB"><feGaussianBlur xmlns="http://www.w3.org/2000/svg" stdDeviation="10.304661750813668" result="_out_DRM9PVVbWJqwYxCygu74krA9agrHdqaX"/><feGaussianBlur xmlns="http://www.w3.org/2000/svg" stdDeviation="19.535921235917577" in="_out_DRM9PVVbWJqwYxCygu74krA9agrHdqaX"/></filter></defs><g filter="url(#8W6IEQnEmIQjs9rQoYBKMWODe2GcY2w3)"><path d="M 1131.65 161 L 1194.35 161 C 1195.261 161 1196 161.739 1196 162.65 L 1196 225.35 C 1196 226.261 1195.261 227 1194.35 227 L 1131.65 227 C 1130.739 227 1130 226.261 1130 225.35 L 1130 162.65 C 1130 161.739 1130.739 161 1131.65 161 Z" style="stroke:none;fill:#36488C;stroke-linecap:square;stroke-miterlimit:2;"/></g><g transform="matrix(1,0,0,1,1134,181)"><text transform="matrix(1,0,0,1,5.771,20.308)" style="font-family:'Open Sans';font-weight:400;font-size:19px;font-style:normal;fill:#ffffff;stroke:none;">SEAP</text></g><path d="M 1057.65 80 L 1120.35 80 C 1121.261 80 1122 80.739 1122 81.65 L 1122 144.35 C 1122 145.261 1121.261 146 1120.35 146 L 1057.65 146 C 1056.739 146 1056 145.261 1056 144.35 L 1056 81.65 C 1056 80.739 1056.739 80 1057.65 80 Z" style="stroke:none;fill:#00CCFF;stroke-linecap:square;stroke-miterlimit:2;"/><path d="M 1057.65 80 L 1120.35 80 C 1121.261 80 1122 80.739 1122 81.65 L 1122 144.35 C 1122 145.261 1121.261 146 1120.35 146 L 1057.65 146 C 1056.739 146 1056 145.261 1056 144.35 L 1056 81.65 C 1056 80.739 1056.739 80 1057.65 80 Z" style="fill:none;stroke:#000000;stroke-width:1;stroke-linecap:square;stroke-miterlimit:2;"/><g transform="matrix(1,0,0,1,1057.5,105.595)"><text transform="matrix(1,0,0,1,13.813,19.239)" style="font-family:'Open Sans';font-weight:400;font-size:18px;font-style:normal;fill:#ffffff;stroke:none;">SAG</text></g><path d="M 1294.65 0 L 1357.35 0 C 1358.261 0 1359 0.739 1359 1.65 L 1359 64.35 C 1359 65.261 1358.261 66 1357.35 66 L 1294.65 66 C 1293.739 66 1293 65.261 1293 64.35 L 1293 1.65 C 1293 0.739 1293.739 0 1294.65 0 Z" style="stroke:none;fill:#00CCFF;stroke-linecap:square;stroke-miterlimit:2;"/><path d="M 1294.65 0 L 1357.35 0 C 1358.261 0 1359 0.739 1359 1.65 L 1359 64.35 C 1359 65.261 1358.261 66 1357.35 66 L 1294.65 66 C 1293.739 66 1293 65.261 1293 64.35 L 1293 1.65 C 1293 0.739 1293.739 0 1294.65 0 Z" style="fill:none;stroke:#000000;stroke-width:1;stroke-linecap:square;stroke-miterlimit:2;"/><g transform="matrix(1,0,0,1,1293,20)"><text transform="matrix(1,0,0,1,2.916,20.308)" style="font-family:'Open Sans';font-weight:400;font-size:19px;font-style:normal;fill:#ffffff;stroke:none;">GMAIL</text></g><defs><filter id="PWvkLgVyqAzhKpXmqx9IG1OBZWOnxONc" x="-200%" y="-200%" width="400%" height="400%" filterUnits="objectBoundingBox" color-interpolation-filters="sRGB"><feGaussianBlur xmlns="http://www.w3.org/2000/svg" stdDeviation="10.304661750813668" result="_out_7xDNwCgNMSCLHdE76mZkSr4FX6ij8PHY"/><feGaussianBlur xmlns="http://www.w3.org/2000/svg" stdDeviation="19.535921235917577" in="_out_7xDNwCgNMSCLHdE76mZkSr4FX6ij8PHY"/></filter></defs><g filter="url(#PWvkLgVyqAzhKpXmqx9IG1OBZWOnxONc)"><path d="M 1131.65 0 L 1194.35 0 C 1195.261 0 1196 0.739 1196 1.65 L 1196 64.35 C 1196 65.261 1195.261 66 1194.35 66 L 1131.65 66 C 1130.739 66 1130 65.261 1130 64.35 L 1130 1.65 C 1130 0.739 1130.739 0 1131.65 0 Z" style="stroke:none;fill:#101C48;stroke-linecap:square;stroke-miterlimit:2;"/></g><g transform="matrix(1,0,0,1,1130,18.402)"><text transform="matrix(1,0,0,1,0,22.446)" style="font-family:'Open Sans';font-weight:400;font-size:21px;font-style:normal;fill:#ffffff;stroke:none;">SIAG-C</text></g><path d="M 1213.65 80 L 1276.35 80 C 1277.261 80 1278 80.739 1278 81.65 L 1278 144.35 C 1278 145.261 1277.261 146 1276.35 146 L 1213.65 146 C 1212.739 146 1212 145.261 1212 144.35 L 1212 81.65 C 1212 80.739 1212.739 80 1213.65 80 Z" style="stroke:none;fill:#FFFFFF;stroke-linecap:square;stroke-miterlimit:2;"/><path d="M 1213.65 80 L 1276.35 80 C 1277.261 80 1278 80.739 1278 81.65 L 1278 144.35 C 1278 145.261 1277.261 146 1276.35 146 L 1213.65 146 C 1212.739 146 1212 145.261 1212 144.35 L 1212 81.65 C 1212 80.739 1212.739 80 1213.65 80 Z" style="fill:none;stroke:#000000;stroke-width:1;stroke-linecap:square;stroke-miterlimit:2;"/><g transform="matrix(1,0,0,1,1213,104.234)"><text transform="matrix(1,0,0,1,0,21.377)" style="font-family:'Open Sans';font-weight:400;font-size:20px;font-style:normal;fill:#000000;stroke:none;">FIPLAN</text></g><defs><filter id="eOSIg3NrkdCG69zGb6IY6RPhcSo3jvFF" x="-200%" y="-200%" width="400%" height="400%" filterUnits="objectBoundingBox" color-interpolation-filters="sRGB"><feGaussianBlur xmlns="http://www.w3.org/2000/svg" stdDeviation="10.304661750813668" result="_out_azzui3WEZA4EFQ81U9z7RaWDGJLCm2ja"/><feGaussianBlur xmlns="http://www.w3.org/2000/svg" stdDeviation="19.535921235917577" in="_out_azzui3WEZA4EFQ81U9z7RaWDGJLCm2ja"/></filter></defs><g filter="url(#eOSIg3NrkdCG69zGb6IY6RPhcSo3jvFF)"><path d="M 1294.65 161 L 1357.35 161 C 1358.261 161 1359 161.739 1359 162.65 L 1359 225.35 C 1359 226.261 1358.261 227 1357.35 227 L 1294.65 227 C 1293.739 227 1293 226.261 1293 225.35 L 1293 162.65 C 1293 161.739 1293.739 161 1294.65 161 Z" style="stroke:none;fill:#36488C;stroke-linecap:square;stroke-miterlimit:2;"/></g><g transform="matrix(1,0,0,1,1293,181)"><text transform="matrix(1,0,0,1,0,20.308)" style="font-family:'Open Sans';font-weight:400;font-size:19px;font-style:normal;fill:#ffffff;stroke:none;">SIGPAT</text></g><path d="M 732.65 722 L 795.35 722 C 796.261 722 797 722.739 797 723.65 L 797 786.35 C 797 787.261 796.261 788 795.35 788 L 732.65 788 C 731.739 788 731 787.261 731 786.35 L 731 723.65 C 731 722.739 731.739 722 732.65 722 Z" style="stroke:none;fill:#00CCFF;stroke-linecap:square;stroke-miterlimit:2;"/><path d="M 732.65 722 L 795.35 722 C 796.261 722 797 722.739 797 723.65 L 797 786.35 C 797 787.261 796.261 788 795.35 788 L 732.65 788 C 731.739 788 731 787.261 731 786.35 L 731 723.65 C 731 722.739 731.739 722 732.65 722 Z" style="fill:none;stroke:#000000;stroke-width:1;stroke-linecap:square;stroke-miterlimit:2;"/><g transform="matrix(1,0,0,1,731,742)"><text transform="matrix(1,0,0,1,0.596,20.308)" style="font-family:'Open Sans';font-weight:400;font-size:19px;font-style:normal;fill:#ffffff;stroke:none;">RAMAL</text></g></g></svg>