<?xml version="1.0" encoding="iso-8859-1"?>
<!-- Generator: Adobe Illustrator 19.0.0, SVG Export Plug-In . SVG Version: 6.00 Build 0)  -->
<svg version="1.1" id="Capa_1" xmlns="http://www.w3.org/2000/svg" xmlns:xlink="http://www.w3.org/1999/xlink" x="0px" y="0px"
	 viewBox="0 0 512 512" style="enable-background:new 0 0 512 512;" xml:space="preserve">
<circle style="fill:#42DB8F;" cx="256" cy="256" r="256"/>
<path style="fill:#0ACB72;" d="M512,256c0-10.046-0.598-19.952-1.724-29.697L378.979,95.007L244.67,287.166L190.304,232.8
	l-83.542,37.391l22.781,99.459l142.384,141.842C405.891,503.267,512,392.034,512,256z"/>
<path style="fill:#FFFFFF;" d="M303.266,64.315c-60.065,0-108.757,48.692-108.757,108.757c0,33.547,15.193,63.543,39.07,83.493
	v53.064l33.85-33.85c11.222,3.916,23.279,6.051,35.837,6.051c60.065,0,108.757-48.692,108.757-108.757
	S363.331,64.315,303.266,64.315z"/>
<path style="fill:#E6E6E6;" d="M303.266,64.315c-0.224,0-0.447,0.007-0.671,0.008v217.492c0.225,0.001,0.446,0.014,0.671,0.014
	c60.065,0,108.757-48.692,108.757-108.757S363.331,64.315,303.266,64.315z"/>
<path style="fill:#26406D;" d="M272.935,315.432l-33.817,33.816c-36.05-17.339-65.292-46.582-82.631-82.632l33.817-33.816
	l-87.825-87.827l-45.346,45.345c0.001,142.643,115.637,258.281,258.281,258.285l45.346-45.345L272.935,315.432z"/>
<path style="fill:#11244F;" d="M360.76,403.258l-87.825-87.827l-33.817,33.816c-16.28-7.83-31.164-18.094-44.198-30.31
	l-58.027,58.027c46.38,44.374,109.266,71.637,178.521,71.639L360.76,403.258z"/>
<g>
	<circle style="fill:#FF1B1B;" cx="252.76" cy="173" r="18.13"/>
	<circle style="fill:#FF1B1B;" cx="303.27" cy="173" r="18.13"/>
</g>
<g>
	<path style="fill:#D60000;" d="M303.266,154.868c-0.227,0-0.447,0.025-0.671,0.034v36.196c0.225,0.008,0.445,0.034,0.671,0.034
		c10.014,0,18.132-8.118,18.132-18.132S313.28,154.868,303.266,154.868z"/>
	<circle style="fill:#D60000;" cx="353.78" cy="173" r="18.13"/>
</g>
<g>
</g>
<g>
</g>
<g>
</g>
<g>
</g>
<g>
</g>
<g>
</g>
<g>
</g>
<g>
</g>
<g>
</g>
<g>
</g>
<g>
</g>
<g>
</g>
<g>
</g>
<g>
</g>
<g>
</g>
</svg>
