<?xml version="1.0" standalone="no"?><!-- Generator: Gravit.io --><svg xmlns="http://www.w3.org/2000/svg" xmlns:xlink="http://www.w3.org/1999/xlink" style="isolation:isolate" viewBox="0 0 42.41 39.25" width="42.41" height="39.25"><defs><clipPath id="_clipPath_aSMfHd4DIJF1afyB8f7DR0IWVK3C811h"><rect width="42.41" height="39.25"/></clipPath></defs><g clip-path="url(#_clipPath_aSMfHd4DIJF1afyB8f7DR0IWVK3C811h)"><g><path d="M 0 0 L 26.591 0 C 35.322 0 42.41 7.088 42.41 15.819 L 42.41 23.431 C 42.41 32.162 35.322 39.25 26.591 39.25 L 15.819 39.25 C 7.088 39.25 0 32.162 0 23.431 L 0 0 Z" style="stroke:none;fill:#232C77;stroke-miterlimit:10;"/></g><line x1="11" y1="6" x2="11" y2="34" vector-effect="non-scaling-stroke" stroke-width="2" stroke="rgb(255,255,255)" stroke-linejoin="miter" stroke-linecap="square" stroke-miterlimit="3"/><path d=" M 14 33 L 14 9 L 26 12 L 26 29 L 14 33 Z " fill="none" vector-effect="non-scaling-stroke" stroke-width="1.5" stroke="rgb(255,255,255)" stroke-linejoin="miter" stroke-linecap="square" stroke-miterlimit="3"/><circle vector-effect="non-scaling-stroke" cx="0" cy="0" r="1" transform="matrix(1,0,0,1,24,20.625)" fill="rgb(255,255,255)"/><path d=" M 11 6 L 32 6 L 32 34" fill="none" vector-effect="non-scaling-stroke" stroke-width="2" stroke="rgb(255,255,255)" stroke-linejoin="miter" stroke-linecap="square" stroke-miterlimit="3"/></g></svg>