<?xml version="1.0" standalone="no"?><!-- Generator: Gravit.io --><svg xmlns="http://www.w3.org/2000/svg" xmlns:xlink="http://www.w3.org/1999/xlink" style="isolation:isolate" viewBox="0 0 66 66" width="66" height="66"><defs><clipPath id="_clipPath_Unhyic99rPpJr3qoKx4oubUSnO2RqfVb"><rect width="66" height="66"/></clipPath></defs><g clip-path="url(#_clipPath_Unhyic99rPpJr3qoKx4oubUSnO2RqfVb)"><defs><filter id="4SUwl7Uv20tOzRCxBQxfy6fguyspFd3P" x="-200%" y="-200%" width="400%" height="400%" filterUnits="objectBoundingBox" color-interpolation-filters="sRGB"><feGaussianBlur xmlns="http://www.w3.org/2000/svg" stdDeviation="10.304661750813668" result="_out_AVRkERyYAkMCjZt3Q4FyqCJQPmFzVMYY"/><feGaussianBlur xmlns="http://www.w3.org/2000/svg" stdDeviation="19.535921235917577" in="_out_AVRkERyYAkMCjZt3Q4FyqCJQPmFzVMYY"/></filter></defs><g filter="url(#4SUwl7Uv20tOzRCxBQxfy6fguyspFd3P)"><path d="M 732.65 489 L 795.35 489 C 796.261 489 797 489.739 797 490.65 L 797 553.35 C 797 554.261 796.261 555 795.35 555 L 732.65 555 C 731.739 555 731 554.261 731 553.35 L 731 490.65 C 731 489.739 731.739 489 732.65 489 Z" style="stroke:none;fill:#101C48;stroke-miterlimit:10;"/></g><g transform="matrix(1,0,0,1,737.5,506.339)"><text transform="matrix(1,0,0,1,0,24.583)" style="font-family:'Open Sans';font-weight:400;font-size:23px;font-style:normal;fill:#ffffff;stroke:none;">SIAG</text></g><path d="M 804.65 489 L 867.35 489 C 868.261 489 869 489.739 869 490.65 L 869 553.35 C 869 554.261 868.261 555 867.35 555 L 804.65 555 C 803.739 555 803 554.261 803 553.35 L 803 490.65 C 803 489.739 803.739 489 804.65 489 Z" style="stroke:none;fill:#FFFFFF;stroke-miterlimit:10;"/><path d="M 804.65 489 L 867.35 489 C 868.261 489 869 489.739 869 490.65 L 869 553.35 C 869 554.261 868.261 555 867.35 555 L 804.65 555 C 803.739 555 803 554.261 803 553.35 L 803 490.65 C 803 489.739 803.739 489 804.65 489 Z" style="fill:none;stroke:#000000;stroke-width:1;stroke-linecap:square;stroke-miterlimit:2;"/><g transform="matrix(1,0,0,1,819,507.02)"><text transform="matrix(1,0,0,1,0,24.583)" style="font-family:'Open Sans';font-weight:400;font-size:23px;font-style:normal;fill:#000000;stroke:none;">PJE</text></g><defs><filter id="0nS1TCKm1rbejy8PacM5TU9V4ve8H9db" x="-200%" y="-200%" width="400%" height="400%" filterUnits="objectBoundingBox" color-interpolation-filters="sRGB"><feGaussianBlur xmlns="http://www.w3.org/2000/svg" stdDeviation="10.304661750813668" result="_out_QvqPqxESOFmgRmAtsKaZkYfiYHAV8ztV"/><feGaussianBlur xmlns="http://www.w3.org/2000/svg" stdDeviation="19.535921235917577" in="_out_QvqPqxESOFmgRmAtsKaZkYfiYHAV8ztV"/></filter></defs><g filter="url(#0nS1TCKm1rbejy8PacM5TU9V4ve8H9db)"><path d="M 876.65 489 L 939.35 489 C 940.261 489 941 489.739 941 490.65 L 941 553.35 C 941 554.261 940.261 555 939.35 555 L 876.65 555 C 875.739 555 875 554.261 875 553.35 L 875 490.65 C 875 489.739 875.739 489 876.65 489 Z" style="stroke:none;fill:#36488C;stroke-linecap:square;stroke-miterlimit:2;"/></g><g transform="matrix(1,0,0,1,879,509.063)"><text transform="matrix(1,0,0,1,0,20.308)" style="font-family:'Open Sans';font-weight:400;font-size:19px;font-style:normal;fill:#ffffff;stroke:none;">SEGES</text></g><path d="M 949.65 489 L 1012.35 489 C 1013.261 489 1014 489.739 1014 490.65 L 1014 553.35 C 1014 554.261 1013.261 555 1012.35 555 L 949.65 555 C 948.739 555 948 554.261 948 553.35 L 948 490.65 C 948 489.739 948.739 489 949.65 489 Z" style="stroke:none;fill:#00CCFF;stroke-linecap:square;stroke-miterlimit:2;"/><path d="M 949.65 489 L 1012.35 489 C 1013.261 489 1014 489.739 1014 490.65 L 1014 553.35 C 1014 554.261 1013.261 555 1012.35 555 L 949.65 555 C 948.739 555 948 554.261 948 553.35 L 948 490.65 C 948 489.739 948.739 489 949.65 489 Z" style="fill:none;stroke:#000000;stroke-width:1;stroke-linecap:square;stroke-miterlimit:2;"/><g transform="matrix(1,0,0,1,949,517)"><text transform="matrix(1,0,0,1,0,19.239)" style="font-family:'Open Sans';font-weight:400;font-size:18px;font-style:normal;fill:#ffffff;stroke:none;">PONTO</text></g><g transform="matrix(1,0,0,1,961,497.487)"><text transform="matrix(1,0,0,1,0,19.239)" style="font-family:'Open Sans';font-weight:400;font-size:18px;font-style:normal;fill:#ffffff;stroke:none;">WEB</text></g><path d="M -352.35 342 L -289.65 342 C -288.739 342 -288 342.739 -288 343.65 L -288 406.35 C -288 407.261 -288.739 408 -289.65 408 L -352.35 408 C -353.261 408 -354 407.261 -354 406.35 L -354 343.65 C -354 342.739 -353.261 342 -352.35 342 Z" style="stroke:none;fill:#101C48;stroke-linecap:square;stroke-miterlimit:2;"/><g transform="matrix(1,0,0,1,-347.5,359.339)"><text transform="matrix(1,0,0,1,0,24.583)" style="font-family:'Open Sans';font-weight:400;font-size:23px;font-style:normal;fill:#ffffff;stroke:none;">SIAG</text></g><path d="M 175.65 406 L 238.35 406 C 239.261 406 240 406.739 240 407.65 L 240 470.35 C 240 471.261 239.261 472 238.35 472 L 175.65 472 C 174.739 472 174 471.261 174 470.35 L 174 407.65 C 174 406.739 174.739 406 175.65 406 Z" style="stroke:none;fill:#101C48;stroke-linecap:square;stroke-miterlimit:2;"/><g transform="matrix(1,0,0,1,174,426)"><text transform="matrix(1,0,0,1,1.279,18.17)" style="font-family:'Open Sans';font-weight:400;font-size:17px;font-style:normal;fill:#ffffff;stroke:none;">RAMAIS</text></g><path d="M 1.65 0 L 64.35 0 C 65.261 0 66 0.739 66 1.65 L 66 64.35 C 66 65.261 65.261 66 64.35 66 L 1.65 66 C 0.739 66 0 65.261 0 64.35 L 0 1.65 C 0 0.739 0.739 0 1.65 0 Z" style="stroke:none;fill:#FFFFFF;stroke-linecap:square;stroke-miterlimit:2;"/><path d="M 1.65 0 L 64.35 0 C 65.261 0 66 0.739 66 1.65 L 66 64.35 C 66 65.261 65.261 66 64.35 66 L 1.65 66 C 0.739 66 0 65.261 0 64.35 L 0 1.65 C 0 0.739 0.739 0 1.65 0 Z" style="fill:none;stroke:#000000;stroke-width:1;stroke-linecap:square;stroke-miterlimit:2;"/><g transform="matrix(1,0,0,1,386,-20)"><text transform="matrix(1,0,0,1,0,24.583)" style="font-family:'Open Sans';font-weight:400;font-size:23px;font-style:normal;fill:#000000;stroke:none;">PJE</text></g><path d="M 75.65 -169 L 138.35 -169 C 139.261 -169 140 -168.261 140 -167.35 L 140 -104.65 C 140 -103.739 139.261 -103 138.35 -103 L 75.65 -103 C 74.739 -103 74 -103.739 74 -104.65 L 74 -167.35 C 74 -168.261 74.739 -169 75.65 -169 Z" style="stroke:none;fill:#36488C;stroke-linecap:square;stroke-miterlimit:2;"/><g transform="matrix(1,0,0,1,78,-148.937)"><text transform="matrix(1,0,0,1,0,20.308)" style="font-family:'Open Sans';font-weight:400;font-size:19px;font-style:normal;fill:#ffffff;stroke:none;">SEGES</text></g><path d="M 201.65 144 L 264.35 144 C 265.261 144 266 144.739 266 145.65 L 266 208.35 C 266 209.261 265.261 210 264.35 210 L 201.65 210 C 200.739 210 200 209.261 200 208.35 L 200 145.65 C 200 144.739 200.739 144 201.65 144 Z" style="stroke:none;fill:#00CCFF;stroke-linecap:square;stroke-miterlimit:2;"/><path d="M 201.65 144 L 264.35 144 C 265.261 144 266 144.739 266 145.65 L 266 208.35 C 266 209.261 265.261 210 264.35 210 L 201.65 210 C 200.739 210 200 209.261 200 208.35 L 200 145.65 C 200 144.739 200.739 144 201.65 144 Z" style="fill:none;stroke:#000000;stroke-width:1;stroke-linecap:square;stroke-miterlimit:2;"/><g transform="matrix(1,0,0,1,201,173)"><text transform="matrix(1,0,0,1,0,19.239)" style="font-family:'Open Sans';font-weight:400;font-size:18px;font-style:normal;fill:#ffffff;stroke:none;">PONTO</text></g><g transform="matrix(1,0,0,1,213,153.487)"><text transform="matrix(1,0,0,1,0,19.239)" style="font-family:'Open Sans';font-weight:400;font-size:18px;font-style:normal;fill:#ffffff;stroke:none;">WEB</text></g><defs><filter id="0dZfrzlquCn81m7QYbf9ZlkWamieiZr9" x="-200%" y="-200%" width="400%" height="400%" filterUnits="objectBoundingBox" color-interpolation-filters="sRGB"><feGaussianBlur xmlns="http://www.w3.org/2000/svg" stdDeviation="10.304661750813668" result="_out_qqupffFk438hZh75VE1kjk7MQLjzSSx9"/><feGaussianBlur xmlns="http://www.w3.org/2000/svg" stdDeviation="19.535921235917577" in="_out_qqupffFk438hZh75VE1kjk7MQLjzSSx9"/></filter></defs><g filter="url(#0dZfrzlquCn81m7QYbf9ZlkWamieiZr9)"><path d="M 732.65 644 L 795.35 644 C 796.261 644 797 644.739 797 645.65 L 797 708.35 C 797 709.261 796.261 710 795.35 710 L 732.65 710 C 731.739 710 731 709.261 731 708.35 L 731 645.65 C 731 644.739 731.739 644 732.65 644 Z" style="stroke:none;fill:#101C48;stroke-linecap:square;stroke-miterlimit:2;"/></g><g transform="matrix(1,0,0,1,731,645)"><text transform="matrix(1,0,0,1,0,16.033)" style="font-family:'Open Sans';font-weight:400;font-size:15px;font-style:normal;fill:#ffffff;stroke:none;">PRO</text></g><g transform="matrix(1,0,0,1,751,661)"><text transform="matrix(1,0,0,1,0,16.033)" style="font-family:'Open Sans';font-weight:400;font-size:15px;font-style:normal;fill:#ffffff;stroke:none;">TO</text></g><g transform="matrix(1,0,0,1,761,675)"><text transform="matrix(1,0,0,1,0,16.033)" style="font-family:'Open Sans';font-weight:400;font-size:15px;font-style:normal;fill:#ffffff;stroke:none;">CO</text></g><g transform="matrix(1,0,0,1,773,691)"><text transform="matrix(1,0,0,1,0,16.033)" style="font-family:'Open Sans';font-weight:400;font-size:15px;font-style:normal;fill:#ffffff;stroke:none;">LO</text></g><path d="M 804.65 644 L 867.35 644 C 868.261 644 869 644.739 869 645.65 L 869 708.35 C 869 709.261 868.261 710 867.35 710 L 804.65 710 C 803.739 710 803 709.261 803 708.35 L 803 645.65 C 803 644.739 803.739 644 804.65 644 Z" style="stroke:none;fill:#FFFFFF;stroke-linecap:square;stroke-miterlimit:2;"/><path d="M 804.65 644 L 867.35 644 C 868.261 644 869 644.739 869 645.65 L 869 708.35 C 869 709.261 868.261 710 867.35 710 L 804.65 710 C 803.739 710 803 709.261 803 708.35 L 803 645.65 C 803 644.739 803.739 644 804.65 644 Z" style="fill:none;stroke:#000000;stroke-width:1;stroke-linecap:square;stroke-miterlimit:2;"/><g transform="matrix(1,0,0,1,803,662.02)"><text transform="matrix(1,0,0,1,3.261,24.583)" style="font-family:'Open Sans';font-weight:400;font-size:23px;font-style:normal;fill:#000000;stroke:none;">OTRS</text></g><defs><filter id="k5UHpHBLbnqxM0IbBmUoiR6TrVvhthf4" x="-200%" y="-200%" width="400%" height="400%" filterUnits="objectBoundingBox" color-interpolation-filters="sRGB"><feGaussianBlur xmlns="http://www.w3.org/2000/svg" stdDeviation="10.304661750813668" result="_out_ZOwPWPYoPtRI5KPhSo6DY45dfOc9a2sm"/><feGaussianBlur xmlns="http://www.w3.org/2000/svg" stdDeviation="19.535921235917577" in="_out_ZOwPWPYoPtRI5KPhSo6DY45dfOc9a2sm"/></filter></defs><g filter="url(#k5UHpHBLbnqxM0IbBmUoiR6TrVvhthf4)"><path d="M 876.65 644 L 939.35 644 C 940.261 644 941 644.739 941 645.65 L 941 708.35 C 941 709.261 940.261 710 939.35 710 L 876.65 710 C 875.739 710 875 709.261 875 708.35 L 875 645.65 C 875 644.739 875.739 644 876.65 644 Z" style="stroke:none;fill:#36488C;stroke-linecap:square;stroke-miterlimit:2;"/></g><g transform="matrix(1,0,0,1,879,664.063)"><text transform="matrix(1,0,0,1,5.771,20.308)" style="font-family:'Open Sans';font-weight:400;font-size:19px;font-style:normal;fill:#ffffff;stroke:none;">SEAP</text></g><path d="M 949.65 644 L 1012.35 644 C 1013.261 644 1014 644.739 1014 645.65 L 1014 708.35 C 1014 709.261 1013.261 710 1012.35 710 L 949.65 710 C 948.739 710 948 709.261 948 708.35 L 948 645.65 C 948 644.739 948.739 644 949.65 644 Z" style="stroke:none;fill:#00CCFF;stroke-linecap:square;stroke-miterlimit:2;"/><path d="M 949.65 644 L 1012.35 644 C 1013.261 644 1014 644.739 1014 645.65 L 1014 708.35 C 1014 709.261 1013.261 710 1012.35 710 L 949.65 710 C 948.739 710 948 709.261 948 708.35 L 948 645.65 C 948 644.739 948.739 644 949.65 644 Z" style="fill:none;stroke:#000000;stroke-width:1;stroke-linecap:square;stroke-miterlimit:2;"/><g transform="matrix(1,0,0,1,949,665)"><text transform="matrix(1,0,0,1,13.813,19.239)" style="font-family:'Open Sans';font-weight:400;font-size:18px;font-style:normal;fill:#ffffff;stroke:none;">SAG</text></g><path d="M 29.65 278 L 92.35 278 C 93.261 278 94 278.739 94 279.65 L 94 342.35 C 94 343.261 93.261 344 92.35 344 L 29.65 344 C 28.739 344 28 343.261 28 342.35 L 28 279.65 C 28 278.739 28.739 278 29.65 278 Z" style="stroke:none;fill:#101C48;stroke-linecap:square;stroke-miterlimit:2;"/><g transform="matrix(1,0,0,1,28,279)"><text transform="matrix(1,0,0,1,0,16.033)" style="font-family:'Open Sans';font-weight:400;font-size:15px;font-style:normal;fill:#ffffff;stroke:none;">PRO</text></g><g transform="matrix(1,0,0,1,48,295)"><text transform="matrix(1,0,0,1,0,16.033)" style="font-family:'Open Sans';font-weight:400;font-size:15px;font-style:normal;fill:#ffffff;stroke:none;">TO</text></g><g transform="matrix(1,0,0,1,58,309)"><text transform="matrix(1,0,0,1,0,16.033)" style="font-family:'Open Sans';font-weight:400;font-size:15px;font-style:normal;fill:#ffffff;stroke:none;">CO</text></g><g transform="matrix(1,0,0,1,70,325)"><text transform="matrix(1,0,0,1,0,16.033)" style="font-family:'Open Sans';font-weight:400;font-size:15px;font-style:normal;fill:#ffffff;stroke:none;">LO</text></g><path d="M 281.65 144 L 344.35 144 C 345.261 144 346 144.739 346 145.65 L 346 208.35 C 346 209.261 345.261 210 344.35 210 L 281.65 210 C 280.739 210 280 209.261 280 208.35 L 280 145.65 C 280 144.739 280.739 144 281.65 144 Z" style="stroke:none;fill:#FFFFFF;stroke-linecap:square;stroke-miterlimit:2;"/><path d="M 281.65 144 L 344.35 144 C 345.261 144 346 144.739 346 145.65 L 346 208.35 C 346 209.261 345.261 210 344.35 210 L 281.65 210 C 280.739 210 280 209.261 280 208.35 L 280 145.65 C 280 144.739 280.739 144 281.65 144 Z" style="fill:none;stroke:#000000;stroke-width:1;stroke-linecap:square;stroke-miterlimit:2;"/><g transform="matrix(1,0,0,1,280,165.02)"><text transform="matrix(1,0,0,1,3.261,24.583)" style="font-family:'Open Sans';font-weight:400;font-size:23px;font-style:normal;fill:#000000;stroke:none;">OTRS</text></g><path d="M 250.65 -190 L 313.35 -190 C 314.261 -190 315 -189.261 315 -188.35 L 315 -125.65 C 315 -124.739 314.261 -124 313.35 -124 L 250.65 -124 C 249.739 -124 249 -124.739 249 -125.65 L 249 -188.35 C 249 -189.261 249.739 -190 250.65 -190 Z" style="stroke:none;fill:#36488C;stroke-linecap:square;stroke-miterlimit:2;"/><g transform="matrix(1,0,0,1,253,-167.937)"><text transform="matrix(1,0,0,1,5.771,20.308)" style="font-family:'Open Sans';font-weight:400;font-size:19px;font-style:normal;fill:#ffffff;stroke:none;">SEAP</text></g><path d="M 202.65 72 L 265.35 72 C 266.261 72 267 72.739 267 73.65 L 267 136.35 C 267 137.261 266.261 138 265.35 138 L 202.65 138 C 201.739 138 201 137.261 201 136.35 L 201 73.65 C 201 72.739 201.739 72 202.65 72 Z" style="stroke:none;fill:#00CCFF;stroke-linecap:square;stroke-miterlimit:2;"/><path d="M 202.65 72 L 265.35 72 C 266.261 72 267 72.739 267 73.65 L 267 136.35 C 267 137.261 266.261 138 265.35 138 L 202.65 138 C 201.739 138 201 137.261 201 136.35 L 201 73.65 C 201 72.739 201.739 72 202.65 72 Z" style="fill:none;stroke:#000000;stroke-width:1;stroke-linecap:square;stroke-miterlimit:2;"/><g transform="matrix(1,0,0,1,202,95)"><text transform="matrix(1,0,0,1,13.813,19.239)" style="font-family:'Open Sans';font-weight:400;font-size:18px;font-style:normal;fill:#ffffff;stroke:none;">SAG</text></g><path d="M 732.65 567 L 795.35 567 C 796.261 567 797 567.739 797 568.65 L 797 631.35 C 797 632.261 796.261 633 795.35 633 L 732.65 633 C 731.739 633 731 632.261 731 631.35 L 731 568.65 C 731 567.739 731.739 567 732.65 567 Z" style="stroke:none;fill:#00CCFF;stroke-linecap:square;stroke-miterlimit:2;"/><path d="M 732.65 567 L 795.35 567 C 796.261 567 797 567.739 797 568.65 L 797 631.35 C 797 632.261 796.261 633 795.35 633 L 732.65 633 C 731.739 633 731 632.261 731 631.35 L 731 568.65 C 731 567.739 731.739 567 732.65 567 Z" style="fill:none;stroke:#000000;stroke-width:1;stroke-linecap:square;stroke-miterlimit:2;"/><g transform="matrix(1,0,0,1,731,587)"><text transform="matrix(1,0,0,1,2.916,20.308)" style="font-family:'Open Sans';font-weight:400;font-size:19px;font-style:normal;fill:#ffffff;stroke:none;">GMAIL</text></g><defs><filter id="I7tOS1HuYJLfnTwQ0EJbcmWJTkJwQNna" x="-200%" y="-200%" width="400%" height="400%" filterUnits="objectBoundingBox" color-interpolation-filters="sRGB"><feGaussianBlur xmlns="http://www.w3.org/2000/svg" stdDeviation="10.304661750813668" result="_out_kE3f03KjzpVKIBsftzWBvd0mPJsWrlle"/><feGaussianBlur xmlns="http://www.w3.org/2000/svg" stdDeviation="19.535921235917577" in="_out_kE3f03KjzpVKIBsftzWBvd0mPJsWrlle"/></filter></defs><g filter="url(#I7tOS1HuYJLfnTwQ0EJbcmWJTkJwQNna)"><path d="M 951.65 567 L 1014.35 567 C 1015.261 567 1016 567.739 1016 568.65 L 1016 631.35 C 1016 632.261 1015.261 633 1014.35 633 L 951.65 633 C 950.739 633 950 632.261 950 631.35 L 950 568.65 C 950 567.739 950.739 567 951.65 567 Z" style="stroke:none;fill:#101C48;stroke-linecap:square;stroke-miterlimit:2;"/></g><g transform="matrix(1,0,0,1,950,585.402)"><text transform="matrix(1,0,0,1,0,22.446)" style="font-family:'Open Sans';font-weight:400;font-size:21px;font-style:normal;fill:#ffffff;stroke:none;">SIAG-C</text></g><path d="M 878.65 566 L 941.35 566 C 942.261 566 943 566.739 943 567.65 L 943 630.35 C 943 631.261 942.261 632 941.35 632 L 878.65 632 C 877.739 632 877 631.261 877 630.35 L 877 567.65 C 877 566.739 877.739 566 878.65 566 Z" style="stroke:none;fill:#FFFFFF;stroke-linecap:square;stroke-miterlimit:2;"/><path d="M 878.65 566 L 941.35 566 C 942.261 566 943 566.739 943 567.65 L 943 630.35 C 943 631.261 942.261 632 941.35 632 L 878.65 632 C 877.739 632 877 631.261 877 630.35 L 877 567.65 C 877 566.739 877.739 566 878.65 566 Z" style="fill:none;stroke:#000000;stroke-width:1;stroke-linecap:square;stroke-miterlimit:2;"/><g transform="matrix(1,0,0,1,877,586)"><text transform="matrix(1,0,0,1,0,21.377)" style="font-family:'Open Sans';font-weight:400;font-size:20px;font-style:normal;fill:#000000;stroke:none;">FIPLAN</text></g><defs><filter id="6FECbRvQfbT2RCElBTiKKSA6LFMHvmcf" x="-200%" y="-200%" width="400%" height="400%" filterUnits="objectBoundingBox" color-interpolation-filters="sRGB"><feGaussianBlur xmlns="http://www.w3.org/2000/svg" stdDeviation="10.304661750813668" result="_out_UcPZihe16QCYT2TWCNe9jTzK0Xmz4cXf"/><feGaussianBlur xmlns="http://www.w3.org/2000/svg" stdDeviation="19.535921235917577" in="_out_UcPZihe16QCYT2TWCNe9jTzK0Xmz4cXf"/></filter></defs><g filter="url(#6FECbRvQfbT2RCElBTiKKSA6LFMHvmcf)"><path d="M 805.65 566 L 868.35 566 C 869.261 566 870 566.739 870 567.65 L 870 630.35 C 870 631.261 869.261 632 868.35 632 L 805.65 632 C 804.739 632 804 631.261 804 630.35 L 804 567.65 C 804 566.739 804.739 566 805.65 566 Z" style="stroke:none;fill:#36488C;stroke-linecap:square;stroke-miterlimit:2;"/></g><g transform="matrix(1,0,0,1,804,587)"><text transform="matrix(1,0,0,1,0,20.308)" style="font-family:'Open Sans';font-weight:400;font-size:19px;font-style:normal;fill:#ffffff;stroke:none;">SIGPAT</text></g><path d="M 202.65 0 L 265.35 0 C 266.261 0 267 0.739 267 1.65 L 267 64.35 C 267 65.261 266.261 66 265.35 66 L 202.65 66 C 201.739 66 201 65.261 201 64.35 L 201 1.65 C 201 0.739 201.739 0 202.65 0 Z" style="stroke:none;fill:#00CCFF;stroke-linecap:square;stroke-miterlimit:2;"/><path d="M 202.65 0 L 265.35 0 C 266.261 0 267 0.739 267 1.65 L 267 64.35 C 267 65.261 266.261 66 265.35 66 L 202.65 66 C 201.739 66 201 65.261 201 64.35 L 201 1.65 C 201 0.739 201.739 0 202.65 0 Z" style="fill:none;stroke:#000000;stroke-width:1;stroke-linecap:square;stroke-miterlimit:2;"/><g transform="matrix(1,0,0,1,201,20)"><text transform="matrix(1,0,0,1,2.916,20.308)" style="font-family:'Open Sans';font-weight:400;font-size:19px;font-style:normal;fill:#ffffff;stroke:none;">GMAIL</text></g><path d="M -118.35 -130 L -55.65 -130 C -54.739 -130 -54 -129.261 -54 -128.35 L -54 -65.65 C -54 -64.739 -54.739 -64 -55.65 -64 L -118.35 -64 C -119.261 -64 -120 -64.739 -120 -65.65 L -120 -128.35 C -120 -129.261 -119.261 -130 -118.35 -130 Z" style="stroke:none;fill:#101C48;stroke-linecap:square;stroke-miterlimit:2;"/><g><g transform="matrix(1,0,0,1,8.75,16.849)"><text transform="matrix(1,0,0,1,0,18.17)" style="font-family:'Open Sans';font-weight:400;font-size:17px;font-style:normal;fill:#000000;stroke:none;">MAPA</text></g><g transform="matrix(1,0,0,1,5.75,34.845)"><text transform="matrix(1,0,0,1,0,9.62)" style="font-family:'Open Sans';font-weight:400;font-size:9px;font-style:normal;fill:#000000;stroke:none;">RODOVIARIO</text></g></g><path d="M 101.65 214 L 164.35 214 C 165.261 214 166 214.739 166 215.65 L 166 278.35 C 166 279.261 165.261 280 164.35 280 L 101.65 280 C 100.739 280 100 279.261 100 278.35 L 100 215.65 C 100 214.739 100.739 214 101.65 214 Z" style="stroke:none;fill:#101C48;stroke-linecap:square;stroke-miterlimit:2;"/><g transform="matrix(1,0,0,1,101.5,235.425)"><text transform="matrix(1,0,0,1,0,18.17)" style="font-family:'Open Sans';font-weight:400;font-size:17px;font-style:normal;fill:#ffffff;stroke:none;">FETHAB</text></g><path d="M 281.65 72 L 344.35 72 C 345.261 72 346 72.739 346 73.65 L 346 136.35 C 346 137.261 345.261 138 344.35 138 L 281.65 138 C 280.739 138 280 137.261 280 136.35 L 280 73.65 C 280 72.739 280.739 72 281.65 72 Z" style="stroke:none;fill:#FFFFFF;stroke-linecap:square;stroke-miterlimit:2;"/><path d="M 281.65 72 L 344.35 72 C 345.261 72 346 72.739 346 73.65 L 346 136.35 C 346 137.261 345.261 138 344.35 138 L 281.65 138 C 280.739 138 280 137.261 280 136.35 L 280 73.65 C 280 72.739 280.739 72 281.65 72 Z" style="fill:none;stroke:#000000;stroke-width:1;stroke-linecap:square;stroke-miterlimit:2;"/><g transform="matrix(1,0,0,1,280,95)"><text transform="matrix(1,0,0,1,0,21.377)" style="font-family:'Open Sans';font-weight:400;font-size:20px;font-style:normal;fill:#000000;stroke:none;">FIPLAN</text></g><path d="M 370.65 -185 L 433.35 -185 C 434.261 -185 435 -184.261 435 -183.35 L 435 -120.65 C 435 -119.739 434.261 -119 433.35 -119 L 370.65 -119 C 369.739 -119 369 -119.739 369 -120.65 L 369 -183.35 C 369 -184.261 369.739 -185 370.65 -185 Z" style="stroke:none;fill:#36488C;stroke-linecap:square;stroke-miterlimit:2;"/><g transform="matrix(1,0,0,1,369,-164)"><text transform="matrix(1,0,0,1,0,20.308)" style="font-family:'Open Sans';font-weight:400;font-size:19px;font-style:normal;fill:#ffffff;stroke:none;">SIGPAT</text></g><defs><filter id="ftqRZznjMctXQx4O21VP2mquDsgHJpFq" x="-200%" y="-200%" width="400%" height="400%" filterUnits="objectBoundingBox" color-interpolation-filters="sRGB"><feGaussianBlur xmlns="http://www.w3.org/2000/svg" stdDeviation="10.304661750813668" result="_out_7DdJqEPGJbNfudOHU3b5mjkMD7fwGQcT"/><feGaussianBlur xmlns="http://www.w3.org/2000/svg" stdDeviation="19.535921235917577" in="_out_7DdJqEPGJbNfudOHU3b5mjkMD7fwGQcT"/></filter></defs><g filter="url(#ftqRZznjMctXQx4O21VP2mquDsgHJpFq)"><path d="M 1057.65 0 L 1120.35 0 C 1121.261 0 1122 0.739 1122 1.65 L 1122 64.35 C 1122 65.261 1121.261 66 1120.35 66 L 1057.65 66 C 1056.739 66 1056 65.261 1056 64.35 L 1056 1.65 C 1056 0.739 1056.739 0 1057.65 0 Z" style="stroke:none;fill:#101C48;stroke-linecap:square;stroke-miterlimit:2;"/></g><g transform="matrix(1,0,0,1,1063,17.339)"><text transform="matrix(1,0,0,1,0,24.583)" style="font-family:'Open Sans';font-weight:400;font-size:23px;font-style:normal;fill:#ffffff;stroke:none;">SIAG</text></g><defs><filter id="xu3DtXz4lpA7QqAPLDsbqTUBCmZjFmzS" x="-200%" y="-200%" width="400%" height="400%" filterUnits="objectBoundingBox" color-interpolation-filters="sRGB"><feGaussianBlur xmlns="http://www.w3.org/2000/svg" stdDeviation="10.304661750813668" result="_out_rMoAz1JBomQYhUdg76L5KwtxAzQKV2BE"/><feGaussianBlur xmlns="http://www.w3.org/2000/svg" stdDeviation="19.535921235917577" in="_out_rMoAz1JBomQYhUdg76L5KwtxAzQKV2BE"/></filter></defs><g filter="url(#xu3DtXz4lpA7QqAPLDsbqTUBCmZjFmzS)"><path d="M 1057.65 244 L 1120.35 244 C 1121.261 244 1122 244.739 1122 245.65 L 1122 308.35 C 1122 309.261 1121.261 310 1120.35 310 L 1057.65 310 C 1056.739 310 1056 309.261 1056 308.35 L 1056 245.65 C 1056 244.739 1056.739 244 1057.65 244 Z" style="stroke:none;fill:#101C48;stroke-linecap:square;stroke-miterlimit:2;"/></g><g transform="matrix(1,0,0,1,1057,264)"><text transform="matrix(1,0,0,1,0,20.308)" style="font-family:'Open Sans';font-weight:400;font-size:19px;font-style:normal;fill:#ffffff;stroke:none;">RAMAL</text></g><path d="M 1057.65 161 L 1120.35 161 C 1121.261 161 1122 161.739 1122 162.65 L 1122 225.35 C 1122 226.261 1121.261 227 1120.35 227 L 1057.65 227 C 1056.739 227 1056 226.261 1056 225.35 L 1056 162.65 C 1056 161.739 1056.739 161 1057.65 161 Z" style="stroke:none;fill:#FFFFFF;stroke-linecap:square;stroke-miterlimit:2;"/><path d="M 1057.65 161 L 1120.35 161 C 1121.261 161 1122 161.739 1122 162.65 L 1122 225.35 C 1122 226.261 1121.261 227 1120.35 227 L 1057.65 227 C 1056.739 227 1056 226.261 1056 225.35 L 1056 162.65 C 1056 161.739 1056.739 161 1057.65 161 Z" style="fill:none;stroke:#000000;stroke-width:1;stroke-linecap:square;stroke-miterlimit:2;"/><g transform="matrix(1,0,0,1,1072.5,179.02)"><text transform="matrix(1,0,0,1,0,24.583)" style="font-family:'Open Sans';font-weight:400;font-size:23px;font-style:normal;fill:#000000;stroke:none;">PJE</text></g><defs><filter id="a7l20OzxZIRuzdqwnfxDVQFISeWwfpCT" x="-200%" y="-200%" width="400%" height="400%" filterUnits="objectBoundingBox" color-interpolation-filters="sRGB"><feGaussianBlur xmlns="http://www.w3.org/2000/svg" stdDeviation="10.304661750813668" result="_out_BEDMHnzP77VB8c3a1hGpR3TmvUOHbBrC"/><feGaussianBlur xmlns="http://www.w3.org/2000/svg" stdDeviation="19.535921235917577" in="_out_BEDMHnzP77VB8c3a1hGpR3TmvUOHbBrC"/></filter></defs><g filter="url(#a7l20OzxZIRuzdqwnfxDVQFISeWwfpCT)"><path d="M 1213.65 161 L 1276.35 161 C 1277.261 161 1278 161.739 1278 162.65 L 1278 225.35 C 1278 226.261 1277.261 227 1276.35 227 L 1213.65 227 C 1212.739 227 1212 226.261 1212 225.35 L 1212 162.65 C 1212 161.739 1212.739 161 1213.65 161 Z" style="stroke:none;fill:#36488C;stroke-linecap:square;stroke-miterlimit:2;"/></g><g transform="matrix(1,0,0,1,1217,181)"><text transform="matrix(1,0,0,1,0,20.308)" style="font-family:'Open Sans';font-weight:400;font-size:19px;font-style:normal;fill:#ffffff;stroke:none;">SEGES</text></g><path d="M 1131.65 80 L 1194.35 80 C 1195.261 80 1196 80.739 1196 81.65 L 1196 144.35 C 1196 145.261 1195.261 146 1194.35 146 L 1131.65 146 C 1130.739 146 1130 145.261 1130 144.35 L 1130 81.65 C 1130 80.739 1130.739 80 1131.65 80 Z" style="stroke:none;fill:#00CCFF;stroke-linecap:square;stroke-miterlimit:2;"/><path d="M 1131.65 80 L 1194.35 80 C 1195.261 80 1196 80.739 1196 81.65 L 1196 144.35 C 1196 145.261 1195.261 146 1194.35 146 L 1131.65 146 C 1130.739 146 1130 145.261 1130 144.35 L 1130 81.65 C 1130 80.739 1130.739 80 1131.65 80 Z" style="fill:none;stroke:#000000;stroke-width:1;stroke-linecap:square;stroke-miterlimit:2;"/><g transform="matrix(1,0,0,1,1131,105.595)"><text transform="matrix(1,0,0,1,0,19.239)" style="font-family:'Open Sans';font-weight:400;font-size:18px;font-style:normal;fill:#ffffff;stroke:none;">PONTO</text></g><g transform="matrix(1,0,0,1,1143.5,88.595)"><text transform="matrix(1,0,0,1,0,19.239)" style="font-family:'Open Sans';font-weight:400;font-size:18px;font-style:normal;fill:#ffffff;stroke:none;">WEB</text></g><defs><filter id="Gx8TxsyC35WBu6P3kDnQsMxb4Jep88Xk" x="-200%" y="-200%" width="400%" height="400%" filterUnits="objectBoundingBox" color-interpolation-filters="sRGB"><feGaussianBlur xmlns="http://www.w3.org/2000/svg" stdDeviation="10.304661750813668" result="_out_AJYuEhMZMj4Vl4RzhiqYpXNDBZGWqkWO"/><feGaussianBlur xmlns="http://www.w3.org/2000/svg" stdDeviation="19.535921235917577" in="_out_AJYuEhMZMj4Vl4RzhiqYpXNDBZGWqkWO"/></filter></defs><g filter="url(#Gx8TxsyC35WBu6P3kDnQsMxb4Jep88Xk)"><path d="M 1212.65 0 L 1275.35 0 C 1276.261 0 1277 0.739 1277 1.65 L 1277 64.35 C 1277 65.261 1276.261 66 1275.35 66 L 1212.65 66 C 1211.739 66 1211 65.261 1211 64.35 L 1211 1.65 C 1211 0.739 1211.739 0 1212.65 0 Z" style="stroke:none;fill:#101C48;stroke-linecap:square;stroke-miterlimit:2;"/></g><g transform="matrix(1,0,0,1,1211,1)"><text transform="matrix(1,0,0,1,0,16.033)" style="font-family:'Open Sans';font-weight:400;font-size:15px;font-style:normal;fill:#ffffff;stroke:none;">PRO</text></g><g transform="matrix(1,0,0,1,1231,17)"><text transform="matrix(1,0,0,1,0,16.033)" style="font-family:'Open Sans';font-weight:400;font-size:15px;font-style:normal;fill:#ffffff;stroke:none;">TO</text></g><g transform="matrix(1,0,0,1,1241,31)"><text transform="matrix(1,0,0,1,0,16.033)" style="font-family:'Open Sans';font-weight:400;font-size:15px;font-style:normal;fill:#ffffff;stroke:none;">CO</text></g><g transform="matrix(1,0,0,1,1253,47)"><text transform="matrix(1,0,0,1,0,16.033)" style="font-family:'Open Sans';font-weight:400;font-size:15px;font-style:normal;fill:#ffffff;stroke:none;">LO</text></g><path d="M 1294.65 80 L 1357.35 80 C 1358.261 80 1359 80.739 1359 81.65 L 1359 144.35 C 1359 145.261 1358.261 146 1357.35 146 L 1294.65 146 C 1293.739 146 1293 145.261 1293 144.35 L 1293 81.65 C 1293 80.739 1293.739 80 1294.65 80 Z" style="stroke:none;fill:#FFFFFF;stroke-linecap:square;stroke-miterlimit:2;"/><path d="M 1294.65 80 L 1357.35 80 C 1358.261 80 1359 80.739 1359 81.65 L 1359 144.35 C 1359 145.261 1358.261 146 1357.35 146 L 1294.65 146 C 1293.739 146 1293 145.261 1293 144.35 L 1293 81.65 C 1293 80.739 1293.739 80 1294.65 80 Z" style="fill:none;stroke:#000000;stroke-width:1;stroke-linecap:square;stroke-miterlimit:2;"/><g transform="matrix(1,0,0,1,1293,102.191)"><text transform="matrix(1,0,0,1,3.261,24.583)" style="font-family:'Open Sans';font-weight:400;font-size:23px;font-style:normal;fill:#000000;stroke:none;">OTRS</text></g><defs><filter id="Lx48M4dW6n38FDqQF4nEIVvEYCfvfpPH" x="-200%" y="-200%" width="400%" height="400%" filterUnits="objectBoundingBox" color-interpolation-filters="sRGB"><feGaussianBlur xmlns="http://www.w3.org/2000/svg" stdDeviation="10.304661750813668" result="_out_k2ecKbXJ0vr54OUvfCl3g8RqgO2bXNSJ"/><feGaussianBlur xmlns="http://www.w3.org/2000/svg" stdDeviation="19.535921235917577" in="_out_k2ecKbXJ0vr54OUvfCl3g8RqgO2bXNSJ"/></filter></defs><g filter="url(#Lx48M4dW6n38FDqQF4nEIVvEYCfvfpPH)"><path d="M 1131.65 161 L 1194.35 161 C 1195.261 161 1196 161.739 1196 162.65 L 1196 225.35 C 1196 226.261 1195.261 227 1194.35 227 L 1131.65 227 C 1130.739 227 1130 226.261 1130 225.35 L 1130 162.65 C 1130 161.739 1130.739 161 1131.65 161 Z" style="stroke:none;fill:#36488C;stroke-linecap:square;stroke-miterlimit:2;"/></g><g transform="matrix(1,0,0,1,1134,181)"><text transform="matrix(1,0,0,1,5.771,20.308)" style="font-family:'Open Sans';font-weight:400;font-size:19px;font-style:normal;fill:#ffffff;stroke:none;">SEAP</text></g><path d="M 1057.65 80 L 1120.35 80 C 1121.261 80 1122 80.739 1122 81.65 L 1122 144.35 C 1122 145.261 1121.261 146 1120.35 146 L 1057.65 146 C 1056.739 146 1056 145.261 1056 144.35 L 1056 81.65 C 1056 80.739 1056.739 80 1057.65 80 Z" style="stroke:none;fill:#00CCFF;stroke-linecap:square;stroke-miterlimit:2;"/><path d="M 1057.65 80 L 1120.35 80 C 1121.261 80 1122 80.739 1122 81.65 L 1122 144.35 C 1122 145.261 1121.261 146 1120.35 146 L 1057.65 146 C 1056.739 146 1056 145.261 1056 144.35 L 1056 81.65 C 1056 80.739 1056.739 80 1057.65 80 Z" style="fill:none;stroke:#000000;stroke-width:1;stroke-linecap:square;stroke-miterlimit:2;"/><g transform="matrix(1,0,0,1,1057.5,105.595)"><text transform="matrix(1,0,0,1,13.813,19.239)" style="font-family:'Open Sans';font-weight:400;font-size:18px;font-style:normal;fill:#ffffff;stroke:none;">SAG</text></g><path d="M 1294.65 0 L 1357.35 0 C 1358.261 0 1359 0.739 1359 1.65 L 1359 64.35 C 1359 65.261 1358.261 66 1357.35 66 L 1294.65 66 C 1293.739 66 1293 65.261 1293 64.35 L 1293 1.65 C 1293 0.739 1293.739 0 1294.65 0 Z" style="stroke:none;fill:#00CCFF;stroke-linecap:square;stroke-miterlimit:2;"/><path d="M 1294.65 0 L 1357.35 0 C 1358.261 0 1359 0.739 1359 1.65 L 1359 64.35 C 1359 65.261 1358.261 66 1357.35 66 L 1294.65 66 C 1293.739 66 1293 65.261 1293 64.35 L 1293 1.65 C 1293 0.739 1293.739 0 1294.65 0 Z" style="fill:none;stroke:#000000;stroke-width:1;stroke-linecap:square;stroke-miterlimit:2;"/><g transform="matrix(1,0,0,1,1293,20)"><text transform="matrix(1,0,0,1,2.916,20.308)" style="font-family:'Open Sans';font-weight:400;font-size:19px;font-style:normal;fill:#ffffff;stroke:none;">GMAIL</text></g><defs><filter id="i6mc5nQp5UG4hK3JzcEBsHPLky8ywuSH" x="-200%" y="-200%" width="400%" height="400%" filterUnits="objectBoundingBox" color-interpolation-filters="sRGB"><feGaussianBlur xmlns="http://www.w3.org/2000/svg" stdDeviation="10.304661750813668" result="_out_rpD1YveG0nK29gQiPtARnToZMFimaoB0"/><feGaussianBlur xmlns="http://www.w3.org/2000/svg" stdDeviation="19.535921235917577" in="_out_rpD1YveG0nK29gQiPtARnToZMFimaoB0"/></filter></defs><g filter="url(#i6mc5nQp5UG4hK3JzcEBsHPLky8ywuSH)"><path d="M 1131.65 0 L 1194.35 0 C 1195.261 0 1196 0.739 1196 1.65 L 1196 64.35 C 1196 65.261 1195.261 66 1194.35 66 L 1131.65 66 C 1130.739 66 1130 65.261 1130 64.35 L 1130 1.65 C 1130 0.739 1130.739 0 1131.65 0 Z" style="stroke:none;fill:#101C48;stroke-linecap:square;stroke-miterlimit:2;"/></g><g transform="matrix(1,0,0,1,1130,18.402)"><text transform="matrix(1,0,0,1,0,22.446)" style="font-family:'Open Sans';font-weight:400;font-size:21px;font-style:normal;fill:#ffffff;stroke:none;">SIAG-C</text></g><path d="M 1213.65 80 L 1276.35 80 C 1277.261 80 1278 80.739 1278 81.65 L 1278 144.35 C 1278 145.261 1277.261 146 1276.35 146 L 1213.65 146 C 1212.739 146 1212 145.261 1212 144.35 L 1212 81.65 C 1212 80.739 1212.739 80 1213.65 80 Z" style="stroke:none;fill:#FFFFFF;stroke-linecap:square;stroke-miterlimit:2;"/><path d="M 1213.65 80 L 1276.35 80 C 1277.261 80 1278 80.739 1278 81.65 L 1278 144.35 C 1278 145.261 1277.261 146 1276.35 146 L 1213.65 146 C 1212.739 146 1212 145.261 1212 144.35 L 1212 81.65 C 1212 80.739 1212.739 80 1213.65 80 Z" style="fill:none;stroke:#000000;stroke-width:1;stroke-linecap:square;stroke-miterlimit:2;"/><g transform="matrix(1,0,0,1,1213,104.234)"><text transform="matrix(1,0,0,1,0,21.377)" style="font-family:'Open Sans';font-weight:400;font-size:20px;font-style:normal;fill:#000000;stroke:none;">FIPLAN</text></g><defs><filter id="8GoyOAQXli8v9QJFSH52och0FHtBG67X" x="-200%" y="-200%" width="400%" height="400%" filterUnits="objectBoundingBox" color-interpolation-filters="sRGB"><feGaussianBlur xmlns="http://www.w3.org/2000/svg" stdDeviation="10.304661750813668" result="_out_ZfPeqSKyhvUc6PLfrrtrZKIDPrYtQq8g"/><feGaussianBlur xmlns="http://www.w3.org/2000/svg" stdDeviation="19.535921235917577" in="_out_ZfPeqSKyhvUc6PLfrrtrZKIDPrYtQq8g"/></filter></defs><g filter="url(#8GoyOAQXli8v9QJFSH52och0FHtBG67X)"><path d="M 1294.65 161 L 1357.35 161 C 1358.261 161 1359 161.739 1359 162.65 L 1359 225.35 C 1359 226.261 1358.261 227 1357.35 227 L 1294.65 227 C 1293.739 227 1293 226.261 1293 225.35 L 1293 162.65 C 1293 161.739 1293.739 161 1294.65 161 Z" style="stroke:none;fill:#36488C;stroke-linecap:square;stroke-miterlimit:2;"/></g><g transform="matrix(1,0,0,1,1293,181)"><text transform="matrix(1,0,0,1,0,20.308)" style="font-family:'Open Sans';font-weight:400;font-size:19px;font-style:normal;fill:#ffffff;stroke:none;">SIGPAT</text></g><path d="M 732.65 722 L 795.35 722 C 796.261 722 797 722.739 797 723.65 L 797 786.35 C 797 787.261 796.261 788 795.35 788 L 732.65 788 C 731.739 788 731 787.261 731 786.35 L 731 723.65 C 731 722.739 731.739 722 732.65 722 Z" style="stroke:none;fill:#00CCFF;stroke-linecap:square;stroke-miterlimit:2;"/><path d="M 732.65 722 L 795.35 722 C 796.261 722 797 722.739 797 723.65 L 797 786.35 C 797 787.261 796.261 788 795.35 788 L 732.65 788 C 731.739 788 731 787.261 731 786.35 L 731 723.65 C 731 722.739 731.739 722 732.65 722 Z" style="fill:none;stroke:#000000;stroke-width:1;stroke-linecap:square;stroke-miterlimit:2;"/><g transform="matrix(1,0,0,1,731,742)"><text transform="matrix(1,0,0,1,0.596,20.308)" style="font-family:'Open Sans';font-weight:400;font-size:19px;font-style:normal;fill:#ffffff;stroke:none;">RAMAL</text></g></g></svg>